<svg xmlns="http://www.w3.org/2000/svg" width="81" height="81" class="icon" p-id="6903" t="1602070925022" version="1.1" viewBox="0 0 1024 1024"><path fill="#8a8a8a" d="M142.859375 459.265625h316.40625V142.859375H142.859375v316.40625zM248.328125 248.328125h105.46875v105.46875H248.328125V248.328125z m316.40625-105.46875v316.40625h316.40625V142.859375H564.734375z m210.9375 210.9375h-105.46875V248.328125h105.46875v105.46875zM142.859375 881.140625h316.40625V564.734375H142.859375v316.40625z m105.46875-210.9375h105.46875v105.46875H248.328125v-105.46875z m580.07812501-105.46875h52.73437499v210.9375h-158.203125v-52.734375h-52.734375v158.203125h-105.46875V564.734375h158.203125v52.73437501h105.46875001v-52.73437501z m0 263.67187501h52.73437499v52.73437499h-52.73437499v-52.73437499z m-105.46875001 0h52.734375v52.73437499h-52.734375v-52.73437499z" p-id="6904"/></svg>