<svg viewBox="0 0 1024 1024" xmlns="http://www.w3.org/2000/svg"><path d="M67 512a445 445 0 1 0 890 0 445 445 0 1 0-890 0z" fill="#EBF2FF"/><path d="M278.187 279.78h212.309v212.309h-212.31z" fill="#377FFC"/><path d="M638.52 492.089c-5.574 0-11.036-2.162-15.245-6.372L537.6 400.043c-8.42-8.42-8.42-22.073 0-30.493l85.675-85.674c8.078-8.079 22.414-8.079 30.492 0l85.675 85.674c8.42 8.42 8.42 22.073 0 30.493l-85.675 85.674c-4.096 4.21-9.671 6.372-15.246 6.372zm-55.068-107.293 55.183 55.183 55.182-55.183-55.182-55.182-55.183 55.182z" fill="#ABC6F6"/><path d="M278.187 533.96h212.309v212.308h-212.31zm253.155 0h212.31v212.308h-212.31z" fill="#377FFC"/></svg>