<svg viewBox="0 0 1024 1024" xmlns="http://www.w3.org/2000/svg" width="81" height="81"><path d="M62 512a450 450 0 1 0 900 0 450 450 0 1 0-900 0z" fill="#E57E25"/><path d="M73.716 547.164c58.195-55.575 153.868-73.221 222.638-41.11A847.157 847.157 0 0 0 165.29 798.859c7.57 9.145 15.557 17.903 23.818 26.405a15.67 15.67 0 0 0 4.757-8.084 814.612 814.612 0 0 1 129.777-294.042c41.062 31.87 61.216 84.326 56.652 151.633l-.065.868.032.884c4.034 97.441 60.204 186.606 150.236 238.484a307.302 307.302 0 0 0 87.847 34.216 446.898 446.898 0 0 0 76.885-26.26c-49.001 3.792-100.88-8.261-148.693-35.808-80.18-46.205-130.258-125.067-134.132-211.114 6.349-97.457-32.271-150.653-69.493-179.116a823.982 823.982 0 0 1 78.075-88.2 3530.893 3530.893 0 0 1 322.65 342.53l69.317 84.327 24.83-20.427-69.316-84.326a3562.779 3562.779 0 0 0-324-344.186 822.423 822.423 0 0 1 70.28-56.941c38.41 48.552 100.173 72.337 177.364 67.259 72.627 3.294 140.786 42.83 187.12 108.546 36.032 51.107 54.37 111.89 52.538 168.59a447.107 447.107 0 0 0 22.773-80.888 324.964 324.964 0 0 0-49.034-106.216c-52.313-74.202-129.922-118.736-212.914-122.175l-.884-.032-.868.064c-65.41 4.404-117.225-14.641-149.384-53.679A814.5 814.5 0 0 1 817.164 193.85a15.702 15.702 0 0 0 8.004-4.854 449.39 449.39 0 0 0-26.341-23.737A846.53 846.53 0 0 0 523.86 284.3c-31.275-62.807-20.33-151.071 26.79-211.645l6.542-8.405A456.01 456.01 0 0 0 512 62v9.868c-44.582 70.57-51.22 162.466-14.882 230.962a857.957 857.957 0 0 0-76.388 61.988 3546.498 3546.498 0 0 0-161.566-139.404l-53.276-43.135a451.356 451.356 0 0 0-22.886 22.853l55.944 45.29A3507.477 3507.477 0 0 1 397.33 386.98a857.218 857.218 0 0 0-81.723 92.765c-1.832-.933-3.696-1.897-5.448-2.716-76.227-35.695-176.48-20.733-245.105 34.971H62c0 14.946.771 29.7 2.186 44.26l9.53-9.096z" fill="#38454F"/></svg>