<svg viewBox="0 0 1024 1024" xmlns="http://www.w3.org/2000/svg" width="81" height="81"><path d="M842.08 915.292c-14.72 0-26.667-11.946-26.667-26.666V284.252c0-91.733-74.666-166.4-166.4-166.4s-166.4 74.667-166.4 166.4c0 14.72-11.946 26.667-26.666 26.667s-26.667-11.947-26.667-26.667c0-121.173 98.56-219.733 219.733-219.733s219.734 98.56 219.734 219.733v604.374c0 14.72-11.936 26.666-26.667 26.666z" fill="#73D8FF"/><path d="M705.973 598.6H200.907a58.583 58.583 0 0 1-43.947-19.84c-11.093-12.48-16.213-29.12-14.187-45.654v-.32c19.52-156.16 153.067-273.92 310.614-273.92S744.48 376.626 764 532.679v.427c2.027 16.533-3.093 33.173-14.187 45.653-10.986 12.693-26.986 19.84-43.84 19.84z" fill="#057CE0"/><path d="M350.987 762.972h-8c-12.48 0-22.614-10.133-22.614-22.613v-71.787c0-12.48 10.134-22.613 22.614-22.613h8c12.48 0 22.613 10.133 22.613 22.613v71.787c.117 12.48-10.016 22.613-22.613 22.613zm0 148.48h-8c-12.48 0-22.614-10.133-22.614-22.613v-71.787c0-12.48 10.134-22.613 22.614-22.613h8c12.48 0 22.613 10.133 22.613 22.613v71.787c.117 12.48-10.016 22.613-22.613 22.613zm106.464-148.48h-8c-12.48 0-22.614-10.133-22.614-22.613v-71.787c0-12.48 10.134-22.613 22.614-22.613h8c12.48 0 22.613 10.133 22.613 22.613v71.787c.096 12.48-10.144 22.613-22.613 22.613zm0 148.48h-8c-12.48 0-22.614-10.133-22.614-22.613v-71.787c0-12.48 10.134-22.613 22.614-22.613h8c12.48 0 22.613 10.133 22.613 22.613v71.787c.096 12.48-10.144 22.613-22.613 22.613zm106.442-148.48h-8c-12.48 0-22.613-10.133-22.613-22.613v-71.787c0-12.48 10.133-22.613 22.613-22.613h8c12.48 0 22.614 10.133 22.614 22.613v71.787c0 12.48-10.134 22.613-22.614 22.613zm0 148.48h-8c-12.48 0-22.613-10.133-22.613-22.613v-71.787c0-12.48 10.133-22.613 22.613-22.613h8c12.48 0 22.614 10.133 22.614 22.613v71.787c0 12.48-10.134 22.613-22.614 22.613z" fill="#73D8FF"/></svg>