<svg viewBox="0 0 1024 1024" xmlns="http://www.w3.org/2000/svg" width="81" height="81"><path d="M161.246 117.333h170.667q42.666 0 42.666 42.667v704q0 42.667-42.666 42.667H161.246q-42.667 0-42.667-42.667V160q0-42.667 42.667-42.667z" fill="#2C83FF"/><path d="m542.046 152.853 164.8-44.16a42.603 42.603 0 0 1 52.267 30.176l182.208 680a42.667 42.667 0 0 1-30.176 52.267l-164.854 44.17a42.667 42.667 0 0 1-52.266-30.175L511.827 205.12a42.667 42.667 0 0 1 30.219-52.267z" fill="#72F0E8"/><path d="M417.246 117.333h170.667q42.666 0 42.666 42.667v704q0 42.667-42.666 42.667H417.246q-42.667 0-42.667-42.667V160q0-42.667 42.667-42.667z" fill="#16B6FF"/><path d="M630.58 160v488.31L511.826 205.12a42.667 42.667 0 0 1 30.176-52.267l77.91-20.864A42.315 42.315 0 0 1 630.579 160z" fill="#72F0E8"/></svg>