<svg viewBox="0 0 1024 1024" xmlns="http://www.w3.org/2000/svg" width="81" height="81"><path d="M313.298 109.421a36 36 0 0 0-52.596 49.158l8.01 8.577c131.625 140.832 354.96 140.832 486.576 0l8.01-8.577a36 36 0 0 0-52.596-49.158l-8.01 8.577c-103.167 110.376-278.217 110.376-381.375 0l-8.01-8.577zM133.784 354.698a36 36 0 0 0-35.568 62.604l13.635 7.74a809.334 809.334 0 0 0 238.275 89.424 593.982 593.982 0 0 0-58.734 20.007l-197.766 79.11a36 36 0 0 0 26.748 66.843l197.757-79.11a522 522 0 0 1 387.738 0l197.766 79.11a36 36 0 1 0 26.73-66.852l-197.757-79.11a594.288 594.288 0 0 0-58.734-19.998 809.325 809.325 0 0 0 238.275-89.415l13.635-7.749a36 36 0 0 0-35.568-62.604l-13.635 7.749a738 738 0 0 1-729.162 0l-13.635-7.74zm388.215 374.715a36 36 0 0 0-19.998 0l-324 93.69a36 36 0 1 0 19.998 69.165L512 801.476l314.001 90.792a36 36 0 1 0 19.998-69.165l-324-93.69z" fill="#707070"/><path d="M170 557a396 342 90 1 0 684 0 396 342 90 1 0-684 0z" fill="#d81e06"/><path d="M476 950.84V413h72v537.84a299.097 299.097 0 0 1-72 0z" fill="#2c2c2c"/><path d="M207.998 380.276C264.851 250.028 379.646 161 512 161c133.776 0 249.615 90.963 305.82 223.506C738.503 430.136 632.69 458 516.5 458c-119.745 0-228.447-29.583-308.502-77.724z" fill="#515151"/><path d="M341 305a63 63 0 1 0 126 0 63 63 0 1 0-126 0zm207-9a63 63 0 1 0 126 0 63 63 0 1 0-126 0z" fill="#fff"/></svg>