<svg viewBox="0 0 1024 1024" xmlns="http://www.w3.org/2000/svg" width="81" height="81"><path d="M512 363.685h338.665l65.854-49.439C888.634 256 829.603 215.37 760.84 215.37H90.125v98.877l58.49 49.439z" fill="#FF641A"/><path d="M916.519 314.246C888.634 256 829.603 215.37 760.84 215.37H512v148.316h338.665z" fill="#F03800"/><path d="M904.991 562.277 705.56 462.562H147.05L90.125 512v197.754h843.75v-83.597z" fill="#FF641A"/><path d="m933.875 626.157-28.884-63.88-199.431-99.715H512v247.192h421.875z" fill="#F03800"/><path d="m884.437 472.001 46.94-108.316c-2.535-17.484-7.49-34.044-14.858-49.439H90.125V512H705.56l228.315 114.157v-55.28z" fill="#F03800"/><path d="M933.875 626.157v-55.28l-49.438-98.878 46.94-108.314c-2.535-17.484-7.49-34.044-14.858-49.439H512V512h193.56z" fill="#CD0000"/><path d="m736.121 472.001 197.754 98.877V388.404c0-8.464-1.318-16.575-2.498-24.72H736.12z" fill="#E7E7F2"/><path d="M289.527 808.63c-54.532 0-98.877-44.344-98.877-98.876s44.345-98.877 98.877-98.877 98.877 44.345 98.877 98.877-44.345 98.877-98.877 98.877z" fill="#596C76"/><path d="M289.527 660.315c-27.254 0-49.439 22.185-49.439 49.439s22.185 49.438 49.439 49.438 49.438-22.184 49.438-49.438-22.184-49.439-49.438-49.439z" fill="#F2F2F2"/><path d="M736.121 808.63c-54.532 0-98.877-44.344-98.877-98.876s44.345-98.877 98.877-98.877 98.877 44.345 98.877 98.877-44.345 98.877-98.877 98.877z" fill="#465A61"/><path d="M736.121 660.315c-27.254 0-49.438 22.185-49.438 49.439s22.184 49.438 49.438 49.438 49.439-22.184 49.439-49.438-22.185-49.439-49.439-49.439z" fill="#E7E7F2"/><path d="M139.563 363.685h149.964v98.877H139.563zm199.402 0h148.316v98.877H338.965z" fill="#F2F2F2"/><path d="M536.72 363.685h149.963v98.877H536.719z" fill="#E7E7F2"/></svg>