<svg viewBox="0 0 1024 1024" xmlns="http://www.w3.org/2000/svg" width="81" height="81"><path d="M132 792V312h760v480c0 44-36 80-80 80H212c-44 0-80-36-80-80z" fill="#CFD8DC"/><path d="M892 232v120H132V232c0-44 36-80 80-80h600c44 0 80 36 80 80z" fill="#F44336"/><path d="M632 232a60 60 0 1 0 120 0 60 60 0 1 0-120 0zm-360 0a60 60 0 1 0 120 0 60 60 0 1 0-120 0z" fill="#B71C1C"/><path d="M692 92c-22 0-40 18-40 40v100c0 22 18 40 40 40s40-18 40-40V132c0-22-18-40-40-40zm-360 0c-22 0-40 18-40 40v100c0 22 18 40 40 40s40-18 40-40V132c0-22-18-40-40-40z" fill="#B0BEC5"/><path d="M292 432h80v80h-80zm120 0h80v80h-80zm120 0h80v80h-80zm120 0h80v80h-80zM292 552h80v80h-80zm120 0h80v80h-80zm120 0h80v80h-80zm120 0h80v80h-80zM292 672h80v80h-80zm120 0h80v80h-80zm120 0h80v80h-80zm120 0h80v80h-80z" fill="#90A4AE"/></svg>