<svg viewBox="0 0 1024 1024" xmlns="http://www.w3.org/2000/svg" width="81" height="81"><path d="M463.733 91.022a386.844 386.844 0 0 0 0 773.69 394.581 394.581 0 0 0 116.509-17.75 103.31 103.31 0 0 1 17.294-39.14 171.577 171.577 0 0 1 116.508-68.266h11.378V557.51a118.784 118.784 0 0 1 118.33-118.329h6.826a387.755 387.755 0 0 0-386.845-348.16zM247.556 261.69a34.133 34.133 0 1 1 34.133 34.133 33.678 33.678 0 0 1-34.133-34.133zm216.177 398.22a182.044 182.044 0 1 1 182.045-182.044A182.044 182.044 0 0 1 463.733 659.91z" fill="#383838"/><path d="M987.111 506.084v35.953a23.21 23.21 0 0 1-12.743 20.48L861.5 618.951a35.954 35.954 0 0 0-20.024 32.313v196.153c0 36.864-40.96 73.273-96.029 82.83a161.564 161.564 0 0 1-29.127 2.73c-45.511 0-86.471-22.3-91.022-55.978a66.446 66.446 0 0 1 26.396-60.53 126.976 126.976 0 0 1 30.493-18.66 162.02 162.02 0 0 1 37.319-11.377 251.676 251.676 0 0 1 30.947-2.73 124.245 124.245 0 0 1 18.66 0v-226.19a72.818 72.818 0 0 1 72.818-72.819h122.88a22.756 22.756 0 0 1 22.3 21.39zm-523.378-164.75a136.533 136.533 0 1 0 136.534 136.533 136.533 136.533 0 0 0-136.534-136.534zm0 204.8A68.267 68.267 0 1 1 532 477.866a68.267 68.267 0 0 1-68.267 68.266z" fill="#939598"/></svg>