<svg viewBox="0 0 1024 1024" xmlns="http://www.w3.org/2000/svg" width="81" height="81"><path d="M751.49 893.889c0 28.48-23.302 51.781-51.782 51.781H324.292c-28.48 0-51.782-23.301-51.782-51.781V130.11c0-28.48 23.302-51.781 51.782-51.781h375.416c28.48 0 51.782 23.301 51.782 51.781v763.78z" fill="#ECF0F1"/><path d="M311.347 156.002h401.306v673.16H311.347z" fill="#213140"/><path d="m502.938 156.002 209.754 491.925-.039-491.925z" fill="#375667"/><path d="M548.597 887.688a36.597 36.597 0 1 1-73.194 0 36.597 36.597 0 0 1 73.194 0zM466.69 104.22h90.618v25.891H466.69z" fill="#D0D3D6"/></svg>