<svg viewBox="0 0 1024 1024" xmlns="http://www.w3.org/2000/svg"><path d="M665.521 962H358.48c-29.914 0-54.889-22.747-57.596-52.451l-58.71-644.895h539.65L723.11 909.553c-2.7 29.7-27.679 52.447-57.589 52.447z" fill="#FFEACF"/><path d="M245.589 302.154H778.41l3.417-37.5H242.173z" fill="#FFD59A"/><path d="m405.886 909.553-58.714-644.9h-105l58.714 644.9C303.59 939.255 328.57 962 358.48 962h105c-29.91 0-54.889-22.744-57.593-52.447z" fill="#FFD59A"/><path d="M791.424 190.887H232.576l34.196-96.798A48.188 48.188 0 0 1 312.23 62h399.54a48.188 48.188 0 0 1 45.458 32.089l34.196 96.799z" fill="#A56021"/><path d="M417.23 62h-105c-20.445 0-38.663 12.863-45.454 32.089l-34.2 96.799h105l34.196-96.8A48.188 48.188 0 0 1 417.23 62z" fill="#8C4C17"/><path d="M800.15 264.654h-576.3a23.1 23.1 0 0 1-23.1-23.1v-47.149a23.1 23.1 0 0 1 23.1-23.1h576.3a23.1 23.1 0 0 1 23.1 23.1v47.149a23.1 23.1 0 0 1-23.1 23.1zM282.174 746.37H741.83c7.796 0 14.306-6.045 15.034-13.95l22.447-245.04c.825-9.018-6.138-16.803-15.033-16.803H259.726c-8.891 0-15.859 7.788-15.034 16.803l22.448 245.04c.724 7.909 7.237 13.95 15.034 13.95z" fill="#A56021"/><path d="M729.17 727.621a11.25 11.25 0 0 1-11.216-12.277l17.861-194.997c.566-6.187 6.041-10.8 12.229-10.177a11.25 11.25 0 0 1 10.177 12.229L740.36 717.395a11.254 11.254 0 0 1-11.19 10.226z" fill="#BF6C0D"/><path d="M387.898 607.482a135 135 0 1 0 270 0 135 135 0 1 0-270 0Z" fill="#DB9C2E"/><path d="M425.398 607.482a97.5 97.5 0 1 0 195 0 97.5 97.5 0 1 0-195 0Z" fill="#FFC34C"/><path d="M305.75 224.405a23.1 23.1 0 0 1 23.1-23.096h494.4v-6.904a23.1 23.1 0 0 0-23.1-23.096h-576.3a23.1 23.1 0 0 0-23.1 23.096v47.149a23.1 23.1 0 0 0 23.1 23.1h81.9v-40.249zm66.39 508.016-22.448-245.036c-.825-9.019 6.14-16.804 15.034-16.804h-105c-8.891 0-15.859 7.785-15.034 16.804l22.448 245.036c.724 7.905 7.237 13.95 15.034 13.95h105c-7.796 0-14.31-6.041-15.034-13.95z" fill="#8C4C17"/><path d="M429.729 903.268a33.75 33.75 0 1 0 67.5 0 33.75 33.75 0 1 0-67.5 0Z" fill="#FFD59A"/></svg>