<svg viewBox="0 0 1024 1024" xmlns="http://www.w3.org/2000/svg" width="81" height="81"><path d="M807.983 355.224H207.017c-57.721 0-104.517 46.8-104.517 104.517V721.03c0 57.722 46.795 104.522 104.517 104.522h600.97c57.717 0 104.517-46.796 104.517-104.522V459.741c-.004-57.717-46.8-104.517-104.521-104.517z" fill="#96383D"/><path d="M624.342 107h-417.33a39.186 39.186 0 0 0-39.19 39.19v535.65a39.181 39.181 0 0 0 39.19 39.19h600.976a39.186 39.186 0 0 0 39.19-39.19V329.835L624.342 107z" fill="#EBE2CE"/><path d="M546.695 263.776H246.212v39.19h300.483v-39.19zM246.212 760.225h522.58V721.03h-522.58v39.195zm0-78.386h522.58v-39.195h-522.58v39.195zm0-156.775h522.58v-39.195h-522.58v39.195zm0 78.385h522.58v-39.19h-522.58v39.19zm0-195.966v39.19h522.58v-39.19h-522.58z" fill="#C9C1B1"/><path d="M889.788 407.685 128.452 901.38c11.332 9.612 25.75 15.62 41.698 15.62h677.236c35.964 0 65.12-29.407 65.12-65.695V457.162c-.005-19.85-8.92-37.431-22.716-49.477z" fill="#D54D54"/><path d="M125.275 410.548C111.44 422.512 102.5 440.005 102.5 459.74v391.933c0 36.085 29.241 65.326 65.322 65.326h679.351c16.002 0 30.456-5.971 41.81-15.525L125.275 410.547z" fill="#EA5455"/><path d="M638.144 120.806v208.125l209.03 65.822v-64.917z"/><path d="M625.08 107.743v182.16a39.186 39.186 0 0 0 39.195 39.195h182.16L625.082 107.743z" fill="#FFFBF2"/></svg>