<svg viewBox="0 0 1024 1024" xmlns="http://www.w3.org/2000/svg" width="81" height="81"><path d="M332 832h460l120 120V532c0-44-36-80-80-80H332c-44 0-80 36-80 80v220c0 44 36 80 80 80z" fill="#007bf9"/><path d="M608 688h-72l-14 42h-44l74-200h38l74 200h-44l-12-42zm-62-32h50l-24-76-26 76z" fill="#fff"/><path d="M692 532H232L112 652V192c0-44 36-80 80-80h500c44 0 80 36 80 80v260c0 44-36 80-80 80z" fill="#1296db"/><path d="M540 316c0 20-4 36-10 50s-14 26-26 34l34 26-26 24-44-34c-4 0-10 2-16 2-12 0-24-2-36-6-10-4-20-12-28-20s-14-20-18-32-6-26-6-42v-8c0-16 2-30 6-42s10-24 18-32 16-16 28-20c10-4 22-6 36-6 12 0 24 2 36 6 10 4 20 12 28 20s14 20 18 32 6 26 6 42v6zm-44-10c0-22-4-38-12-48-8-12-18-16-32-16s-26 6-32 16c-8 12-12 28-12 48v10c0 10 2 20 4 28s4 16 8 20c4 6 8 10 14 12s12 4 18 4c14 0 26-6 32-16 8-12 12-28 12-50v-8z" fill="#FFF"/></svg>