<svg viewBox="0 0 1024 1024" xmlns="http://www.w3.org/2000/svg" width="81" height="81"><path d="M900.7 293.1a93.375 93.375 0 0 0 23.8-62.35c0-51.691-42.059-93.75-93.75-93.75S737 179.059 737 230.75a93.375 93.375 0 0 0 23.8 62.35 46.875 46.875 0 0 0-23.8 40.775v71.209a246.557 246.557 0 0 0-37.5-44.941V305.75a18.75 18.75 0 0 0-37.5 0v24.92a267.867 267.867 0 0 0-48.305-24.703A272.93 272.93 0 0 0 587 297.09v-66.34a18.75 18.75 0 0 0-37.5 0v58.71a286.945 286.945 0 0 0-75 0v-58.71a18.75 18.75 0 0 0-37.5 0v66.34q-12.932 3.58-25.488 8.408a268.125 268.125 0 0 0-49.483 25.195V305.75a18.75 18.75 0 0 0-37.5 0v54.393a246.047 246.047 0 0 0-37.5 44.935v-71.203a46.875 46.875 0 0 0-23.8-40.775A93.375 93.375 0 0 0 287 230.75c0-51.691-42.059-93.75-93.75-93.75S99.5 179.059 99.5 230.75a93.375 93.375 0 0 0 23.8 62.35 46.875 46.875 0 0 0-23.8 40.775V830.75a18.75 18.75 0 0 0 18.75 18.75h150A18.75 18.75 0 0 0 287 830.75V812h450v18.75a18.75 18.75 0 0 0 18.75 18.75h150a18.75 18.75 0 0 0 18.75-18.75V333.875a46.875 46.875 0 0 0-23.8-40.775zM324.5 737H287V530.75c0-41.326 13.09-80.643 37.5-114.14zM437 474.5h-18.75a18.75 18.75 0 0 0-18.75 18.75v75A18.75 18.75 0 0 0 418.25 587H437v150h-75V377.053a227.701 227.701 0 0 1 62.97-36.557q5.948-2.285 12.012-4.242zM549.5 737h-75V587h75zm0-262.5h-75V327.354a247.33 247.33 0 0 1 75 0zm112.5 300h-37.5V737H587V587h18.75a18.75 18.75 0 0 0 18.75-18.75v-75a18.75 18.75 0 0 0-18.75-18.75H587V336.283a230.326 230.326 0 0 1 75 40.87zm75-37.5h-37.5V416.855c23.684 32.66 37.5 71.825 37.5 113.895z" fill="#5C5C66"/></svg>