<svg viewBox="0 0 1025 1024" xmlns="http://www.w3.org/2000/svg" width="81" height="81"><path d="M930.457 480.898a408.575 408.575 0 0 0-817.15 36.431 396.658 396.658 0 0 0 49.028 201.223 66.053 66.053 0 0 1 4.086 52.775l-42.22 127.339a16.683 16.683 0 0 0 22.132 21.11l113.72-44.263a68.096 68.096 0 0 1 59.584 3.405 408.575 408.575 0 0 0 610.82-398.02z" fill="#E8591C"/><path d="M518.07 785.87a50.15 50.15 0 0 1-50.149-50.149V484.976a50.15 50.15 0 1 1 100.298 0V735.72a50.15 50.15 0 0 1-50.149 50.15zm0-501.49a50.15 50.15 0 1 0 50.15 50.148 50.15 50.15 0 0 0-50.15-50.149z" fill="#C44114"/><path d="M543.145 760.796a50.15 50.15 0 0 1-50.15-50.15V459.902a50.15 50.15 0 1 1 100.299 0v250.746a50.15 50.15 0 0 1-50.15 50.149zm0-501.491a50.15 50.15 0 1 0 50.149 50.149 50.15 50.15 0 0 0-50.15-50.15z" fill="#FFB600"/></svg>