<svg viewBox="0 0 1024 1024" xmlns="http://www.w3.org/2000/svg"><path d="M362.35 770.94H168.64a52.86 52.86 0 0 0-52.86 52.86 52.86 52.86 0 0 0 52.86 52.86h328.51c-57.87-27.19-101.79-65.66-134.8-105.72zM168.64 614.53a52.86 52.86 0 0 0-52.86 52.86 52.86 52.86 0 0 0 52.86 52.86h157.55a492.52 492.52 0 0 1-48.83-105.72zm0-156.41A52.86 52.86 0 0 0 115.78 511a52.86 52.86 0 0 0 52.86 52.86h101.43V458.12zm0-156.41a52.86 52.86 0 0 0-52.86 52.86 52.86 52.86 0 0 0 52.86 52.86h101.43V301.71z" fill="#2633D2"/><path d="M591.42 103.2s-98.24 118-302.63 118v360.68s53.87 254.73 302.63 314.56c248.76-59.83 302.63-314.56 302.63-314.56V221.16c-204.39 0-302.63-117.96-302.63-117.96zm122.65 466.89a21.62 21.62 0 1 1 0 43.24H620v56.91a28.61 28.61 0 1 1-57.22 0v-56.91h-94a21.62 21.62 0 0 1 0-43.24h94v-52.78h-94a21.62 21.62 0 1 1 0-43.23h76.87l-91.8-131.14a27.58 27.58 0 1 1 47-28.88l88 129.81H594l88-129.81a27.58 27.58 0 1 1 47 28.88l-91.8 131.14h76.88a21.62 21.62 0 0 1 0 43.23H620v52.78z" fill="#2633D2"/></svg>