<svg viewBox="0 0 1200 1024" xmlns="http://www.w3.org/2000/svg" width="81" height="81"><path d="M904.198 506.381H648.374a44.176 44.176 0 0 0-44.176 44.176V896.05a44.176 44.176 0 0 0 44.176 44.176h254.835a44.176 44.176 0 0 0 44.176-44.176V550.557a44.176 44.176 0 0 0-44.176-44.176zm21.758 362.637a44.176 44.176 0 0 1-44.176 44.176H674.418a44.176 44.176 0 0 1-44.176-44.176V570.667a44.176 44.176 0 0 1 44.176-44.176H881.78a44.176 44.176 0 0 1 44.176 44.176zm0 0" fill="#FB8A13"/><path d="M879.143 710.447a239.011 239.011 0 0 1-62.638-25.714 422.308 422.308 0 0 0-60.33-32.967A135.495 135.495 0 0 0 632.22 666.93h-3.297v205.715a44.505 44.505 0 0 0 44.835 44.176h210.33a44.505 44.505 0 0 0 44.835-44.176V717.7a279.89 279.89 0 0 1-49.78-7.253zm18.791 249.89H655.956a4.286 4.286 0 0 1-4.286-4.286v-29.01a4.286 4.286 0 0 1 4.286-4.286h241.648a4.286 4.286 0 0 1 4.286 4.285v29.011a4.286 4.286 0 0 1-4.286 4.286zM541.89 746.381a75.824 75.824 0 0 1-37.253-65.934V617.81a28.352 28.352 0 0 1 28.352-28.352h82.418V787.26zm-8.901-137.143a9.23 9.23 0 0 0-9.56 9.56v62.638a57.033 57.033 0 0 0 28.022 48.791l44.505 26.044V609.238zm0 0" fill="#FB8A13"/><path d="M487.152 615.743c0-45.123 48.214-41.106 48.214-41.106h63.668v-26.27a58.723 58.723 0 0 1 65.83-59.34h185.44V391.36l68.922 72.013 141.243-142.48L848.45 108.875h-70.467a229.945 229.945 0 0 1-212.02 141.243 224.382 224.382 0 0 1-212.018-141.243h-70.467l-212.02 212.02 141.243 142.479 70.777-70.776v424.038h269.505c-73.249-39.56-65.213-152.06-64.286-199.657zm0 0" fill="#005087"/></svg>