<svg viewBox="0 0 1024 1024" xmlns="http://www.w3.org/2000/svg"><path d="M512 75.093A436.907 436.907 0 1 1 75.093 512 436.907 436.907 0 0 1 512 75.093zm110.683 218.454a145.636 145.636 0 0 0-97.576 37.137 123.79 123.79 0 0 0-41.506 85.197v187.141a79.371 79.371 0 0 1-82.284 72.818 79.371 79.371 0 0 1-82.284-72.818 79.371 79.371 0 0 1 82.284-72.818 28.399 28.399 0 0 0 19.66-8.01 21.845 21.845 0 0 0 8.739-18.204 27.67 27.67 0 0 0-28.399-26.214 133.985 133.985 0 0 0-139.082 125.246 133.985 133.985 0 0 0 139.082 127.431 145.636 145.636 0 0 0 97.576-37.137 123.79 123.79 0 0 0 41.506-84.468v-187.87a82.284 82.284 0 0 1 164.568 0 79.371 79.371 0 0 1-82.284 72.818 26.214 26.214 0 1 0 0 52.428 133.985 133.985 0 0 0 139.082-128.159 133.985 133.985 0 0 0-139.082-124.518z" fill="#03DA6B"/></svg>