<svg viewBox="0 0 1024 1024" xmlns="http://www.w3.org/2000/svg" width="81" height="81"><path d="M789.69 176.665H234.31c-14.647 0-26.523 11.876-26.523 26.525v685.408c0 14.651 11.876 26.527 26.524 26.527h555.38c14.648 0 26.523-11.876 26.523-26.527V203.19c-.001-14.65-11.877-26.525-26.525-26.525z" fill="#DC8744"/><path d="M789.69 161.088H234.31c-14.647 0-26.523 11.878-26.523 26.526v685.408c0 14.651 11.876 26.525 26.524 26.525h555.38c14.648 0 26.523-11.876 26.523-26.525V187.614c-.001-14.648-11.877-26.526-26.525-26.526z" fill="#F6C358"/><path d="M257.205 208.22h509.607v647.138H257.205z" fill="#EBF0F3"/><path d="M257.205 192.875h509.607v647.138H257.205z" fill="#FFF"/><path d="M679.53 142.38a27.758 27.758 0 0 0-27.043-21.503H561.5c.002-27.339-22.161-49.502-49.502-49.502-27.337 0-49.5 22.163-49.5 49.502H371.51a27.758 27.758 0 0 0-27.042 21.502l-18.66 80.696H698.19l-18.66-80.695zm-167.532 2.29c-13.139 0-23.79-10.652-23.79-23.793s10.651-23.792 23.79-23.792c13.143 0 23.794 10.651 23.794 23.792s-10.651 23.792-23.794 23.792z" fill="#DC8744"/><path d="M292.274 266.492h132.89v132.89h-132.89z" fill="#27A2DB"/><path d="M292.274 373.955h132.89v25.435h-132.89z" fill="#2D93BA"/><path d="M451.62 275.368h95.476v21.92H451.62z" fill="#44C4A1"/><path d="M451.62 321.986h280.055v21.92H451.62zm0 46.563h280.055v21.92H451.62z" fill="#E1E6E9"/><path d="M292.274 466.17h132.89v132.89h-132.89z" fill="#FCD462"/><path d="M292.274 573.669h132.89v25.435h-132.89z" fill="#F6C358"/><path d="M451.62 475.09h95.476v21.92H451.62z" fill="#E56353"/><path d="M451.62 521.638h280.055v21.92H451.62zm0 46.582h280.055v21.92H451.62z" fill="#E1E6E9"/><path d="M292.274 665.866h132.89v132.89h-132.89z" fill="#44C4A1"/><path d="M292.274 773.355h132.89v25.435h-132.89z" fill="#3EA69B"/><path d="M451.62 674.743h95.476v21.92H451.62z" fill="#27A2DB"/><path d="M451.62 721.342h280.055v21.92H451.62zm0 46.565h280.055v21.92H451.62z" fill="#E1E6E9"/></svg>