<svg viewBox="0 0 1024 1024" xmlns="http://www.w3.org/2000/svg" width="81" height="81"><path d="M510.781 73.143C267.947 73.143 71.924 269.166 71.924 512S267.947 950.857 510.78 950.857 949.638 754.834 949.638 512 753.615 73.143 510.781 73.143zm-58.514 611.474c-5.852 5.852-11.703 11.703-14.629 17.554H423.01c-43.886 23.406-117.029 14.629-134.583 0-14.629-11.702-14.629-29.257 2.925-43.885 5.852-2.926 11.703-5.852 20.48-8.777-14.628-14.629-26.331-35.109-32.182-55.589-2.926 5.851-8.778 11.703-8.778 14.629-8.777 14.628-20.48 17.554-26.331 0-5.851-17.555-5.851-46.812 8.777-81.92 8.777-20.48 20.48-38.035 29.257-49.738-2.925-2.925-5.851-8.777-5.851-14.628 0-14.629 8.777-26.332 23.406-38.034 5.851-73.143 67.291-131.658 137.508-131.658 38.034 0 73.143 14.629 96.549 40.96-11.703 5.852-20.48 14.629-29.257 23.406-26.332 26.332-43.886 58.514-49.738 96.549-20.48 17.554-23.405 35.108-23.405 46.811 0 5.852 0 11.703 2.925 17.554-11.702 14.629-20.48 29.258-26.331 43.886-14.629 35.109-17.554 70.217-8.777 93.623 5.851 20.48 20.48 23.406 26.331 23.406 8.777 0 17.555-2.926 23.406-8.777 2.926 2.925 5.851 8.777 8.777 11.702-2.926 2.926-5.851 2.926-5.851 2.926zm324.754-46.811c-5.851 14.628-14.629 14.628-23.406 0-2.925-2.926-5.851-8.777-8.777-14.629-5.851 17.554-14.628 35.109-29.257 46.812 8.777 2.925 14.629 5.851 20.48 8.777 14.629 11.703 14.629 26.331 2.926 38.034-14.629 14.629-81.92 20.48-117.029 0h-26.331c-38.035 20.48-102.4 14.629-117.029 0-11.703-11.703-11.703-26.331 2.926-38.034 2.926-2.926 11.703-5.852 17.554-8.777-11.703-14.629-23.406-29.258-29.257-49.738-2.926 5.852-5.851 11.703-8.777 14.629-8.777 14.629-17.554 14.629-23.406 0-5.851-17.554-2.926-40.96 5.852-70.217 5.851-17.554 17.554-32.183 26.331-43.886-2.926-5.851-5.851-11.703-5.851-17.554 0-11.703 5.851-23.406 20.48-35.109 5.851-64.365 58.514-114.103 119.954-114.103 61.44 0 114.103 49.738 119.954 114.103 11.703 8.777 20.48 20.48 20.48 35.109 0 5.851-2.926 11.703-5.851 17.554 8.777 8.777 20.48 23.406 26.331 43.886 17.554 29.257 17.554 55.588 11.703 73.143zm0 0" fill="#1296DB"/></svg>