<svg viewBox="0 0 1024 1024" xmlns="http://www.w3.org/2000/svg" width="81" height="81"><path d="M374.532 361.78H653.06v536.302H374.532z" fill="#FF6660"/><path d="M653.06 914.466H374.532c-8.738 0-16.384-7.646-16.384-16.384V361.78c0-8.738 7.646-16.384 16.384-16.384H653.06c8.738 0 16.384 7.646 16.384 16.384v536.303c0 8.738-7.646 16.384-16.384 16.384zm-262.144-32.768h245.76V378.163h-245.76v503.535z" fill="#251C4E"/><path d="M96.004 531.08h278.528v365.91H96.004z" fill="#FDD838"/><path d="M374.532 914.466H96.004c-8.738 0-16.384-7.646-16.384-16.384V531.081c0-8.739 7.646-16.384 16.384-16.384h278.528c8.738 0 16.384 7.645 16.384 16.384V896.99c0 9.83-7.646 17.476-16.384 17.476zm-262.144-32.768h245.76V547.465h-245.76v334.233z" fill="#251C4E"/><path d="M653.06 629.385h278.528V896.99H653.06z" fill="#FFF"/><path d="M931.588 914.466H653.06c-8.738 0-16.384-7.646-16.384-16.384V629.385c0-8.739 7.646-16.384 16.384-16.384h278.528c8.738 0 16.384 7.645 16.384 16.384V896.99c0 9.83-7.646 17.476-16.384 17.476zm-262.144-32.768h245.76v-235.93h-245.76v235.93z" fill="#251C4E"/><path d="m508.88 275.49 75.367 39.322-15.291-83.013 61.167-60.074-84.105-12.015-37.137-76.459-38.23 76.459-84.104 12.015 61.167 60.074-14.2 83.013z" fill="#FF6660"/><path d="M433.515 331.196c-3.277 0-6.554-1.093-9.83-3.277-5.462-3.277-7.647-9.83-6.554-16.384l13.107-75.366-54.614-53.522c-4.369-4.369-6.553-10.922-4.369-16.384 2.185-5.46 6.554-9.83 13.108-10.922l75.366-10.923 33.86-68.813c3.277-5.461 8.738-8.738 14.2-8.738s12.015 3.277 14.2 8.738l33.86 68.813 75.366 10.923c6.553 1.092 10.922 5.461 13.107 10.922 2.185 5.462 0 12.015-4.37 16.384L585.34 236.17l12.015 73.181c1.092 2.185 1.092 1.093 1.092 3.277 0 8.738-7.646 14.2-16.384 14.2-2.185 0-5.462 2.184-7.646 1.092l-67.72-33.86-67.721 36.044s-3.277 1.093-5.461 1.093zm75.366-72.09c2.184 0 5.461 1.092 7.646 2.185l45.875 24.03-8.738-51.337c-1.092-5.461 1.092-10.923 4.369-14.2l37.137-36.044-51.337-7.646c-5.46-1.092-9.83-4.37-12.014-8.738l-22.938-46.968-22.938 46.968c-2.184 4.369-6.553 7.646-12.015 8.738l-51.336 7.646 37.137 36.045c4.369 3.276 5.461 8.738 4.369 14.199l-8.738 51.337 45.875-24.03c2.185-1.093 4.37-2.185 7.646-2.185zm8.739 555.964h-18.57v-87.381h18.57v87.38zM209.6 799.778h56.798v15.292H191.03v-22.938c0-9.83 2.185-17.476 7.646-22.937 2.185-2.185 5.462-3.277 7.646-4.37 3.277-1.092 7.646-1.092 13.107-1.092h14.2c4.369 0 8.738-1.092 9.83-2.184 3.277-2.185 4.37-4.37 4.37-7.646 0-4.37-1.093-6.554-4.37-8.738-2.184-1.092-5.461-2.185-10.923-2.185H191.03v-15.29h44.783c10.923 0 18.569 2.184 22.938 5.46 2.184 2.185 4.369 5.462 6.553 8.739s2.185 7.646 2.185 10.923c0 5.461-1.092 9.83-2.185 13.107-2.184 4.369-4.369 6.553-7.645 8.738-4.37 2.185-10.923 4.37-20.753 4.37h-12.015c-4.37 0-7.646 0-9.83 1.091-2.185 0-3.278 1.093-4.37 3.277-1.092 1.092-2.184 4.37-2.184 8.738v7.646zm541.764 15.292v-15.292h37.137c5.462 0 8.738-1.092 10.923-2.184 2.184-2.185 3.277-4.37 3.277-7.646 0-4.37-1.093-7.646-4.37-8.738-2.184-1.093-5.46-1.093-9.83-1.093H759.01v-15.291h29.491c5.462 0 8.738-1.093 10.923-2.185 2.184-2.184 3.277-4.369 3.277-7.646 0-4.369-1.093-6.553-4.37-8.738-1.092-1.092-2.184-1.092-3.276-1.092h-43.69v-15.292H802.7c1.092 0 3.276 1.092 5.461 1.092 4.37 2.185 7.646 4.37 10.923 8.738 2.184 4.37 4.369 8.739 4.369 13.108 0 7.646-4.37 14.2-12.015 18.568 7.646 5.462 12.015 12.015 12.015 20.753s-3.277 14.2-9.83 18.569c-3.277 2.184-5.462 3.277-8.739 3.277-3.277 1.092-8.738 1.092-15.292 1.092h-38.229z" fill="#251C4E"/></svg>