<svg viewBox="0 0 1024 1024" xmlns="http://www.w3.org/2000/svg" width="81" height="81"><path d="M333.406 908.563H192.781c-30.937 0-56.25-25.313-56.25-56.25v-679.22c0-30.937 25.313-56.25 56.25-56.25h140.625c30.938 0 56.25 25.313 56.25 56.25v679.22c0 29.53-25.312 56.25-56.25 56.25z" fill="#33BCFF"/><path d="M305.281 538.719h-84.375c-15.469 0-28.125-12.657-28.125-28.125v-281.25c0-15.469 12.656-28.125 28.125-28.125h84.375c15.469 0 28.125 12.656 28.125 28.125V512c0 15.469-12.656 26.719-28.125 26.719zm-112.5 202.5a70.313 70.313 0 1 0 140.625 0 70.313 70.313 0 1 0-140.625 0z" fill="#FFF"/><path d="M220.906 741.219a42.188 42.188 0 1 0 84.375 0 42.188 42.188 0 1 0-84.375 0z" fill="#50C8FD"/><path d="M582.313 908.563H441.688c-30.938 0-56.25-25.313-56.25-56.25v-679.22c0-30.937 25.312-56.25 56.25-56.25h140.625c30.937 0 56.25 25.313 56.25 56.25v679.22c0 29.53-25.313 56.25-56.25 56.25z" fill="#AD62FD"/><path d="M554.188 538.719h-84.375c-15.47 0-28.125-12.657-28.125-28.125v-281.25c0-15.469 12.656-28.125 28.125-28.125h84.375c15.468 0 28.125 12.656 28.125 28.125V512c0 15.469-12.657 26.719-28.125 26.719zm-112.5 202.5a70.313 70.313 0 1 0 140.625 0 70.313 70.313 0 1 0-140.625 0z" fill="#FFF"/><path d="M469.813 741.219a42.188 42.188 0 1 0 84.375 0 42.188 42.188 0 1 0-84.375 0z" fill="#B67CF4"/><path d="M831.219 908.563H690.594c-30.938 0-56.25-25.313-56.25-56.25v-679.22c0-30.937 25.312-56.25 56.25-56.25h140.625c30.937 0 56.25 25.313 56.25 56.25v679.22c0 29.53-25.313 56.25-56.25 56.25z" fill="#FE4854"/><path d="M803.094 538.719h-84.375c-15.469 0-28.125-12.657-28.125-28.125v-281.25c0-15.469 12.656-28.125 28.125-28.125h84.375c15.468 0 28.125 12.656 28.125 28.125V512c0 15.469-12.657 26.719-28.125 26.719zm-112.5 202.5a70.313 70.313 0 1 0 140.625 0 70.313 70.313 0 1 0-140.625 0z" fill="#FFF"/><path d="M718.719 741.219a42.188 42.188 0 1 0 84.375 0 42.188 42.188 0 1 0-84.375 0z" fill="#FF8E7B"/></svg>