<svg viewBox="0 0 1024 1024" xmlns="http://www.w3.org/2000/svg" width="81" height="81"><path d="M526.4 528.8c-126 0-228-102-228-228s102-228 228-228 228 102 228 228c0 124.8-103.2 228-228 228zm242.4 21.6c-99.6 0-180 80.4-180 180s80.4 180 180 180 180-80.4 180-180c0-98.4-80.4-180-180-180zm120 204h-96v96c0 13.2-10.8 24-24 24s-24-10.8-24-24v-96h-96c-13.2 0-24-10.8-24-24s10.8-24 24-24h96v-96c0-13.2 10.8-24 24-24s24 10.8 24 24v96h96c13.2 0 24 10.8 24 24 0 14.4-10.8 24-24 24z" fill="#e16531"/><path d="M551.6 730.4c0-79.2 42-147.6 105.6-186-43.2-13.2-87.6-20.4-132-20.4-87.6 0-180 28.8-253.2 78-37.2 25.2-66 54-87.6 85.2-24 34.8-36 72-36 109.2s12 68.4 36 92.4c55.2 54 158.4 58.8 273.6 58.8h100.8c57.6 0 114 0 164.4-4.8-98.4-21.6-171.6-108-171.6-212.4z" fill="#e16531"/></svg>