<svg viewBox="0 0 1024 1024" xmlns="http://www.w3.org/2000/svg" width="81" height="81"><path d="M79.963 370.691H945.77v464.343H79.963z" fill="#CBCAC8"/><path d="M79.963 346.968H945.77v23.723H79.963z" fill="#EA714B"/><path d="M121.388 408.754h63.905v63.899h-63.905zm104.336 0h63.905v63.899h-63.905zM121.388 512.2h63.905v63.919h-63.905zm104.336 0h63.905v63.919h-63.905zM121.388 615.666h63.905v63.899h-63.905zm104.336 0h63.905v63.899h-63.905zM121.388 719.133h63.905v63.905h-63.905zm104.336 0h63.905v63.905h-63.905zm513.459-303.406h63.898v63.899h-63.898zm104.35 0h63.905v63.899h-63.905zM739.183 519.18h63.898v63.92h-63.898zm104.35 0h63.905v63.92h-63.905zm-104.35 103.466h63.898v63.913h-63.898zm104.35 0h63.905v63.913h-63.905zm-104.35 103.46h63.898v63.912h-63.898zm104.35 0h63.905v63.912h-63.905z" fill="#47A6C2"/><path d="M284.88 207.89h449.553v627.144H284.879z" fill="#EEE"/><path d="M348.391 256.213h76.098v76.105h-76.098zm124.269 0h76.105v76.105H472.66zm124.276 0h76.098v76.105h-76.098zM347.342 370.69h76.098v76.105h-76.098zm124.255 0h76.118v76.105h-76.118zm124.268 0h76.105v76.105h-76.105zm-249.58 114.48h76.098v76.105h-76.098zm124.255 0h76.112v76.105H470.54zm124.262 0h76.112v76.105h-76.112zm-249.58 114.458h76.098v76.132h-76.098zm124.262 0h76.105v76.132h-76.105zm124.262 0h76.098v76.132h-76.098zM344.152 714.12h76.105v76.105h-76.105zm105.91-5.088h109.784v126.002H450.062zm142.627 5.088h76.099v76.105h-76.099z" fill="#47A6C2"/><path d="M284.88 196.029h449.553v23.73H284.879z" fill="#FC8253"/></svg>