<svg viewBox="0 0 1024 1024" xmlns="http://www.w3.org/2000/svg" width="81" height="81"><path d="M215.369 116.492h593.262q98.877 0 98.877 98.877v593.262q0 98.877-98.877 98.877H215.369q-98.877 0-98.877-98.877V215.369q0-98.877 98.877-98.877z" fill="#4B74FF"/><path d="M438.592 674.56 753.92 300.992a27.2 27.2 0 0 1 39.552-2.048 30.912 30.912 0 0 1 2.24 42.24l-335.68 397.632a27.072 27.072 0 0 1-13.76 8.768 27.2 27.2 0 0 1-28.8-8.448L284.736 581.888a30.912 30.912 0 0 1 3.456-43.392 27.2 27.2 0 0 1 38.336 3.2l112.064 132.8z" fill="#FFF"/></svg>