<svg viewBox="0 0 1024 1024" xmlns="http://www.w3.org/2000/svg" width="81" height="81"><path d="M111.866 257.138h543.22q36.774 0 36.774 36.773v436.178q0 36.773-36.773 36.773h-543.22q-36.774 0-36.774-36.773V293.911q0-36.773 36.773-36.773Zm616.767 0h183.683q36.773 0 36.773 36.773v436.178q0 36.773-36.773 36.773H728.633q-36.773 0-36.773-36.773V293.911q0-36.773 36.773-36.773Z" fill="#DFE8F4"/><path d="M912.498 257.138H728.633a36.409 36.409 0 0 0-36.409 36.409v127.43h256.683v-127.43a36.409 36.409 0 0 0-36.41-36.41z" fill="#156CDD"/><path d="M654.905 257.138H111.502a36.409 36.409 0 0 0-36.409 36.409v127.43H691.86v-127.43a36.409 36.409 0 0 0-36.955-36.41z" fill="#0795FF"/><path d="M654.905 257.138h-64.99l-110.319 163.84H691.86V293.547a36.409 36.409 0 0 0-36.955-36.41z" fill="#156CDD"/><path d="M75.093 420.978h873.814v21.299H75.093zM691.86 349.98a10.012 10.012 0 0 1-10.195-10.012v-15.474a10.012 10.012 0 0 1 10.195-10.012 10.012 10.012 0 0 1 10.012 10.012v15.474a10.012 10.012 0 0 1-10.012 10.012zm0 52.793a10.194 10.194 0 0 1-10.195-10.012v-15.656a10.194 10.194 0 0 1 10.195-10.012 10.012 10.012 0 0 1 10.012 10.012v15.656a10.012 10.012 0 0 1-10.012 10.012z" fill="#CCD8E5"/><path d="M691.86 457.387a10.194 10.194 0 0 1-10.195-10.013v-15.656a10.194 10.194 0 0 1 10.195-10.012 10.012 10.012 0 0 1 10.012 10.012v15.656a10.012 10.012 0 0 1-10.012 10.013zm0 52.61a10.194 10.194 0 0 1-10.195-10.194v-15.474a10.012 10.012 0 0 1 10.195-10.012 10.012 10.012 0 0 1 10.012 10.012v15.474a10.194 10.194 0 0 1-10.012 10.195zm0 53.157a10.012 10.012 0 0 1-10.195-10.012v-15.474a10.194 10.194 0 0 1 10.195-10.194 10.194 10.194 0 0 1 10.012 10.194v15.474a10.012 10.012 0 0 1-10.012 10.012zm0 53.34a10.194 10.194 0 0 1-10.195-10.013v-15.656a10.194 10.194 0 0 1 10.195-10.012 10.012 10.012 0 0 1 10.012 10.012v15.656a10.012 10.012 0 0 1-10.012 10.013zm0 53.339a10.194 10.194 0 0 1-10.195-10.195v-15.474a10.194 10.194 0 0 1 10.195-10.012 10.012 10.012 0 0 1 10.012 10.012v15.474a10.194 10.194 0 0 1-10.012 10.195zm0 53.157a10.012 10.012 0 0 1-10.195-10.013v-15.474a10.012 10.012 0 0 1 10.195-10.012 10.012 10.012 0 0 1 10.012 10.012v14.746a10.012 10.012 0 0 1-10.012 10.74zm-84.105-195.334H442.823a10.559 10.559 0 0 1-10.74-10.559 10.559 10.559 0 0 1 10.74-10.74h164.932a10.559 10.559 0 0 1 10.559 10.74 10.559 10.559 0 0 1-10.559 10.559zm0 52.429H442.823a10.559 10.559 0 0 1-10.74-10.559 10.74 10.74 0 0 1 10.74-10.74h164.932a10.74 10.74 0 0 1 10.559 10.74 10.559 10.559 0 0 1-10.559 10.559zm0 52.428H442.823a10.559 10.559 0 0 1-10.74-10.558 10.74 10.74 0 0 1 10.74-10.74h164.932a10.74 10.74 0 0 1 10.559 10.74 10.559 10.559 0 0 1-10.559 10.558zm-117.782 52.43h-47.15a10.559 10.559 0 0 1-10.74-10.56 10.559 10.559 0 0 1 10.74-10.74h47.15a10.559 10.559 0 0 1 10.558 10.74 10.559 10.559 0 0 1-10.558 10.56zm93.024 0h-47.15a10.559 10.559 0 0 1-10.558-10.56 10.559 10.559 0 0 1 10.559-10.74h47.15a10.559 10.559 0 0 1 10.558 10.74 10.559 10.559 0 0 1-10.559 10.56z" fill="#CCD8E5"/><path d="M912.498 257.138H840.59l-109.226 163.84h217.543V293.547a36.409 36.409 0 0 0-36.41-36.41z" fill="#156CDD"/><path d="m948.907 470.13-200.25 296.732h163.84a36.409 36.409 0 0 0 36.41-36.409z" fill="#CCD8E5"/><path d="M182.864 643.8a15.656 15.656 0 1 1-15.474-15.474 15.656 15.656 0 0 1 15.474 15.474z" fill="#156CDD"/><path d="M171.395 643.8a4.187 4.187 0 1 1-4.005-4.005 4.005 4.005 0 0 1 4.005 4.005z" fill="#DFE8F4"/><path d="M194.514 643.8a15.474 15.474 0 1 0 30.948 0 15.474 15.474 0 1 0-30.948 0Z" fill="#156CDD"/><path d="M213.993 643.8a4.005 4.005 0 0 1-4.005 4.187 4.005 4.005 0 0 1-4.005-4.187 4.005 4.005 0 0 1 4.005-4.005 4.005 4.005 0 0 1 4.005 4.005z" fill="#DFE8F4"/><path d="M237.113 643.8a15.474 15.474 0 1 0 30.947 0 15.474 15.474 0 1 0-30.947 0Z" fill="#156CDD"/><path d="M257.138 643.8a4.005 4.005 0 1 1-8.01 0 4.005 4.005 0 0 1 8.01 0z" fill="#DFE8F4"/><path d="M279.711 643.8a15.474 15.474 0 1 0 30.948 0 15.474 15.474 0 1 0-30.948 0Z" fill="#156CDD"/><path d="M299.372 643.8a4.187 4.187 0 1 1-8.192 0 4.005 4.005 0 0 1 4.005-4.005 4.005 4.005 0 0 1 4.187 4.005z" fill="#DFE8F4"/><path d="M322.492 643.8a15.474 15.474 0 1 0 30.947 0 15.474 15.474 0 1 0-30.947 0Z" fill="#156CDD"/><path d="M341.97 643.8a4.187 4.187 0 1 1-4.004-4.005 4.005 4.005 0 0 1 4.004 4.005z" fill="#DFE8F4"/><path d="M362.724 643.982h-210.99V532.025h160.017a41.506 41.506 0 0 1 38.958 26.76l25.122 65.536a14.382 14.382 0 0 1-13.107 19.661z" fill="#0795FF"/><path d="M298.462 566.613v37.684a14.382 14.382 0 0 0 14.381 14.381h61.531l-23.301-60.62v-1.093H308.11a9.648 9.648 0 0 0-9.648 9.648zm-60.075 8.192a12.197 12.197 0 1 0 24.394 0 12.197 12.197 0 1 0-24.394 0Zm-36.591 0a12.197 12.197 0 1 0 24.394 0 12.197 12.197 0 1 0-24.394 0Zm-12.196 0a12.197 12.197 0 0 1-12.198 12.197 12.197 12.197 0 0 1 0-24.394 12.197 12.197 0 0 1 12.197 12.197z" fill="#156CDD"/></svg>