<svg viewBox="0 0 1024 1024" xmlns="http://www.w3.org/2000/svg" width="81" height="81"><path d="M204.8 125.56h614.4q68.267 0 68.267 68.266v656.111q0 68.267-68.267 68.267H204.8q-68.267 0-68.267-68.267v-656.11q0-68.268 68.267-68.268z" fill="#4C79FF"/><path d="M282.642 586.675a225.39 225.39 0 1 0 450.779 0 225.39 225.39 0 1 0-450.779 0z" fill="#FFF"/><path d="m733.747 534.801 13.91 9.899c-63.83 89.873-140.118 106.018-224.973 47.394l-4.472-3.157c-77.585-55.808-152.678-44.032-228.232 36.608l-4.113 4.454-12.63-11.469c81.033-89.156 165.496-105.113 250.454-46.592l4.471 3.14c77.397 55.672 143.582 44.084 202.36-35.84l3.208-4.437z" fill="#4C79FF"/><path d="M136.533 295.936h750.934v17.886H136.533zm53.641-80.452a26.812 26.812 0 1 0 53.623 0 26.812 26.812 0 1 0-53.623 0zm89.396 0a26.812 26.812 0 1 0 53.623 0 26.812 26.812 0 1 0-53.624 0z" fill="#FFF"/></svg>