<svg viewBox="0 0 1050 1024" xmlns="http://www.w3.org/2000/svg" width="81" height="81"><path d="M227.79 677.79a307.895 284.21 0 1 0 615.789 0 307.895 284.21 0 1 0-615.79 0Z" fill="#B3E5FC"/><path d="M535.684 393.579a324.829 324.829 0 0 0-164.392 44.195 165.647 165.647 0 0 0 328.784 0 324.829 324.829 0 0 0-164.392-44.195z" fill="#4FC3F7"/><path d="M346.211 346.21a189.474 189.474 0 1 0 378.947 0 189.474 189.474 0 1 0-378.947 0Z" fill="#B3E5FC"/><path d="M583.053 322.526a23.684 23.684 0 1 0 47.368 0 23.684 23.684 0 1 0-47.368 0ZM511.99999999999994 630.421a23.684 23.684 0 1 0 47.368 0 23.684 23.684 0 1 0-47.368 0ZM511.99999999999994 748.842a23.684 23.684 0 1 0 47.368 0 23.684 23.684 0 1 0-47.368 0ZM511.99999999999994 867.263a23.684 23.684 0 1 0 47.368 0 23.684 23.684 0 1 0-47.368 0Z" fill="#263238"/><path d="M583.053 393.579a47.368 47.368 0 0 1-47.369 47.368h-118.42s70.2-94.736 118.42-94.736a47.368 47.368 0 0 1 47.369 47.368z" fill="#FF5722"/><path d="M440.947 322.526a23.684 23.684 0 1 0 47.369 0 23.684 23.684 0 1 0-47.369 0Z" fill="#263238"/><path d="M393.579 62h284.21v165.79H393.58z" fill="#546E7A"/><path d="M322.526 204.105h426.316v47.369H322.526z" fill="#607D8B"/><path d="M440.947 109.368h47.369v94.737h-47.369z" fill="#78909C"/></svg>