<svg xmlns="http://www.w3.org/2000/svg" xmlns:xlink="http://www.w3.org/1999/xlink" viewBox="0 0 2000 1600" xml:space="preserve"><g style="transform:translate(-250px,-50px)"><linearGradient id="a" x1="892.362" x2="1655.84" y1="1639.6" y2="173.578" gradientUnits="userSpaceOnUse"><stop offset="0" style="stop-color:#8ff1eb"/><stop offset="1" style="stop-color:#f9fea5"/></linearGradient><path fill="url(#a)" d="M2229.6 1069.7c-33.4-38.4-83-60.9-119.2-97-58.5-58.2-74.7-144.2-72.4-224.6 2.3-80.4 20.5-160 19.1-240.4-1.3-80.4-26.1-166-92-216.5C1894.2 237 1791 236 1705 264.5c-86 28.5-159.8 82-235 130.8-39.4 25.6-86.2 51.2-132.1 38.8-45.3-12.2-70.8-56-95.9-93.7-29.3-44.1-67.7-86.1-119.8-102.5-102.8-32.5-115.7 4.7-120.6 34.2-7.4 44.2-18.4 76.2-55.7 90.3-37.3 14.1-80 7.9-117.6-5.5-37.6-13.4-72.1-33.6-109.2-48.2-59.3-23.3-144.9-76.9-206.3-59.2-61.4 17.7-125.4 93.1-140.6 152.3-25.4 99 84.8 222.1 46.6 317.3-26.5 65.7-100.4 100.7-150 152.9-95.7 100.5-89.4 264.7-9.8 377.1 79.7 112.4 217.6 177.7 357.7 203.9 140 26.2 284.3 17.9 426.9 11.5 224-10 448.5-15.1 672.7-8.7 92.7 2.7 186.4 7.2 277.4-9.8 91-17 180.8-58.5 234.1-130.5 53.2-72.1 60.9-177.9 1.8-245.8z"/><path fill="#96fbc4" d="M547.6 450.6c-.9-4.9-8-4.8-8.7.1-3.7 24.7-10.7 56.3-23.8 76.9-24.3 38.4-68.4 177.7 52.9 247.2 121.3 69.5 151.1 106.2 150.2 239.6-.8 121.9 6.5 382.1 7.8 426 .1 3.5 3 6.3 6.5 6.3 3.6 0 6.5-2.9 6.5-6.5.2-57.1 1-471.8-9.4-572.3-16.5-159.3-150.8-240.9-182-417.3z"/><path fill="#d9ffd5" d="M549.7 556c-1.2 3.9-2.2 8.2-2.8 12.5-.4 2.1-.6 4.3-.8 6.4-.3 2.1-.3 4.3-.4 6.4-.2 8.6.3 17.2 2 25.6 3.3 16.9 10.7 32.7 20.7 46.7 1.3 1.7 2.4 3.6 3.8 5.2l4.2 4.9 4.2 4.9 4.5 4.7c6.1 6.2 12.6 12.2 19.2 18 13.2 11.6 27.2 22.8 40.3 35.1 13.1 12.2 25.4 25.6 35.8 40.5 5.1 7.5 9.8 15.2 14 23.2l3 6.1c1 2 2 4.1 2.8 6.1l2.7 6.2 2.4 6.3c1.7 4.2 3 8.5 4.5 12.8 1.3 4.3 2.6 8.6 3.8 13 1 4.4 2.2 8.7 3.1 13.1.8 4.4 1.9 8.8 2.5 13.2 3 17.7 4.7 35.5 5.4 53.3.1 1.3-1 2.4-2.3 2.5-1.3 0-2.4-.9-2.5-2.2-2.6-35.2-8.4-70.4-21.3-103l-2.5-6.1-2.7-6c-.9-2-1.8-4-2.8-5.9l-3-5.8c-4.2-7.7-8.8-15.1-13.8-22.2-5.1-7-10.6-13.8-16.4-20.3-5.8-6.5-12.1-12.6-18.5-18.6-12.9-12-26.7-23-40.3-34.7-6.8-5.9-13.4-11.9-19.8-18.3l-4.7-4.9-4.4-5.2-4.4-5.2c-1.4-1.8-2.7-3.7-4-5.6-10.5-15-18.2-32.2-21-50.4l-.9-6.8c-.3-2.3-.3-4.6-.4-6.9-.2-2.3-.1-4.6-.1-6.9 0-2.3.1-4.6.4-6.9.2-2.3.4-4.6.8-6.8.4-2.3.7-4.5 1.2-6.7.9-4.5 2.2-8.8 4-13.3.5-1.3 2-1.9 3.3-1.4 1.2.5 1.8 1.9 1.5 3.1l-.3.3z"/><path fill="#37ecba" d="M503.5 831.2c-2.2-4.8-9.3-4.2-10.6.9-12.5 46.4-38.3 185 75.7 250.6 138.1 79.5 141.4 43.5 158.6 183.5 14.8 120.4 19.9 193.7 21 211.8.2 2.5 2.2 4.4 4.7 4.4 2.7 0 4.8-2.2 4.7-4.9-1.3-37.9-10.8-288.5-37.9-411.1-48.3-218-161.2-114.2-216.2-235.2z"/><path fill="#d9ffd5" d="M506.2 856.6c1.3 7.8 4.1 15.6 7.6 22.8 3.6 7.2 7.8 14.1 12.7 20.4 9.8 12.7 22.1 23.3 35.4 32.2 6.6 4.6 13.8 8.2 20.9 12.2l11 5.9c3.6 2 7.2 4.2 10.8 6.3 14.3 8.7 28 18.4 40.7 29.4 12.5 11.2 24 23.6 34 37.1l7.1 10.4c1.2 1.7 2.2 3.6 3.3 5.4l3.2 5.4 3.2 5.4 2.8 5.6c1.8 3.8 3.7 7.5 5.4 11.3 3 7.8 6.5 15.4 8.8 23.5 1.2 4 2.6 7.9 3.7 12l2.9 12.2 1.4 6.1 1 6.2 2.1 12.3c.7 4.1.9 8.2 1.4 12.4l1.2 12.4c.1.9-.6 1.7-1.5 1.8-.9.1-1.6-.5-1.8-1.4v-.1c-1.3-8.1-2.3-16.3-3.8-24.3l-2.5-12-1.3-6-1.6-5.9-3.3-11.8c-1.2-3.9-2.7-7.7-4-11.6-2.4-7.8-6-15.1-9.1-22.7-1.7-3.7-3.7-7.2-5.5-10.9l-2.8-5.4-3.2-5.2-3.2-5.2c-1.1-1.7-2.1-3.5-3.3-5.1l-7.1-9.9c-9.9-12.8-21-24.7-33.2-35.3-12.4-10.5-25.6-19.9-39.6-28.3-3.5-2-7-4.1-10.6-6.1l-10.8-5.7c-7.3-4-14.8-8-21.7-12.9-13.9-9.6-26.6-21.3-36.2-35.3-4.7-7.1-8.8-14.5-11.8-22.5-1.5-4-2.8-8-3.7-12.1-1-4.1-1.6-8.3-1.8-12.6 0-.8.6-1.4 1.3-1.4.7 0 1.3.5 1.4 1.1l.1-.1z"/><path fill="#96fbc4" d="M735 1482.3c2.9 0 5.2-2.6 4.7-5.5-4.9-28.8-33.4-160.7-148.5-161.7-101.9-.9-163.7 50-185.3 71.5-3.9 3.8-2.1 10.4 3.1 11.9 13.9 3.8 37.1 13.1 51.9 34.7 22.4 32.5 80.5 27.4 116.7-17.3 35.9-44.3 125.2-70.8 152.7 62.6.5 2.2 2.4 3.8 4.7 3.8z"/><path fill="#d9ffd5" d="M453.4 1371.6c7.8-6.7 16.3-12.4 25.2-17.6 4.4-2.6 8.9-5 13.6-7.3 4.6-2.3 9.3-4.4 14-6.4 9.5-4 19.3-7.1 29.4-9.7 10-2.5 20.3-4.1 30.6-4.9 10.3-.9 20.8-.8 31.1.4 10.3 1.1 20.5 3.2 30.4 6.5l3.7 1.2 3.6 1.4c2.4 1 4.8 1.9 7.2 2.9 4.6 2.3 9.4 4.4 13.7 7.1 9 5 17.2 11.3 25 17.8.6.5.7 1.4.2 2-.5.6-1.3.7-1.9.3h-.1c-8.4-5.6-16.7-11.2-25.7-15.4-4.4-2.3-9.1-4-13.6-6-2.3-.9-4.7-1.6-7-2.4l-3.5-1.2-3.6-.9c-9.5-2.8-19.3-4.3-29.1-5.1-2.5-.1-4.9-.5-7.4-.5l-7.4-.1c-4.9.2-9.9.3-14.8.8-19.7 1.7-39 6.8-57.7 13.6-18.7 6.9-36.8 15.5-54.1 25.8h-.1c-.7.4-1.6.2-2-.5-.4-.5-.3-1.3.3-1.8z"/><path fill="#96fbc4" d="M962.6 153.5c-.2-5.7-7.8-7.4-10.6-2.5-13.5 23.8-43.8 64.5-104.4 94-91 44.2-254.2 135.5-156.9 335C791.9 787.5 756 932.4 763 1004.9c6.5 67.2 13.3 413.3 14.2 464.2.1 3.5 2.9 6.2 6.4 6.2 3.6 0 6.5-2.9 6.4-6.5-1.4-56.1-11.4-455.7-11.6-519.7-.2-68.8-17.2-304.4 44.3-390.3 59.5-83.1 149.4-189.8 139.9-405.3z"/><path fill="#d9ffd5" d="M927.8 214.7c-6.3 8.9-13.2 17.3-20.3 25.6-7.1 8.3-14.5 16.2-22.1 24l-5.8 5.8-5.9 5.7c-3.9 3.8-7.9 7.5-12 11.1-8.1 7.3-16.4 14.3-24.9 21.2-4.3 3.4-8.6 6.7-13 10s-8.8 6.4-13.3 9.6c-8.8 6.2-17.4 12.4-25.5 19.3-16.2 13.6-30.4 29.5-41 47.6-5.3 9-9.8 18.6-13.2 28.5-3.4 9.9-5.9 20.2-7.7 30.6-1.9 10.4-2.6 21-3 31.7l-.1 8c0 2.7.1 5.3.2 8 .1 5.3.5 10.7.8 16 3.4 42.7 13.8 84.9 26.4 126.2.2.6-.2 1.2-.7 1.4-.6.2-1.2-.1-1.4-.7-7.6-20.3-14.2-41-19.7-62s-9.9-42.4-12.1-64.2c-2.2-21.7-2.5-43.9.7-65.8 1.6-10.9 4.1-21.8 7.6-32.3 3.5-10.6 8.1-20.8 13.6-30.5 11-19.4 26.2-36.3 42.9-50.6 8.4-7.2 17.3-13.8 26.2-20 4.4-3.1 8.8-6.1 13.1-9.3 4.3-3.2 8.6-6.4 12.8-9.7 4.2-3.4 8.5-6.5 12.7-9.9 4.1-3.4 8.4-6.7 12.4-10.2 8.2-6.9 16.4-13.9 24.3-21.2 8-7.2 15.8-14.6 23.5-22.1 7.7-7.6 15.3-15.2 22.6-23.1.4-.5 1.1-.5 1.6-.1.5.3.6.9.3 1.4z"/><path fill="#37ecba" d="M1107.1 880.8H981.4c-7.2 0-13.1-5.8-13.3-13l-11.3-551.3c-.2-7.8 6.4-14.1 14.2-13.5l137 9.9c6.9.5 12.3 6.3 12.3 13.3v541.4c0 7.3-5.9 13.2-13.2 13.2z"/><g fill="#7D97F4"><path d="m987.7 527.7 2.7 65.3c.3 6.1 5.3 11 11.4 11.1l87.7 1.2c6.5.1 11.8-5.1 11.8-11.6v-65.3c0-6.3-5.1-11.5-11.4-11.6l-90.5-1.3c-6.6 0-12 5.6-11.7 12.2zM1089.9 615.3l-86.4-1.2c-6.7-.1-12 5.4-11.7 12.1l2.7 65.3c.3 6.1 5.3 11 11.4 11.1l83.6 1.2c6.5.1 11.8-5.1 11.8-11.6v-65.3c0-6.4-5.1-11.5-11.4-11.6zM1101.3 397v-49.1c0-5.8-4.3-10.7-10.1-11.5l-98.5-12.8c-7.1-.9-13.4 4.8-13.1 12l2.5 60.6c.3 6.1 5.3 11 11.4 11.1l96 1.3c6.5.1 11.8-5.1 11.8-11.6zM983.6 429.3l2.7 65.3c.3 6.1 5.3 11 11.4 11.1l91.9 1.3c6.5.1 11.8-5.1 11.8-11.6v-65.3c0-6.3-5.1-11.5-11.4-11.6l-94.6-1.3c-6.7-.1-12.1 5.4-11.8 12.1zM995.9 724.6l2 47.5c.3 6.2 5.4 11.1 11.6 11.1h80.3c6.4 0 11.6-5.2 11.6-11.6v-46.4c0-6.3-5.1-11.5-11.4-11.6l-82.3-1.1c-6.7-.1-12.1 5.4-11.8 12.1z"/></g><path fill="#37ecba" d="m1116.3 873.5-117.2 45.3c-6.7 2.6-14.3-.7-17.1-7.4L772.8 401.3c-3-7.2.9-15.5 8.4-17.7l131.3-40.1c6.7-2 13.8 1.4 16.3 7.9l195.1 505c2.6 6.8-.8 14.5-7.6 17.1z"/><linearGradient id="b" x1="848.857" x2="1023.259" y1="382.503" y2="776.313" gradientUnits="userSpaceOnUse"><stop offset="0" style="stop-color:#fda085"/><stop offset="1" style="stop-color:#feb3b1"/></linearGradient><path fill="url(#b)" d="m877.7 587.2 26.1 59.9c2.5 5.6 8.9 8.4 14.7 6.2l82.3-30.5c6.1-2.2 9.1-9 6.8-15L984 547c-2.3-5.9-8.9-8.9-14.8-6.7l-84.8 31.4c-6.4 2.3-9.4 9.4-6.7 15.5z"/><linearGradient id="c" x1="846.396" x2="1020.798" y1="383.593" y2="777.403" gradientUnits="userSpaceOnUse"><stop offset="0" style="stop-color:#fda085"/><stop offset="1" style="stop-color:#feb3b1"/></linearGradient><path fill="url(#c)" d="m1004.6 632-81 30c-6.2 2.3-9.3 9.4-6.6 15.5l26.1 59.9c2.5 5.6 8.9 8.4 14.7 6.2l78.4-29.1c6.1-2.2 9.1-9 6.8-15l-23.5-60.9c-2.4-5.8-9-8.8-14.9-6.6z"/><linearGradient id="d" x1="853.425" x2="1027.826" y1="380.481" y2="774.29" gradientUnits="userSpaceOnUse"><stop offset="0" style="stop-color:#fda085"/><stop offset="1" style="stop-color:#feb3b1"/></linearGradient><path fill="url(#d)" d="m936.6 424.3-17.7-45.8c-2.1-5.4-7.9-8.5-13.6-7.1L808.8 395c-7 1.7-10.7 9.3-7.9 15.9l24.2 55.6c2.5 5.6 8.9 8.4 14.7 6.2l90-33.3c6.1-2.3 9.1-9.1 6.8-15.1z"/><linearGradient id="e" x1="851.319" x2="1025.72" y1="381.413" y2="775.223" gradientUnits="userSpaceOnUse"><stop offset="0" style="stop-color:#fda085"/><stop offset="1" style="stop-color:#feb3b1"/></linearGradient><path fill="url(#e)" d="m838.4 496.8 26.1 59.9c2.5 5.6 8.9 8.4 14.7 6.2l86.1-31.9c6.1-2.2 9.1-9 6.8-15l-23.5-60.9c-2.3-5.9-8.9-8.9-14.8-6.7l-88.8 33c-6.3 2.3-9.3 9.3-6.6 15.4z"/><linearGradient id="f" x1="843.988" x2="1018.39" y1="384.66" y2="778.469" gradientUnits="userSpaceOnUse"><stop offset="0" style="stop-color:#fda085"/><stop offset="1" style="stop-color:#feb3b1"/></linearGradient><path fill="url(#f)" d="m956.3 767.8 19 43.6c2.5 5.7 9 8.4 14.8 6.2l74.9-28.9c6-2.3 8.9-9 6.6-15l-16.7-43.2c-2.3-5.9-8.9-8.9-14.8-6.7L963 752.4c-6.4 2.3-9.4 9.3-6.7 15.4z"/><g><path fill="#37ecba" d="m1123.6 860.5-80.3 96.6c-4.6 5.6-12.8 6.4-18.5 1.9L593.5 615.5c-6.1-4.9-6.7-14-1.3-19.6l95.1-99c4.8-5 12.7-5.5 18.1-1l416.5 345.9c5.6 4.7 6.4 13.1 1.7 18.7z"/><linearGradient id="g" x1="616.163" x2="984.656" y1="577.538" y2="785.694" gradientUnits="userSpaceOnUse"><stop offset="0" style="stop-color:#f6d365"/><stop offset="1" style="stop-color:#fda085"/></linearGradient><path fill="url(#g)" d="m775.7 726.7 52 39.6c4.9 3.7 11.8 3 15.8-1.7l57-66.7c4.2-4.9 3.6-12.3-1.4-16.4l-50.2-41.7c-4.9-4-12.1-3.4-16.2 1.4L773.9 710c-4.3 5-3.5 12.7 1.8 16.7z"/><linearGradient id="h" x1="608.541" x2="977.034" y1="591.031" y2="799.188" gradientUnits="userSpaceOnUse"><stop offset="0" style="stop-color:#f6d365"/><stop offset="1" style="stop-color:#fda085"/></linearGradient><path fill="url(#h)" d="m908.4 704-56.1 65.7c-4.3 5.1-3.5 12.7 1.8 16.7l52 39.6c4.9 3.7 11.8 3 15.8-1.7l54.3-63.6c4.2-4.9 3.6-12.3-1.4-16.4l-50.2-41.7c-4.9-4-12.1-3.4-16.2 1.4z"/><linearGradient id="i" x1="630.701" x2="999.194" y1="551.801" y2="759.958" gradientUnits="userSpaceOnUse"><stop offset="0" style="stop-color:#f6d365"/><stop offset="1" style="stop-color:#fda085"/></linearGradient><path fill="url(#i)" d="M747.8 555.8 710 524.4c-4.5-3.7-11-3.5-15.3.4l-72.8 67.6c-5.3 4.9-4.9 13.4.9 17.7l48.2 36.8c4.9 3.7 11.8 3 15.8-1.7l62.3-73c4.3-4.9 3.7-12.3-1.3-16.4z"/><linearGradient id="j" x1="623.785" x2="992.279" y1="564.045" y2="772.202" gradientUnits="userSpaceOnUse"><stop offset="0" style="stop-color:#f6d365"/><stop offset="1" style="stop-color:#fda085"/></linearGradient><path fill="url(#j)" d="m697.4 667 52 39.6c4.9 3.7 11.8 3 15.8-1.7l59.7-69.8c4.2-4.9 3.6-12.3-1.4-16.4L773.3 577c-4.9-4-12.1-3.4-16.2 1.4l-61.4 71.9c-4.4 5-3.6 12.6 1.7 16.7z"/><linearGradient id="k" x1="601.518" x2="970.011" y1="603.463" y2="811.62" gradientUnits="userSpaceOnUse"><stop offset="0" style="stop-color:#f6d365"/><stop offset="1" style="stop-color:#fda085"/></linearGradient><path fill="url(#k)" d="m932.4 846.2 37.8 28.8c4.9 3.8 12 3 15.9-1.8l51.3-61.8c4.1-4.9 3.4-12.2-1.5-16.3l-35.7-29.6c-4.9-4-12.1-3.4-16.2 1.4l-53.4 62.5c-4.3 5.1-3.5 12.7 1.8 16.8z"/></g><path fill="#96fbc4" d="M1808.7 1452.9c-2.7-.5-4.7-2.6-4.9-5.3-2.9-28.8-16.8-188.1 27.1-272.7 48.4-93.2 126.4-179.9 88.3-402-21.6-125.8-8-194.4-1.2-218.2 1-3.6 6-4 7.5-.6 19.8 42.4 102.5 221.2 115.4 276.5 14.7 62.9 24.3 185.3-74.8 241.2-97.6 55-185.7 194.8-150.4 374 .8 4.2-2.9 7.8-7 7.1z"/><g><path fill="#96fbc4" d="M1640.7 98.4c-1.5-3.6-6.8-3-7.3.8-8.7 60.9-32.5 279.1 55.2 378.3 102.5 115.8 177 142.6 153.1 335.9-23.7 191.3-87.6 530.5-60.1 631.6.5 1.9 2.1 3.3 4 3.7 3.2.6 6.1-2 5.9-5.3-1.7-29.8-7.5-158.9 12.5-276.6 22.9-134 121.6-467.8 75.7-728.2-43-243.9-201.9-249.4-239-340.2z"/><path fill="#d9ffd5" d="M1681.7 203.1c8.7 6.7 16.8 14 24.7 21.5 7.9 7.5 15.5 15.3 22.9 23.4 7.4 8 14.5 16.4 21.4 24.8 3.5 4.2 6.7 8.6 10.1 12.9 3.3 4.3 6.5 8.8 9.8 13.2 12.7 17.8 24.5 36.3 35.2 55.4l4 7.2 3.8 7.3c2.5 4.9 5.2 9.7 7.5 14.6l7.1 14.8 6.5 15.1c8.3 20.3 15.8 40.9 21.7 62 1.6 5.2 2.7 10.6 4.1 15.9l2 8c.6 2.7 1.1 5.4 1.7 8 1.1 5.4 2.2 10.7 3.2 16.1l2.5 16.2c.9 5.4 1.4 10.9 2 16.3.5 5.4 1.3 10.9 1.6 16.3.6 10.9 1.3 21.8 1.1 32.8.3 21.9-1.7 43.7-4.4 65.3-.1 1-1 1.7-2 1.5-.9-.1-1.6-1-1.6-1.9 3.3-43.1 1.9-86.5-5.5-128.9l-2.9-15.9-3.5-15.7c-.6-2.6-1.1-5.3-1.8-7.9l-2.1-7.8c-1.5-5.2-2.7-10.4-4.3-15.5-6.1-20.6-13.6-40.8-22-60.5-16.9-39.5-38.3-77-62.7-112.5-3.1-4.4-6.1-8.9-9.2-13.2-3.2-4.3-6.3-8.7-9.6-13-6.4-8.6-13-17.2-19.9-25.5-13.6-16.7-27.8-33-43-48.4-.4-.5-.4-1.2 0-1.6.5-.6 1.2-.6 1.6-.3z"/></g><g><path fill="#37ecba" d="M1830.1 1456.7c-2.9-.5-5.2-2.7-5.8-5.6-5.4-25.6-26.1-148 57.7-223.1 87.4-78.3 151.3-83.5 168.3-132.6 1-3 5.3-2.8 6 .3 9.8 44 33.9 195.9-82.4 254.5-115.4 58.1-133.5 84.8-135.4 100.4-.5 4-4.4 6.8-8.4 6.1z"/><path fill="#d9ffd5" d="M2044.2 1136.9c-3.9 16.2-11 31.3-19.9 45.4-4.5 7-9.5 13.8-15 20.1-5.5 6.3-11.5 12.2-18 17.6-6.5 5.4-13.3 10.3-20.6 14.6-7.3 4.2-14.9 7.9-22.8 11l-5.9 2.2-5.6 2c-1.9.6-3.7 1.4-5.5 2.2-1.8.8-3.7 1.5-5.4 2.3-7.2 3.2-14.1 7.1-20.6 11.4-26.4 17.1-46 43.6-57 73.5-11.3 29.9-15.2 62.5-15.3 94.9 0 .8-.7 1.5-1.5 1.5s-1.4-.6-1.5-1.4c-.6-8.2-1.1-16.4-1.1-24.6 0-8.2.4-16.5 1.1-24.7.7-8.2 1.9-16.4 3.5-24.6 1.6-8.1 3.7-16.2 6.4-24.1 5.3-15.8 12.7-31.1 22.8-44.7 10-13.6 22.3-25.7 36.4-35 7-4.7 14.4-8.9 22.1-12.4 1.9-.9 3.9-1.7 5.8-2.5s3.9-1.6 5.9-2.3l11.4-4.2c14.7-5.6 28.6-13.4 41.1-23.1 6.2-4.9 12.2-10.1 17.7-15.8 5.5-5.7 10.7-11.8 15.5-18.2 9.5-12.8 17.8-26.8 23.8-41.8v-.1c.2-.6.9-.9 1.6-.7.5.3.8.9.6 1.5z"/></g><g><linearGradient id="l" x1="641.134" x2="930.134" y1="1542.855" y2="1155.174" gradientUnits="userSpaceOnUse"><stop offset="0" style="stop-color:#2af598"/><stop offset="1" style="stop-color:#009efd"/></linearGradient><path fill="url(#l)" d="M668.4 1064.1s132.3 348.8 174 421.4c48.5 84.2 190.2 30.6 183.1-39.9-7-70.5-172.6-361.9-172.6-361.9l-184.5-19.6z"/><linearGradient id="m" x1="1127.841" x2="1653.884" y1="605.319" y2="1542.215" gradientUnits="userSpaceOnUse"><stop offset="0" style="stop-color:#43e97b"/><stop offset="1" style="stop-color:#38f9d7"/></linearGradient><path fill="url(#m)" d="m847.1 810 822.1-285-8.7 771.3-835.8-186.5z"/><linearGradient id="n" x1="2120.469" x2="1584.736" y1="725.193" y2="948.416" gradientUnits="userSpaceOnUse"><stop offset="0" style="stop-color:#2af598"/><stop offset="1" style="stop-color:#009efd"/></linearGradient><ellipse cx="1670" cy="912.9" fill="url(#n)" rx="80.8" ry="396.4"/><linearGradient id="o" x1="1580.673" x2="1793.255" y1="919.344" y2="900.018" gradientUnits="userSpaceOnUse"><stop offset="0" style="stop-color:#43e97b"/><stop offset="1" style="stop-color:#38f9d7"/></linearGradient><path fill="url(#o)" d="M1676.1 1282.2c-7.3-7.4-23.2-36.1-36.8-110.1-13.2-71.6-20.4-164.4-20.4-261.4 0-97 7.3-189.8 20.4-261.4 13.6-74.1 29.5-102.7 36.8-110.1 7.3 7.4 23.2 36.1 36.8 110.1 13.2 71.6 20.4 164.4 20.4 261.4 0 97-7.3 189.8-20.4 261.4-13.6 74-29.5 102.6-36.8 110.1z"/><defs><path id="p" d="M1676.1 1282.2c-7.3-7.4-23.2-36.1-36.8-110.1-13.2-71.6-20.4-164.4-20.4-261.4 0-97 7.3-189.8 20.4-261.4 13.6-74.1 29.5-102.7 36.8-110.1 7.3 7.4 23.2 36.1 36.8 110.1 13.2 71.6 117.1 164.4 117.1 261.4 0 97-104 189.8-117.1 261.4-13.6 74-29.5 102.6-36.8 110.1z"/></defs><clipPath id="q"><use overflow="visible" xlink:href="#p"/></clipPath><linearGradient id="r" x1="1848.879" x2="1275.55" y1="897.539" y2="930.436" gradientUnits="userSpaceOnUse"><stop offset="0" style="stop-color:#020039"/><stop offset="1" style="stop-color:#090056"/></linearGradient><path fill="url(#r)" d="M1779.6 907.7c0 67.3-36.3 121.9-108.1 121.9s-130-54.6-130-121.9c0-67.3 58.2-121.9 130-121.9s108.1 54.6 108.1 121.9z" clip-path="url(#q)"/><linearGradient id="s" x1="762.837" x2="741.69" y1="1101.237" y2="569.055" gradientUnits="userSpaceOnUse"><stop offset="0" style="stop-color:#2af598"/><stop offset="1" style="stop-color:#009efd"/></linearGradient><path fill="url(#s)" d="M714.6 793.5c38.7-4.5 94.1-6.1 154.1 7.6-19.8 103.2-16.8 210.7 6.1 322.1H705.7c-27 0-50-19.6-54.2-46.2-8.4-53.4-18.7-143.1-7.7-215.2 5.4-36.2 34.4-64.1 70.8-68.3z"/><path fill="#96fbc4" d="M816.1 872.5H684.3c-4.5 0-8.4-2.3-10.6-6.3-2.1-3.9-2-8.5.5-12.3 1-1.6 3.1-2 4.7-1s2 3.1 1 4.7c-1.1 1.6-1.1 3.6-.2 5.3.9 1.7 2.7 2.7 4.6 2.7h131.8c2.9 0 5.2-2.3 5.2-5.2V851c0-2.9-2.4-5.2-5.2-5.2H683.3c-1.9 0-3.4-1.5-3.4-3.4s1.5-3.4 3.4-3.4H816c6.6 0 12 5.4 12 12v9.4c.1 6.7-5.3 12.1-11.9 12.1zM804.3 930.8H672.6c-4.5 0-8.4-2.3-10.6-6.3-2.1-3.9-2-8.5.5-12.3 1-1.6 3.1-2 4.7-1s2 3.1 1 4.7c-1.1 1.6-1.1 3.6-.2 5.3.9 1.7 2.7 2.7 4.6 2.7h131.8c2.9 0 5.2-2.3 5.2-5.2v-9.4c0-2.9-2.3-5.2-5.2-5.2H671.6c-1.9 0-3.4-1.5-3.4-3.4s1.5-3.4 3.4-3.4h132.7c6.6 0 12 5.4 12 12v9.4c0 6.7-5.4 12.1-12 12.1z"/><linearGradient id="t" x1="963.205" x2="1592.58" y1="686.713" y2="686.713" gradientUnits="userSpaceOnUse"><stop offset="0" style="stop-color:#8ff1eb"/><stop offset="1" style="stop-color:#f9fea5"/></linearGradient><path fill="url(#t)" d="M966.6 789.2c-1.4 0-2.8-.9-3.2-2.4-.6-1.8.4-3.7 2.2-4.3l622.6-198.1c1.8-.6 3.7.4 4.3 2.2.6 1.8-.4 3.7-2.2 4.3L967.6 789c-.3.1-.7.2-1 .2z"/><linearGradient id="u" x1="879.009" x2="917.831" y1="813.642" y2="813.642" gradientUnits="userSpaceOnUse"><stop offset="0" style="stop-color:#8ff1eb"/><stop offset="1" style="stop-color:#f9fea5"/></linearGradient><path fill="url(#u)" d="M882.4 823.6c-1.3 0-2.6-.8-3.1-2.1-.7-1.7.1-3.7 1.9-4.4l32-13.1c1.7-.7 3.7.1 4.4 1.9.7 1.7-.1 3.7-1.9 4.4l-32 13.1c-.4.1-.9.2-1.3.2z"/><path fill="#96fbc4" d="M816.1 999.2H684.3c-4.5 0-8.4-2.3-10.6-6.3-2.1-3.9-2-8.5.5-12.3 1-1.6 3.1-2 4.7-1s2 3.1 1 4.7c-1.1 1.6-1.1 3.6-.2 5.4.9 1.7 2.7 2.7 4.6 2.7h131.8c2.9 0 5.2-2.4 5.2-5.2v-9.4c0-2.9-2.4-5.2-5.2-5.2H683.3c-1.9 0-3.4-1.5-3.4-3.4s1.5-3.4 3.4-3.4H816c6.6 0 12 5.4 12 12v9.4c.1 6.6-5.3 12-11.9 12zM828.4 1075H696.6c-4.5 0-8.4-2.3-10.6-6.3-2.1-3.9-2-8.5.5-12.3 1-1.6 3.1-2 4.7-1s2 3.1 1 4.7c-1.1 1.6-1.1 3.6-.2 5.4.9 1.7 2.7 2.7 4.6 2.7h131.8c2.9 0 5.2-2.3 5.2-5.2v-9.4c0-2.9-2.4-5.2-5.2-5.2H695.7c-1.9 0-3.4-1.5-3.4-3.4s1.5-3.4 3.4-3.4h132.7c6.6 0 12 5.4 12 12v9.4c0 6.6-5.4 12-12 12zM946.1 1487.4c-6.1 0-12.2-.7-18.3-2-26.8-5.8-48.6-23.5-59.8-48.5L762.7 1203c-.8-1.7 0-3.7 1.7-4.5 1.7-.8 3.7 0 4.5 1.7l105.3 233.9c10.3 23 30.4 39.2 55.1 44.6 24.2 5.3 48.8-1 67.3-17.2l3-2.7c1.4-1.3 3.5-1.2 4.8.2 1.3 1.4 1.2 3.5-.2 4.8-1 1-2.1 1.9-3.1 2.8-15.6 13.7-35 20.8-55 20.8zM750.2 1170.6c-1.3 0-2.5-.7-3.1-2l-11.7-26.1c-.8-1.7 0-3.7 1.7-4.5 1.7-.8 3.7 0 4.5 1.7l11.7 26.1c.8 1.7 0 3.7-1.7 4.5-.5.2-1 .3-1.4.3z"/><linearGradient id="v" x1="1633.605" x2="1763.741" y1="853.077" y2="853.077" gradientUnits="userSpaceOnUse"><stop offset="0" style="stop-color:#8ff1eb"/><stop offset="1" style="stop-color:#f9fea5"/></linearGradient><path fill="url(#v)" d="M1760.3 904.2c-1.8 0-3.2-1.4-3.4-3.1-2.3-33-13.8-57.6-34-73.1-35-26.8-84.8-17.6-85.3-17.5-1.8.4-3.6-.8-4-2.7-.4-1.8.8-3.6 2.7-4 2.2-.4 53.4-9.9 90.8 18.8 21.8 16.8 34.1 43 36.6 78 .1 1.9-1.3 3.5-3.1 3.6h-.3z"/></g><g><g fill="#7D97F4"><path d="M2037.5 691.1c-.9 0-1.7-.5-2.1-1.4-.5-1.2.1-2.5 1.2-2.9 2.8-1.1 5.5-2.3 8.2-3.6 1.1-.5 2.5 0 3 1.1s0 2.5-1.1 3c-2.7 1.3-5.5 2.5-8.4 3.7-.3.1-.5.1-.8.1zM1963.3 705.3c-6-.1-12.1-.4-18.1-1-1.2-.1-2.1-1.2-2-2.5.1-1.2 1.2-2.1 2.5-2 5.8.6 11.8.9 17.6 1 1.2 0 2.2 1 2.2 2.3.1 1.2-.9 2.2-2.2 2.2zm29-1.9c-1.1 0-2.1-.8-2.2-1.9-.2-1.2.7-2.4 1.9-2.6 5.8-.8 11.6-1.9 17.3-3.3 1.2-.3 2.4.5 2.7 1.7.3 1.2-.5 2.4-1.7 2.7-5.8 1.4-11.8 2.5-17.8 3.4h-.2zm-75.4-4.2c-.2 0-.4 0-.6-.1-5.8-1.5-11.6-3.3-17.3-5.4-1.2-.4-1.8-1.7-1.3-2.9.4-1.2 1.7-1.8 2.9-1.3 5.5 2 11.2 3.8 16.9 5.3 1.2.3 1.9 1.6 1.6 2.8-.3.9-1.2 1.6-2.2 1.6zm-43.5-17.4c-.4 0-.7-.1-1.1-.3-5.3-2.9-10.4-6.1-15.4-9.4-1-.7-1.3-2.1-.6-3.1.7-1 2.1-1.3 3.1-.6 4.9 3.3 9.9 6.4 15.1 9.2 1.1.6 1.5 2 .9 3.1-.4.7-1.2 1.1-2 1.1zm-38-27.4c-.6 0-1.1-.2-1.5-.6-4.4-4.1-8.7-8.4-12.7-12.9-.8-.9-.8-2.4.2-3.2.9-.8 2.4-.8 3.2.2 3.9 4.4 8.1 8.6 12.4 12.6.9.8 1 2.3.1 3.2-.4.5-1.1.7-1.7.7zm-30.1-35.8c-.7 0-1.5-.4-1.9-1-3.3-5-6.4-10.3-9.2-15.6-.6-1.1-.2-2.5 1-3.1 1.1-.6 2.5-.2 3 1 2.7 5.2 5.7 10.3 8.9 15.2.7 1 .4 2.4-.7 3.1-.3.3-.7.4-1.1.4zm-20.6-42c-.9 0-1.8-.6-2.1-1.5-1.9-5.7-3.6-11.5-5-17.4-.3-1.2.5-2.4 1.7-2.7 1.2-.3 2.4.5 2.7 1.7 1.4 5.7 3 11.4 4.9 17 .4 1.2-.2 2.5-1.4 2.9-.3-.1-.5 0-.8 0zm-9.6-45.9c-1.2 0-2.1-.9-2.2-2.1v-.5c-.4-5.3-.7-10.7-.7-16v-1.6c0-1.2 1-2.2 2.3-2.2 1.2 0 2.2 1 2.2 2.3v1.5c0 5.2.2 10.4.6 15.6v.5c.1 1.2-.8 2.3-2.1 2.4.1.1 0 .1-.1.1zm1.8-46.7h-.4c-1.2-.2-2.1-1.4-1.9-2.6 1-5.9 2.2-11.9 3.7-17.7.3-1.2 1.5-1.9 2.8-1.6 1.2.3 1.9 1.6 1.6 2.8-1.5 5.7-2.7 11.5-3.6 17.3-.2 1-1.1 1.8-2.2 1.8zM1790.1 438.9c-.3 0-.6-.1-.9-.2-1.1-.5-1.7-1.8-1.2-3 1.2-2.8 2.5-5.5 3.8-8.3.6-1.1 1.9-1.6 3-1 1.1.5 1.6 1.9 1 3-1.3 2.7-2.6 5.4-3.7 8.1-.3.9-1.1 1.4-2 1.4z"/></g><g fill="#7D97F4"><path d="M1899.4 335.6c-.9 0-1.8-.6-2.1-1.5-.4-1.2.2-2.5 1.3-2.9 2.9-1 5.8-2 8.7-2.9 1.2-.4 2.5.3 2.8 1.5.4 1.2-.3 2.5-1.5 2.8-2.8.9-5.7 1.8-8.4 2.9-.3.1-.5.1-.8.1zM2147.1 571.8c-.2 0-.5 0-.7-.1-1.2-.4-1.9-1.6-1.5-2.8 1.7-5.5 3.2-11.2 4.4-16.8.3-1.2 1.5-2 2.7-1.7 1.2.3 2 1.5 1.7 2.7-1.2 5.8-2.8 11.6-4.5 17.2-.3.8-1.2 1.5-2.1 1.5zm8.3-45.3h-.1c-1.2-.1-2.2-1.1-2.1-2.4.2-3.8.3-7.6.3-11.5 0-2 0-3.9-.1-5.9 0-1.2.9-2.3 2.2-2.3 1.2-.1 2.3.9 2.3 2.2.1 2 .1 4 .1 6.1 0 3.9-.1 7.9-.4 11.7 0 1.1-1 2.1-2.2 2.1zm-2.7-46c-1.1 0-2-.8-2.2-1.9-1-5.7-2.3-11.4-3.9-16.9-.3-1.2.4-2.4 1.6-2.8 1.2-.3 2.4.4 2.8 1.6 1.6 5.7 2.9 11.5 4 17.3.2 1.2-.6 2.4-1.8 2.6-.2.1-.4.1-.5.1zm-13.6-44c-.9 0-1.7-.5-2.1-1.3-2.4-5.3-5-10.5-7.9-15.5-.6-1.1-.2-2.5.9-3.1 1.1-.6 2.5-.2 3.1.9 2.9 5.2 5.6 10.5 8 15.9.5 1.1 0 2.5-1.1 3-.3 0-.6.1-.9.1zm-23.8-39.4c-.7 0-1.3-.3-1.8-.9-3.6-4.5-7.4-9-11.3-13.2-.9-.9-.8-2.3.1-3.2s2.3-.8 3.2.1c4.1 4.3 8 8.8 11.6 13.5.8 1 .6 2.4-.4 3.2-.5.3-1 .5-1.4.5zm-32.6-32.6c-.5 0-1-.2-1.4-.5-4.5-3.6-9.3-6.9-14.2-10.1-1-.7-1.3-2.1-.7-3.1.7-1 2.1-1.3 3.1-.7 5 3.2 9.8 6.7 14.5 10.3 1 .8 1.2 2.2.4 3.2-.4.6-1.1.9-1.7.9zm-39.5-23.8c-.3 0-.6-.1-.9-.2-5.3-2.4-10.7-4.5-16.2-6.4-1.2-.4-1.8-1.7-1.4-2.9.4-1.2 1.7-1.8 2.9-1.4 5.6 1.9 11.2 4.1 16.5 6.5 1.1.5 1.6 1.9 1.1 3-.3.9-1.1 1.4-2 1.4zm-44-13.7h-.4c-5.7-1-11.5-1.8-17.2-2.3-1.2-.1-2.2-1.2-2.1-2.4.1-1.2 1.2-2.2 2.4-2.1 5.9.5 11.8 1.3 17.6 2.4 1.2.2 2 1.4 1.8 2.6 0 1-1 1.8-2.1 1.8zm-63.4-.8c-1.1 0-2.1-.8-2.2-1.9-.2-1.2.7-2.4 1.9-2.6 4.6-.7 9.3-1.3 13.9-1.6 1.3-.1 2.5-.2 3.8-.3 1.2-.1 2.3.9 2.4 2.1.1 1.2-.9 2.3-2.1 2.4-1.2.1-2.5.2-3.7.3-4.5.4-9.1.9-13.6 1.6h-.4zM2132.3 606.4c-.4 0-.7-.1-1.1-.3-1.1-.6-1.5-2-.9-3.1 1.4-2.6 2.8-5.3 4.1-7.9.5-1.1 1.9-1.6 3-1 1.1.5 1.6 1.9 1 3-1.3 2.7-2.7 5.4-4.2 8.1-.4.8-1.1 1.2-1.9 1.2z"/></g><path fill="#37ecba" d="M2083.6 598.5c.7-.7.8-1.8.3-2.6l-13.4-24.4c6.3-11.4 10.8-23.8 13.2-37l25.8-10.4c.9-.4 1.5-1.3 1.4-2.2l-1.7-33.4c0-1-.7-1.8-1.6-2.1l-26.7-7.7c-3.7-12.9-9.5-24.8-16.9-35.5l10.9-25.6c.4-.9.2-1.9-.6-2.6l-24.8-22.4c-.7-.7-1.8-.8-2.6-.3l-24.4 13.4c-11.4-6.3-23.8-10.8-37-13.2l-10.4-25.8c-.4-.9-1.3-1.5-2.2-1.4l-33.4 1.7c-1 0-1.8.7-2.1 1.6l-7.7 26.7c-12.9 3.7-24.8 9.5-35.5 16.9l-25.6-10.9c-.9-.4-1.9-.2-2.6.6l-22.4 24.8c-.7.7-.8 1.8-.3 2.6l13.4 24.4c-6.3 11.4-10.8 23.8-13.2 37l-25.8 10.4c-.9.4-1.5 1.3-1.4 2.2l1.7 33.4c0 1 .7 1.8 1.6 2.1l26.7 7.7c3.7 12.9 9.5 24.8 16.9 35.5l-10.9 25.6c-.4.9-.2 1.9.6 2.6l24.8 22.4c.7.7 1.8.8 2.6.3l24.4-13.4c11.4 6.3 23.8 10.8 37 13.2l10.4 25.8c.4.9 1.3 1.5 2.2 1.4l33.4-1.7c1 0 1.8-.7 2.1-1.6l7.7-26.7c12.9-3.7 24.8-9.5 35.5-16.9l25.6 10.9c.9.4 1.9.2 2.6-.6l22.4-24.8z"/><path fill="#96fbc4" d="M1963.6 545.5c-14.1 0-27.3-9.2-31.6-23.4-5.3-17.4 4.5-35.9 21.9-41.3 8.4-2.6 17.4-1.7 25.2 2.4 7.8 4.1 13.5 11.1 16.1 19.5 5.3 17.4-4.5 35.9-21.9 41.3-3.2 1.1-6.5 1.5-9.7 1.5zm.1-59.3c-2.6 0-5.2.4-7.7 1.2-13.9 4.2-21.7 19-17.4 32.8 4.2 13.9 19 21.7 32.8 17.4 13.9-4.2 21.7-19 17.4-32.8-2.1-6.7-6.6-12.2-12.8-15.5-3.9-2.1-8.1-3.1-12.3-3.1z"/><path fill="#96fbc4" d="M1963 596.1c-20.8 0-40.7-7.6-56.3-21.7-16.6-15.1-26.4-35.7-27.5-58.1-.1-1.4-.1-2.8-.1-4.3 0-44.4 35-81.6 79.8-83.8 46.3-2.3 85.8 33.4 88.1 79.7.3 6 0 12-1 17.9l-6.7-1.1c.7-4.1 1-8.3 1-12.5 0-1.3 0-2.6-.1-3.9-2.1-42.5-38.5-75.4-81-73.3-41.2 2.1-73.4 36.3-73.4 77.1 0 1.3 0 2.6.1 3.9 1 20.6 10 39.6 25.3 53.4 15.3 13.8 35.1 20.9 55.7 19.9 14-.7 27.5-5.2 39.1-12.9l3.8 5.6c-12.6 8.4-27.3 13.3-42.5 14.1-1.5-.1-2.9 0-4.3 0z"/><path fill="#37ecba" d="m1854.5 378.2-8.6-13c3-6.6 5-13.8 5.7-21.3l14-6.9c.5-.2.8-.8.7-1.3l-2.4-18.6c-.1-.5-.5-1-1-1.1l-15.3-3.1c-2.6-7-6.4-13.4-11-19.1l5-14.8c.2-.5 0-1.1-.4-1.4l-14.8-11.4c-.4-.3-1-.4-1.5-.1l-13 8.6c-6.6-3-13.8-5-21.3-5.7l-6.9-14c-.2-.5-.8-.8-1.3-.7l-18.6 2.4c-.5.1-1 .5-1.1 1l-3.1 15.3c-7 2.6-13.4 6.4-19.1 11l-14.8-5c-.5-.2-1.1 0-1.4.4l-11.4 14.8c-.3.4-.4 1-.1 1.5l8.6 13c-3 6.6-5 13.8-5.7 21.3l-14 6.9c-.5.2-.8.8-.7 1.3l2.4 18.6c.1.5.5 1 1 1.1l15.3 3.1c2.6 7 6.4 13.4 11 19.1l-5 14.8c-.2.5 0 1.1.4 1.4l14.8 11.4c.4.3 1 .4 1.5.1l13-8.6c6.6 3 13.8 5 21.3 5.7l6.9 14c.2.5.8.8 1.3.7l18.6-2.4c.5-.1 1-.5 1.1-1l3.1-15.3c7-2.6 13.4-6.4 19.1-11l14.8 5c.5.2 1.1 0 1.4-.4l11.4-14.8c.3-.5.4-1.1.1-1.5z"/><g><path fill="#96fbc4" d="M1783.6 357c-2.7 0-5.4-.6-7.9-1.7-4.9-2.1-8.7-6-10.7-11s-1.9-10.4.2-15.3 6-8.7 11-10.7c10.3-4.1 21.9 1 26 11.2 4.1 10.3-1 21.9-11.2 26-2.5 1-4.9 1.5-7.4 1.5zm0-33.3c-1.6 0-3.3.3-4.9.9-3.3 1.3-5.9 3.8-7.3 7-1.4 3.2-1.5 6.8-.2 10.1s3.8 5.9 7 7.3c3.2 1.4 6.8 1.5 10.1.2 6.8-2.7 10.1-10.4 7.4-17.2-1.9-5.1-6.9-8.3-12.1-8.3z"/></g><g fill="#7D97F4"><path d="M1843.6 419.7c-.7 0-1.4-.3-1.8-.9-.7-1-.5-2.4.5-3.2 2.3-1.7 4.6-3.6 6.8-5.6.9-.8 2.4-.8 3.2.2.8.9.8 2.4-.2 3.2-2.3 2.1-4.7 4-7.1 5.9-.5.2-.9.4-1.4.4zM1798.2 438.5c-1.1 0-2.1-.8-2.2-1.9-.2-1.2.7-2.4 1.9-2.6 6.1-.9 12.1-2.4 17.9-4.4 1.2-.4 2.5.2 2.9 1.4.4 1.2-.2 2.5-1.4 2.9-6.1 2.1-12.4 3.7-18.7 4.6h-.4zm-30.5-.2h-.4c-6.3-1-12.6-2.6-18.7-4.8-1.2-.4-1.8-1.7-1.4-2.9.4-1.2 1.7-1.8 2.9-1.4 5.8 2.1 11.8 3.7 17.8 4.6 1.2.2 2.1 1.4 1.9 2.6-.1 1.1-1 1.9-2.1 1.9zm-45.1-19.4c-.5 0-1-.1-1.4-.5-5.1-3.9-9.9-8.3-14.2-13.1-.8-.9-.8-2.4.2-3.2.9-.8 2.4-.8 3.2.2 4.1 4.6 8.6 8.8 13.5 12.5 1 .8 1.2 2.2.4 3.2-.4.6-1 .9-1.7.9zm-30.5-38.4c-.9 0-1.7-.5-2.1-1.3-.7-1.5-1.3-3-1.9-4.5-1.8-4.5-3.2-9.1-4.4-13.8-.3-1.2.5-2.4 1.7-2.7 1.2-.3 2.4.5 2.7 1.7 1.1 4.4 2.5 8.9 4.2 13.2.6 1.5 1.2 2.9 1.8 4.3.5 1.1 0 2.5-1.1 3-.3 0-.6.1-.9.1zM1683.4 332.1h-.2c-1.2-.1-2.2-1.2-2.1-2.4.2-3.1.6-6.1 1.1-9.2.2-1.2 1.4-2.1 2.6-1.9 1.2.2 2.1 1.4 1.9 2.6-.5 2.9-.8 5.8-1 8.8-.1 1.2-1.1 2.1-2.3 2.1z"/></g><g fill="#7D97F4"><path d="M1723.1 259.1c-.7 0-1.4-.3-1.8-.9-.8-1-.6-2.4.4-3.2 2.5-1.9 5-3.6 7.6-5.2 1.1-.7 2.5-.3 3.1.7.7 1.1.3 2.5-.7 3.1-2.5 1.5-4.9 3.2-7.3 5-.4.4-.8.5-1.3.5zM1882.2 320.8c-1.1 0-2-.8-2.2-1.8-1.1-5.9-2.8-11.8-5-17.4-.4-1.2.1-2.5 1.3-2.9 1.2-.5 2.5.1 2.9 1.3 2.3 5.9 4 12 5.2 18.2.2 1.2-.6 2.4-1.8 2.6h-.4zm-20-43.9c-.7 0-1.3-.3-1.8-.9-3.7-4.7-8-9.1-12.5-13.1-.9-.8-1-2.2-.2-3.2.8-.9 2.2-1 3.2-.2 4.8 4.1 9.2 8.8 13.1 13.7.8 1 .6 2.4-.4 3.2-.4.3-.9.5-1.4.5zm-38.2-29.5c-.3 0-.6-.1-.9-.2-5.5-2.4-11.3-4.4-17.2-5.8-1.2-.3-2-1.5-1.7-2.7.3-1.2 1.5-2 2.7-1.7 6.1 1.4 12.2 3.5 18 6 1.1.5 1.7 1.8 1.2 3-.4.9-1.2 1.4-2.1 1.4zm-65.8-5.3c-1 0-1.9-.7-2.2-1.7-.3-1.2.4-2.4 1.6-2.8 6.1-1.6 12.4-2.7 18.7-3.1 1.3-.1 2.3.8 2.4 2.1.1 1.2-.8 2.3-2.1 2.4-6 .4-12 1.4-17.9 3-.1.1-.3.1-.5.1zM1881.8 359.9h-.5c-1.2-.3-2-1.5-1.7-2.7.6-2.9 1.1-5.8 1.4-8.7.1-1.2 1.3-2.1 2.5-2 1.2.1 2.1 1.3 2 2.5-.4 3-.9 6.1-1.5 9.1-.3 1-1.2 1.8-2.2 1.8z"/></g><path fill="#96fbc4" d="M1783.1 385.3c-10.6 0-20.9-3.5-29.5-10.1-10.3-7.9-16.9-19.4-18.5-32.2-.3-2.1-.4-4.3-.4-6.4 0-10.6 3.5-20.9 10.1-29.5 7.9-10.3 19.4-16.9 32.2-18.5 12.9-1.7 25.6 1.8 35.9 9.7 10.3 7.9 16.9 19.4 18.5 32.2.4 3.2.5 6.4.3 9.6 0 .2 0 .5-.1.7l-6.8-.6c.1-1.1.1-2.3.1-3.4 0-1.8-.1-3.6-.4-5.4-.2-1.6-.5-3.3-.9-4.9-2.3-9-7.5-17-15-22.8-8.8-6.8-19.8-9.8-30.9-8.3-11.1 1.4-20.9 7.1-27.7 15.9-5.7 7.4-8.7 16.2-8.7 25.4 0 1.8.1 3.6.4 5.5 1.4 11.1 7.1 20.9 15.9 27.7 8.8 6.8 19.8 9.8 30.9 8.3 7.5-1 14.6-4 20.5-8.6l4.2 5.3c-6.9 5.4-15.1 8.9-23.8 10-2 .3-4.2.4-6.3.4z"/></g><g><linearGradient id="w" x1="1374.385" x2="1351.497" y1="737.092" y2="888.152" gradientUnits="userSpaceOnUse"><stop offset="0" style="stop-color:#020039"/><stop offset="1" style="stop-color:#090056"/></linearGradient><path fill="url(#w)" d="M1427.2 748.7c-.2-2.5-2.7-4.6-7-6.3 4.6-2.6 7.2-5.3 7-8-.7-8.1-26.4-12.7-57.5-10.2s-55.8 11.1-55.1 19.3c.2 2.5 2.7 4.6 7 6.3-4.6 2.6-7.2 5.3-7 8 .2 2.5 2.7 4.6 7 6.3-4.6 2.6-7.2 5.3-7 8 .2 2.5 2.7 4.6 7 6.3-4.6 2.6-7.2 5.3-7 8 .3 3.6 5.5 6.5 13.9 8.4-.1 2.7 0 5.6.2 8.8 1.2 15 18.1 26.7 40.4 26.7 22.3 0 41.6-16 41.8-31.1.1-3.7-.1-6.9-.4-9.8 10.7-3.6 17.2-7.9 16.8-12.1-.2-2.5-2.7-4.6-7-6.3 4.6-2.6 7.2-5.3 7-8-.2-2.5-2.7-4.6-7-6.3 4.5-2.6 7.1-5.4 6.9-8z"/><linearGradient id="x" x1="1365.349" x2="1316.53" y1="805.113" y2="982.955" gradientUnits="userSpaceOnUse"><stop offset="0" style="stop-color:#43e97b"/><stop offset="1" style="stop-color:#38f9d7"/></linearGradient><path fill="url(#x)" d="M1355.3 798c-9.2 0-17.7-.7-24.7-2-.4-.1-.7-.5-.6-.9.1-.4.5-.7.9-.6 10.9 2.1 25.5 2.6 41.1 1.3 12.7-1 24.7-3.1 34.5-5.9.4-.1.8.1.9.5.1.4-.1.8-.5.9-9.9 2.9-21.9 5-34.8 6-5.8.4-11.4.7-16.8.7z"/><linearGradient id="y" x1="1363.542" x2="1314.723" y1="804.617" y2="982.458" gradientUnits="userSpaceOnUse"><stop offset="0" style="stop-color:#43e97b"/><stop offset="1" style="stop-color:#38f9d7"/></linearGradient><path fill="url(#y)" d="M1355.4 783.7c-12 0-22.7-1.1-30.3-3.3-.4-.1-.6-.5-.5-.9.1-.4.5-.6.9-.5 10.8 3.1 28.1 4 46.4 2.5 18.1-1.5 35-5.1 45.2-9.8.4-.2.8 0 1 .4.2.4 0 .8-.4 1-10.3 4.8-27.4 8.5-45.7 10-5.6.3-11.2.6-16.6.6z"/><linearGradient id="z" x1="1359.003" x2="1310.184" y1="803.371" y2="981.213" gradientUnits="userSpaceOnUse"><stop offset="0" style="stop-color:#43e97b"/><stop offset="1" style="stop-color:#38f9d7"/></linearGradient><path fill="url(#z)" d="M1355.3 769.4c-13 0-24.3-1.3-31.9-3.8-.4-.1-.6-.6-.5-.9.1-.4.6-.6.9-.5 10.6 3.5 28.6 4.7 48.2 3.1 18.1-1.5 35-5.1 45.2-9.8.4-.2.8 0 1 .4.2.4 0 .8-.4 1-10.3 4.8-27.4 8.5-45.7 10-5.8.2-11.4.5-16.8.5z"/><linearGradient id="A" x1="1357.788" x2="1308.968" y1="803.038" y2="980.881" gradientUnits="userSpaceOnUse"><stop offset="0" style="stop-color:#43e97b"/><stop offset="1" style="stop-color:#38f9d7"/></linearGradient><path fill="url(#A)" d="M1355.4 755.1c-10.3 0-19.6-.8-26.9-2.4-.4-.1-.7-.5-.6-.9.1-.4.5-.7.9-.6 10.9 2.4 26.7 3.1 43.2 1.7 17.9-1.4 34.7-5.1 44.9-9.7.4-.2.8 0 1 .4.2.4 0 .8-.4 1-10.3 4.7-27.3 8.4-45.4 9.9-5.7.3-11.3.6-16.7.6z"/><linearGradient id="B" x1="1381.081" x2="1367.016" y1="693.053" y2="414.573" gradientUnits="userSpaceOnUse"><stop offset="0" style="stop-color:#f6d365"/><stop offset="1" style="stop-color:#fda085"/></linearGradient><path fill="url(#B)" d="M1293.6 676.5c-3.8-13.4-10.2-25.9-18.8-36.8-18.5-23.3-48.7-70.8-52.5-135.6-5.4-94.2 78.2-141.4 154.4-135 76.3 6.4 151.5 63.2 143.3 150.9-5.1 53.9-35.3 94.9-57.7 118.4-14.3 14.9-24.5 33.2-30 53.1-6.7 24.4-22.8 54.7-61 56.6-49.3 2.3-69.8-43.8-77.7-71.6z"/><linearGradient id="C" x1="1399.178" x2="1410.137" y1="605.372" y2="953.585" gradientUnits="userSpaceOnUse"><stop offset="0" style="stop-color:#e1473d"/><stop offset="1" style="stop-color:#e9605a"/></linearGradient><path fill="url(#C)" d="m1384 729.2 26.7-173.6c.6-3.6 2.3-6 3.9-5.4 1.6.6 2.5 4 1.9 7.6 0 .1 0 .2-.1.3l-30.4 172c-.2 1.3-.9 2.1-1.5 1.8-.4-.2-.7-1.5-.5-2.7z"/><linearGradient id="D" x1="1338.807" x2="1349.766" y1="607.273" y2="955.485" gradientUnits="userSpaceOnUse"><stop offset="0" style="stop-color:#e1473d"/><stop offset="1" style="stop-color:#e9605a"/></linearGradient><path fill="url(#D)" d="M1356.3 730.6 1329.6 557c-.6-3.6-2.3-6-3.9-5.4-1.6.6-2.5 4-1.9 7.6 0 .1 0 .2.1.3l30.4 172c.2 1.3.9 2.1 1.5 1.8.4-.3.7-1.5.5-2.7z"/><linearGradient id="E" x1="1320.605" x2="1371.238" y1="184.75" y2="541.991" gradientUnits="userSpaceOnUse"><stop offset="0" style="stop-color:#fda085"/><stop offset="1" style="stop-color:#feb3b1"/></linearGradient><path fill="url(#E)" d="M1410.5 540.7c-.7-1.1-2.2-1.5-3.5-.9l-14.9 6.9-5.1-14.7c-.3-.8-.9-1.4-1.8-1.8-1.7-.7-3.8-.1-4.6 1.4l-12.2 22.3-11.3-31.7v-.1c-.3-.8-.9-1.5-1.7-1.9-1.9-1-4.4-.5-5.6 1.1l-17.1 23.5c-.7 1-.5 2.3.6 3 1.1.8 2.8.6 3.6-.4l15-16.8 13.5 30.2c.2.5.6.9 1.2 1.2 1.3.6 2.9.2 3.5-.9l13.1-21 4.9 10.6v.1c0 .1.1.2.1.2.7 1.1 2.2 1.5 3.5.9l17.6-8.2c1.4-.5 1.9-1.9 1.2-3z"/><linearGradient id="F" x1="1505.628" x2="1486.877" y1="346.283" y2="478.477" gradientUnits="userSpaceOnUse"><stop offset="0" style="stop-color:#fda085"/><stop offset="1" style="stop-color:#feb3b1"/></linearGradient><path fill="url(#F)" d="M1462.9 615.9c-.7 0-1.4-.2-2-.7-1.5-1.1-1.8-3.2-.7-4.7 4.5-6.1 8.7-12.4 12.4-18.8.9-1.6 3-2.2 4.6-1.2 1.6.9 2.2 3 1.2 4.6-3.8 6.6-8.1 13.1-12.8 19.5-.6.9-1.6 1.3-2.7 1.3z"/><linearGradient id="G" x1="1513.354" x2="1494.602" y1="347.379" y2="479.574" gradientUnits="userSpaceOnUse"><stop offset="0" style="stop-color:#fda085"/><stop offset="1" style="stop-color:#feb3b1"/></linearGradient><path fill="url(#G)" d="M1484.9 578.3c-.5 0-.9-.1-1.3-.3-1.7-.7-2.5-2.7-1.8-4.5 28.2-64.9 3.9-119.5 3.6-120-.8-1.7 0-3.7 1.7-4.5 1.7-.8 3.7 0 4.5 1.7 1.1 2.3 25.8 57.8-3.6 125.5-.6 1.3-1.8 2.1-3.1 2.1z"/></g><g><linearGradient id="H" x1="1736.561" x2="2215.734" y1="850.741" y2="850.741" gradientUnits="userSpaceOnUse"><stop offset="0" style="stop-color:#f6d365"/><stop offset="1" style="stop-color:#fda085"/></linearGradient><path fill="url(#H)" d="M1740 986.2c-5.1-1.7-4.4-9.2 1-9.9 24.3-3.2 60-12.7 71.7-41.2 18.3-44.8-19.6-217.5 154.7-248.3 160.8-28.5 250.4 22.4 248.3 171-2 144-233.5 211.5-475.7 128.4z"/><linearGradient id="I" x1="1863.864" x2="1866.677" y1="493.897" y2="749.874" gradientUnits="userSpaceOnUse"><stop offset="0" style="stop-color:#fda085"/><stop offset="1" style="stop-color:#feb3b1"/></linearGradient><path fill="url(#I)" d="M1860.4 826.7h15.6v122.1h-15.6z"/><linearGradient id="J" x1="1889.695" x2="1892.508" y1="493.613" y2="749.59" gradientUnits="userSpaceOnUse"><stop offset="0" style="stop-color:#fda085"/><stop offset="1" style="stop-color:#feb3b1"/></linearGradient><path fill="url(#J)" d="M1886.5 868.6h15.6v80.1h-15.6z"/><linearGradient id="K" x1="1916.325" x2="1919.138" y1="493.322" y2="749.298" gradientUnits="userSpaceOnUse"><stop offset="0" style="stop-color:#fda085"/><stop offset="1" style="stop-color:#feb3b1"/></linearGradient><path fill="url(#K)" d="M1912.5 764.9h15.6v183.8h-15.6z"/><linearGradient id="L" x1="1941.619" x2="1944.432" y1="493.042" y2="749.019" gradientUnits="userSpaceOnUse"><stop offset="0" style="stop-color:#fda085"/><stop offset="1" style="stop-color:#feb3b1"/></linearGradient><path fill="url(#L)" d="M1938.6 904.6h15.6v44.2h-15.6z"/><linearGradient id="M" x1="1968.313" x2="1971.126" y1="492.749" y2="748.726" gradientUnits="userSpaceOnUse"><stop offset="0" style="stop-color:#fda085"/><stop offset="1" style="stop-color:#feb3b1"/></linearGradient><path fill="url(#M)" d="M1964.6 789.5h15.6v159.2h-15.6z"/><linearGradient id="N" x1="1994.222" x2="1997.035" y1="492.465" y2="748.441" gradientUnits="userSpaceOnUse"><stop offset="0" style="stop-color:#fda085"/><stop offset="1" style="stop-color:#feb3b1"/></linearGradient><path fill="url(#N)" d="M1990.7 817.1h15.6v131.6h-15.6z"/><linearGradient id="O" x1="2020.119" x2="2022.932" y1="492.18" y2="748.157" gradientUnits="userSpaceOnUse"><stop offset="0" style="stop-color:#fda085"/><stop offset="1" style="stop-color:#feb3b1"/></linearGradient><path fill="url(#O)" d="M2016.8 847h15.6v101.7h-15.6z"/><linearGradient id="P" x1="2046.835" x2="2049.648" y1="491.887" y2="747.864" gradientUnits="userSpaceOnUse"><stop offset="0" style="stop-color:#fda085"/><stop offset="1" style="stop-color:#feb3b1"/></linearGradient><path fill="url(#P)" d="M2042.8 727.8h15.6v220.9h-15.6z"/><linearGradient id="Q" x1="2072.768" x2="2075.581" y1="491.603" y2="747.578" gradientUnits="userSpaceOnUse"><stop offset="0" style="stop-color:#fda085"/><stop offset="1" style="stop-color:#feb3b1"/></linearGradient><path fill="url(#Q)" d="M2068.9 751.2h15.6v197.6h-15.6z"/><linearGradient id="R" x1="2098.635" x2="2101.448" y1="491.317" y2="747.294" gradientUnits="userSpaceOnUse"><stop offset="0" style="stop-color:#fda085"/><stop offset="1" style="stop-color:#feb3b1"/></linearGradient><path fill="url(#R)" d="M2095 786.5h15.6v162.2H2095z"/><linearGradient id="S" x1="2124.024" x2="2126.837" y1="491.037" y2="747.013" gradientUnits="userSpaceOnUse"><stop offset="0" style="stop-color:#fda085"/><stop offset="1" style="stop-color:#feb3b1"/></linearGradient><path fill="url(#S)" d="M2121 908.7h15.6v40.1H2121z"/></g><g><g fill="#7D97F4"><path d="m2187.9 358.1.5 9.7c0 .8-.6 1.5-1.4 1.5-.8 0-1.5-.6-1.5-1.4l-.5-9.7c0-.8.6-1.5 1.4-1.5.8 0 1.5.6 1.5 1.4zM2188.7 377.5l.2 9.7c0 .8-.6 1.5-1.4 1.5-.8 0-1.5-.6-1.5-1.4l-.2-9.7c0-.8.6-1.5 1.4-1.5.9 0 1.5.6 1.5 1.4zM2189.1 396.9v9.7c0 .8-.7 1.5-1.5 1.5s-1.5-.7-1.5-1.5v-9.7c0-.8.7-1.5 1.5-1.5.8.1 1.5.7 1.5 1.5zM2188.9 416.4l-.3 9.7c0 .8-.7 1.5-1.5 1.4-.8 0-1.5-.7-1.4-1.5l.3-9.7c0-.8.7-1.5 1.5-1.4.8 0 1.5.7 1.4 1.5zM2188.3 435.8l-.5 9.7c0 .8-.7 1.4-1.5 1.4s-1.4-.7-1.4-1.5l.5-9.7c0-.8.7-1.4 1.5-1.4s1.4.7 1.4 1.5zM2187.2 455.2l-.8 9.7c-.1.8-.8 1.4-1.6 1.3-.8-.1-1.4-.8-1.3-1.6l.8-9.6c.1-.8.8-1.4 1.6-1.3.7 0 1.3.7 1.3 1.5zM2185.5 474.6l-1 9.7c-.1.8-.8 1.4-1.6 1.3-.8-.1-1.4-.8-1.3-1.6l1-9.6c.1-.8.8-1.4 1.6-1.3.8-.1 1.4.7 1.3 1.5zM2183.3 493.9l-1.3 9.6c-.1.8-.8 1.4-1.6 1.3-.8-.1-1.4-.8-1.3-1.6l1.3-9.6c.1-.8.8-1.4 1.6-1.3s1.4.8 1.3 1.6zM2180.6 513.1l-1.6 9.6c-.1.8-.9 1.3-1.7 1.2-.8-.1-1.3-.9-1.2-1.7l1.6-9.5c.1-.8.9-1.3 1.7-1.2.8.1 1.3.8 1.2 1.6zM2177.3 532.3l-1.9 9.5c-.2.8-.9 1.3-1.7 1.2-.8-.2-1.3-.9-1.2-1.7l1.9-9.5c.2-.8.9-1.3 1.7-1.2.8.1 1.4.9 1.2 1.7zM2173.4 551.3l-2.2 9.5c-.2.8-1 1.3-1.7 1.1s-1.3-1-1.1-1.7l2.2-9.4c.2-.8 1-1.3 1.7-1.1.8 0 1.3.8 1.1 1.6zM2168.9 570.2l-2.5 9.4c-.2.8-1 1.2-1.8 1-.8-.2-1.2-1-1-1.8l2.5-9.3c.2-.8 1-1.2 1.8-1 .7.1 1.2.9 1 1.7zM2163.7 589l-2.8 9.3c-.2.8-1 1.2-1.8 1-.8-.2-1.2-1-1-1.8l2.8-9.3c.2-.8 1-1.2 1.8-1 .8.2 1.3 1 1 1.8zM2157.9 607.5l-3.2 9.2c-.3.8-1.1 1.2-1.8.9-.8-.3-1.2-1.1-.9-1.8l3.1-9.1c.3-.8 1.1-1.2 1.8-.9.9.1 1.3 1 1 1.7zM2151.4 625.8l-3.5 9.1c-.3.7-1.1 1.1-1.9.8-.7-.3-1.1-1.1-.8-1.9l3.5-9c.3-.7 1.1-1.1 1.9-.8.8.3 1.1 1.1.8 1.8zM2144.2 643.9l-3.9 8.9c-.3.7-1.2 1.1-1.9.8-.7-.3-1.1-1.2-.8-1.9l3.8-8.9c.3-.7 1.2-1.1 1.9-.8.9.3 1.3 1.2.9 1.9zM2136.3 661.7l-4.2 8.8c-.3.7-1.2 1-1.9.7-.7-.3-1-1.2-.7-1.9l4.2-8.7c.3-.7 1.2-1 1.9-.7.7.2 1.1 1.1.7 1.8zM2127.6 679.1l-4.6 8.6c-.4.7-1.3 1-2 .6s-1-1.3-.6-2l4.6-8.5c.4-.7 1.3-1 2-.6.7.3 1 1.2.6 1.9zM2118.2 696.1l-5 8.3c-.4.7-1.3.9-2 .5s-.9-1.3-.5-2l5-8.3c.4-.7 1.3-.9 2-.5s.9 1.3.5 2zM2108 712.7l-5.4 8.1c-.4.7-1.3.8-2 .4s-.8-1.3-.4-2l5.3-8.1c.4-.7 1.3-.8 2-.4.8.4.9 1.3.5 2zM2097 728.8l-5.8 7.8c-.5.6-1.4.8-2 .3-.6-.5-.8-1.4-.3-2l5.7-7.8c.5-.6 1.4-.8 2-.3.8.4.9 1.3.4 2zM2085.3 744.3l-6.1 7.6c-.5.6-1.4.7-2 .2-.6-.5-.7-1.4-.2-2l6.1-7.5c.5-.6 1.4-.7 2-.2.6.4.7 1.3.2 1.9zM2072.9 759.3l-6.5 7.2c-.5.6-1.4.6-2 .1s-.6-1.4-.1-2l6.5-7.2c.5-.6 1.4-.6 2-.1.6.5.6 1.4.1 2zM2059.7 773.6l-6.9 6.9c-.6.6-1.5.6-2 0-.6-.6-.6-1.5 0-2l6.8-6.9c.6-.6 1.5-.6 2 0 .6.5.6 1.4.1 2zM2045.8 787.2l-7.2 6.6c-.6.5-1.5.5-2-.1s-.5-1.5.1-2l7.1-6.5c.6-.5 1.5-.5 2 .1.6.5.6 1.4 0 1.9zM2031.3 800.2l-7.5 6.2c-.6.5-1.5.4-2-.2-.5-.6-.4-1.5.2-2l7.5-6.1c.6-.5 1.5-.4 2 .2.4.5.4 1.4-.2 1.9zM2016.1 812.4l-7.8 5.8c-.6.5-1.5.3-2-.3s-.3-1.5.3-2l7.7-5.8c.6-.5 1.5-.3 2 .3s.4 1.5-.2 2zM2000.3 823.8l-8.1 5.4c-.7.4-1.5.3-2-.4-.4-.7-.3-1.5.4-2l8-5.4c.7-.4 1.5-.3 2 .4.6.7.4 1.5-.3 2zM1984 834.4l-8.3 5c-.7.4-1.5.2-2-.5-.4-.7-.2-1.5.5-2l8.3-5c.7-.4 1.6-.2 2 .5.4.8.2 1.6-.5 2zM1967.3 844.3l-8.5 4.6c-.7.4-1.6.1-1.9-.6-.4-.7-.1-1.6.6-1.9l8.5-4.6c.7-.4 1.6-.1 1.9.6.3.7.1 1.6-.6 1.9zM1950.1 853.4l-8.7 4.3c-.7.3-1.6.1-1.9-.7-.3-.7-.1-1.6.7-1.9l8.7-4.2c.7-.3 1.6-.1 1.9.7.3.6 0 1.5-.7 1.8zM1932.5 861.8l-8.9 3.9c-.7.3-1.6 0-1.9-.7-.3-.7 0-1.6.7-1.9l8.9-3.9c.7-.3 1.6 0 1.9.7.4.7 0 1.6-.7 1.9zM1914.6 869.4l-9.1 3.5c-.7.3-1.6-.1-1.8-.8-.3-.7.1-1.6.8-1.8l9-3.5c.7-.3 1.6.1 1.8.8.4.7.1 1.5-.7 1.8zM1896.4 876.2l-9.2 3.2c-.7.3-1.5-.1-1.8-.9-.3-.7.1-1.5.9-1.8l9.1-3.1c.7-.3 1.5.1 1.8.9.4.7 0 1.5-.8 1.7zM1878 882.4l-9.3 2.8c-.7.2-1.5-.2-1.8-.9-.2-.7.2-1.5.9-1.8l9.3-2.8c.7-.2 1.5.2 1.8.9.2.8-.2 1.6-.9 1.8zM1859.3 887.9l-9.4 2.5c-.8.2-1.5-.2-1.7-1-.2-.8.3-1.5 1-1.7l9.4-2.5c.8-.2 1.5.2 1.7 1 .2.7-.2 1.5-1 1.7zM1840.5 892.7l-9.5 2.2c-.8.2-1.5-.3-1.7-1.1-.2-.8.3-1.5 1.1-1.7l9.4-2.2c.8-.2 1.5.3 1.7 1.1.2.8-.3 1.5-1 1.7zM1821.5 896.9l-9.5 1.9c-.8.1-1.5-.3-1.7-1.1s.3-1.5 1.1-1.7l9.5-1.9c.8-.1 1.5.3 1.7 1.1.2.8-.3 1.5-1.1 1.7zM1802.4 900.5l-9.6 1.6c-.8.1-1.5-.4-1.6-1.2-.1-.8.4-1.5 1.2-1.6l9.5-1.6c.8-.1 1.5.4 1.6 1.2.2.7-.3 1.5-1.1 1.6zM1783.2 903.5l-9.6 1.3c-.8.1-1.5-.4-1.6-1.2-.1-.8.4-1.5 1.2-1.6l9.6-1.3c.8-.1 1.5.4 1.6 1.2.1.8-.4 1.5-1.2 1.6zM1763.9 906l-9.7 1c-.8.1-1.5-.5-1.5-1.2-.1-.8.5-1.5 1.2-1.5l9.6-1c.8-.1 1.5.5 1.5 1.2.2.7-.3 1.4-1.1 1.5zM1744.6 908l-9.7.8c-.8.1-1.4-.5-1.5-1.3-.1-.8.5-1.4 1.3-1.5l9.7-.8c.8-.1 1.5.5 1.5 1.3 0 .7-.5 1.4-1.3 1.5zM1725.2 909.4l-9.7.6c-.8 0-1.4-.5-1.5-1.3 0-.8.5-1.4 1.3-1.5l9.7-.6c.8 0 1.4.5 1.5 1.3.1.8-.5 1.5-1.3 1.5zM1705.8 910.5l-9.7.3c-.8 0-1.4-.6-1.4-1.3 0-.8.6-1.4 1.3-1.4l9.7-.3c.8 0 1.4.6 1.4 1.3.1.7-.5 1.3-1.3 1.4zM1686.4 911.1l-9.7.1c-.8 0-1.4-.6-1.4-1.4 0-.8.6-1.4 1.4-1.4l9.7-.1c.8 0 1.4.6 1.4 1.4 0 .7-.6 1.3-1.4 1.4zM1667 911.2h-9.7c-.8 0-1.4-.6-1.4-1.4 0-.8.6-1.4 1.4-1.4h9.7c.8 0 1.4.6 1.4 1.4 0 .8-.7 1.4-1.4 1.4zM1647.5 911.1l-9.7-.1c-.8 0-1.4-.6-1.4-1.4 0-.8.7-1.4 1.4-1.4l9.7.1c.8 0 1.4.6 1.4 1.4.1.8-.6 1.4-1.4 1.4zM1628.1 910.8l-9.7-.3c-.8 0-1.4-.7-1.4-1.4 0-.8.7-1.4 1.4-1.4l9.7.3c.8 0 1.4.7 1.4 1.4 0 .8-.6 1.4-1.4 1.4zM1608.7 910.2l-9.7-.4c-.8 0-1.4-.7-1.3-1.4 0-.8.7-1.4 1.5-1.3l9.7.4c.8 0 1.4.7 1.3 1.4-.1.7-.7 1.3-1.5 1.3zM1589.3 909.4l-9.7-.5c-.8 0-1.4-.7-1.3-1.5 0-.8.7-1.4 1.5-1.3l9.7.5c.8 0 1.4.7 1.3 1.5-.1.7-.7 1.3-1.5 1.3zM1569.9 908.4l-9.7-.6c-.8 0-1.3-.7-1.3-1.5s.7-1.3 1.5-1.3l9.7.6c.8 0 1.4.7 1.3 1.5 0 .7-.7 1.3-1.5 1.3zM1550.5 907.1l-9.7-.7c-.8-.1-1.3-.7-1.3-1.5.1-.8.7-1.3 1.5-1.3l9.7.7c.8.1 1.3.7 1.3 1.5s-.7 1.4-1.5 1.3zM1531.2 905.6l-9.7-.8c-.8-.1-1.3-.7-1.3-1.5.1-.8.7-1.3 1.5-1.3l9.7.8c.8.1 1.3.7 1.3 1.5-.1.8-.7 1.4-1.5 1.3zM1511.8 904l-9.7-.9c-.8-.1-1.3-.7-1.2-1.5.1-.8.8-1.3 1.5-1.2l9.7.9c.8.1 1.3.7 1.3 1.5-.1.7-.8 1.2-1.6 1.2zM1492.5 902.1l-9.6-1c-.8-.1-1.3-.8-1.2-1.5.1-.8.8-1.3 1.5-1.2l9.6 1c.8.1 1.3.8 1.2 1.5 0 .7-.7 1.3-1.5 1.2zM1473.2 900l-9.6-1.1c-.8-.1-1.3-.8-1.2-1.5.1-.8.8-1.3 1.5-1.2l9.6 1.1c.8.1 1.3.8 1.2 1.5 0 .8-.7 1.3-1.5 1.2zM1454 897.8l-9.6-1.2c-.8-.1-1.3-.8-1.2-1.5.1-.8.8-1.3 1.5-1.2l9.6 1.2c.8.1 1.3.8 1.2 1.5-.1.8-.8 1.3-1.5 1.2zM1434.7 895.4l-9.6-1.3c-.8-.1-1.3-.8-1.2-1.5.1-.8.8-1.3 1.5-1.2l9.6 1.3c.8.1 1.3.8 1.2 1.5-.1.7-.7 1.3-1.5 1.2zM1415.4 892.8l-9.6-1.4c-.8-.1-1.3-.8-1.2-1.6.1-.8.8-1.3 1.6-1.2l9.6 1.4c.8.1 1.3.8 1.2 1.5-.1.9-.8 1.4-1.6 1.3zM1396.2 890l-9.6-1.4c-.7-.1-1.3-.8-1.2-1.6.1-.7.8-1.3 1.6-1.2l9.6 1.4c.7.1 1.3.8 1.2 1.6-.1.8-.8 1.3-1.6 1.2zM1377 887.1l-9.6-1.5c-.7-.1-1.3-.8-1.1-1.6.1-.7.8-1.3 1.6-1.1l9.6 1.5c.7.1 1.3.8 1.1 1.6-.1.7-.8 1.2-1.6 1.1zM1357.8 884l-9.6-1.6c-.7-.1-1.2-.8-1.1-1.6.1-.7.8-1.2 1.6-1.1l9.6 1.6c.7.1 1.3.8 1.1 1.6-.1.7-.8 1.2-1.6 1.1zM1338.7 880.8l-9.6-1.7c-.7-.1-1.2-.8-1.1-1.6.1-.7.8-1.2 1.6-1.1l9.6 1.7c.7.1 1.2.8 1.1 1.6-.1.7-.8 1.2-1.6 1.1zM1319.6 877.4l-9.6-1.7c-.7-.1-1.2-.8-1.1-1.6.1-.7.8-1.2 1.6-1.1l9.5 1.7c.7.1 1.2.8 1.1 1.6-.1.8-.8 1.3-1.5 1.1zM1300.5 873.9l-9.5-1.8c-.7-.1-1.2-.9-1.1-1.6.1-.7.9-1.2 1.6-1.1l9.5 1.8c.7.1 1.2.8 1.1 1.6-.2.8-.9 1.3-1.6 1.1zM1281.4 870.3l-9.5-1.9c-.7-.1-1.2-.9-1.1-1.6.1-.7.9-1.2 1.6-1.1l9.5 1.9c.7.1 1.2.9 1.1 1.6-.1.8-.8 1.3-1.6 1.1zM1262.4 866.6l-9.5-1.9c-.7-.1-1.2-.9-1.1-1.6.1-.7.9-1.2 1.6-1.1l9.5 1.9c.7.1 1.2.9 1.1 1.6-.2.7-.9 1.2-1.6 1.1zM1243.3 862.7l-9.5-2c-.7-.2-1.2-.9-1.1-1.6.2-.7.9-1.2 1.6-1.1l9.5 2c.7.1 1.2.9 1.1 1.6-.1.8-.8 1.2-1.6 1.1zM1224.3 858.7l-9.5-2c-.7-.2-1.2-.9-1-1.6.2-.7.9-1.2 1.6-1l9.5 2c.7.2 1.2.9 1 1.6-.1.7-.8 1.2-1.6 1zM1205.4 854.6l-9.5-2.1c-.7-.2-1.2-.9-1-1.6s.9-1.2 1.6-1l9.5 2.1c.7.2 1.2.9 1 1.6s-.9 1.2-1.6 1zM1186.4 850.5l-9.5-2.1c-.7-.2-1.2-.9-1-1.6.2-.7.9-1.2 1.6-1l9.5 2.1c.7.2 1.2.9 1 1.6-.1.7-.9 1.1-1.6 1zM1167.5 846.2l-9.5-2.2c-.7-.2-1.2-.9-1-1.6.2-.7.9-1.2 1.6-1l9.5 2.2c.7.2 1.2.9 1 1.6-.2.7-.9 1.2-1.6 1zM1148.6 841.9l-9.5-2.2c-.7-.2-1.2-.9-1-1.6.2-.7.9-1.2 1.6-1l9.4 2.2c.7.2 1.2.9 1 1.6-.1.7-.8 1.1-1.5 1zM1129.7 837.4l-9.4-2.2c-.7-.2-1.2-.9-1-1.6s.9-1.2 1.6-1l9.4 2.2c.7.2 1.2.9 1 1.6-.2.7-.9 1.2-1.6 1zM1110.8 832.9l-9.4-2.3c-.7-.2-1.2-.9-1-1.6.2-.7.9-1.2 1.6-1l9.4 2.3c.7.2 1.2.9 1 1.6-.2.7-.9 1.2-1.6 1zM1091.9 828.3l-9.4-2.3c-.7-.2-1.2-.9-1-1.6.2-.7.9-1.2 1.6-1l9.4 2.3c.7.2 1.2.9 1 1.6-.1.8-.8 1.2-1.6 1zM1073.1 823.7l-9.4-2.3c-.7-.2-1.2-.9-1-1.6.2-.7.9-1.2 1.6-1l9.4 2.3c.7.2 1.2.9 1 1.6-.2.7-.9 1.2-1.6 1zM1054.3 819l-9.4-2.4c-.7-.2-1.2-.9-1-1.6.2-.7.9-1.2 1.6-1l9.4 2.4c.7.2 1.2.9 1 1.6-.2.7-.9 1.2-1.6 1zM1035.4 814.2l-9.4-2.4c-.7-.2-1.1-.9-1-1.6.2-.7.9-1.1 1.6-1l9.4 2.4c.7.2 1.2.9 1 1.6-.1.8-.8 1.2-1.6 1zM1016.6 809.4l-9.4-2.4c-.7-.2-1.1-.9-1-1.6.2-.7.9-1.1 1.6-1l9.4 2.4c.7.2 1.1.9 1 1.6-.1.8-.8 1.2-1.6 1zM997.9 804.5l-9.4-2.5c-.7-.2-1.1-.9-.9-1.6.2-.7.9-1.1 1.6-.9l9.4 2.5c.7.2 1.1.9 1 1.6-.3.7-1 1.1-1.7.9zM979.1 799.5l-9.4-2.5c-.7-.2-1.1-.9-.9-1.6.2-.7.9-1.1 1.6-.9l9.4 2.5c.7.2 1.1.9.9 1.6-.1.7-.9 1.1-1.6.9zM960.4 794.5l-9.4-2.6c-.7-.2-1.1-.9-.9-1.6.2-.7.9-1.1 1.6-.9l9.4 2.6c.7.2 1.1.9.9 1.6-.2.6-.9 1.1-1.6.9zM941.7 789.3l-9.4-2.6c-.7-.2-1.1-.9-.9-1.6.2-.7.9-1.1 1.6-.9l9.4 2.6c.7.2 1.1.9.9 1.6-.2.7-.9 1.1-1.6.9zM922.9 784.2l-9.4-2.6c-.7-.2-1.1-.9-.9-1.6.2-.7.9-1.1 1.6-.9l9.4 2.6c.7.2 1.1.9.9 1.6-.1.7-.9 1.1-1.6.9zM904.2 779.1l-9.4-2.6c-.7-.2-1.1-.9-.9-1.6.2-.7.9-1.1 1.6-.9l9.4 2.6c.7.2 1.1.9.9 1.6-.1.7-.9 1.1-1.6.9zM885.5 774l-9.4-2.5c-.7-.2-1.1-.9-.9-1.6.2-.7.9-1.1 1.6-.9l9.4 2.5c.7.2 1.1.9.9 1.6-.2.7-.9 1.1-1.6.9zM866.8 768.9l-9.4-2.5c-.7-.2-1.1-.9-.9-1.6.2-.7.9-1.1 1.6-.9l9.4 2.5c.7.2 1.1.9.9 1.6-.2.7-.9 1.1-1.6.9zM848 764l-9.4-2.4c-.7-.2-1.1-.9-1-1.6.2-.7.9-1.1 1.6-1l9.4 2.4c.7.2 1.1.9.9 1.6-.1.8-.8 1.2-1.5 1zM829.2 759.2l-9.4-2.4c-.7-.2-1.1-.9-1-1.6.2-.7.9-1.1 1.6-1l9.4 2.4c.7.2 1.1.9 1 1.6-.2.7-.9 1.2-1.6 1zM810.4 754.5l-9.4-2.3c-.7-.2-1.1-.9-1-1.6.2-.7.9-1.1 1.6-1l9.4 2.3c.7.2 1.1.9 1 1.6-.2.7-.9 1.2-1.6 1zM791.5 750l-9.4-2.2c-.7-.2-1.2-.9-1-1.6.2-.7.9-1.2 1.6-1l9.5 2.2c.7.2 1.2.9 1 1.6-.2.7-.9 1.2-1.7 1zM772.6 745.7l-9.5-2.1c-.7-.2-1.2-.8-1-1.6.2-.7.9-1.2 1.6-1l9.5 2.1c.7.2 1.2.9 1 1.6-.1.7-.8 1.2-1.6 1zM753.7 741.6l-9.5-1.9c-.7-.1-1.2-.8-1-1.5.1-.7.8-1.2 1.5-1l9.5 1.9c.7.1 1.2.8 1 1.5-.1.7-.8 1.2-1.5 1zM734.7 737.8l-9.5-1.8c-.7-.1-1.2-.8-1-1.5.1-.7.8-1.2 1.5-1l9.5 1.8c.7.1 1.2.8 1 1.5-.1.7-.8 1.1-1.5 1zM715.6 734.3l-9.6-1.7c-.7-.1-1.2-.8-1.1-1.5.1-.7.8-1.2 1.5-1.1l9.5 1.7c.7.1 1.2.8 1.1 1.5 0 .7-.7 1.2-1.4 1.1zM696.5 730.9l-9.5-1.7c-.7-.1-1.2-.8-1.1-1.5.1-.7.8-1.2 1.5-1.1l9.6 1.7c.7.1 1.2.8 1.1 1.5-.2.7-.8 1.2-1.6 1.1zM677.4 727.5l-9.6-1.6c-.7-.1-1.2-.8-1.1-1.5.1-.7.8-1.2 1.5-1.1l9.6 1.6c.7.1 1.2.8 1.1 1.5-.1.7-.7 1.2-1.5 1.1zM658.3 724.4l-9.6-1.4c-.7-.1-1.2-.8-1.1-1.5.1-.7.8-1.2 1.5-1.1l9.6 1.4c.7.1 1.2.8 1.1 1.5-.1.7-.8 1.2-1.5 1.1zM639.1 721.6l-9.6-1.2c-.7-.1-1.2-.7-1.1-1.5.1-.7.7-1.2 1.5-1.1l9.6 1.2c.7.1 1.2.7 1.1 1.5-.1.7-.7 1.2-1.5 1.1zM619.9 719.4l-9.6-.9c-.7-.1-1.2-.7-1.2-1.4.1-.7.7-1.2 1.4-1.2l9.7.9c.7.1 1.2.7 1.2 1.4-.1.7-.8 1.2-1.5 1.2zM600.6 717.8l-9.7-.4c-.7 0-1.3-.6-1.2-1.4 0-.7.6-1.3 1.4-1.2l9.7.4c.7 0 1.3.6 1.2 1.4 0 .7-.6 1.3-1.4 1.2zM581.3 717.2l-9.7.1c-.7 0-1.3-.6-1.3-1.3 0-.7.6-1.3 1.3-1.3l9.7-.1c.7 0 1.3.6 1.3 1.3 0 .7-.6 1.3-1.3 1.3zM562 717.6l-9.6.7c-.7.1-1.3-.5-1.4-1.2-.1-.7.5-1.3 1.2-1.4l9.7-.7c.7-.1 1.3.5 1.4 1.2 0 .8-.6 1.4-1.3 1.4zM542.7 719.3l-9.5 1.4h-.1c-.7.1-1.4-.4-1.5-1.1-.1-.7.4-1.4 1.1-1.5l9.6-1.4c.7-.1 1.4.4 1.5 1.1.2.8-.3 1.4-1.1 1.5zM523.7 722.5l-9.4 2.2h-.1c-.7.2-1.4-.3-1.6-1-.2-.7.3-1.4 1-1.6l9.5-2.3c.7-.2 1.4.3 1.6 1 .2.9-.2 1.6-1 1.7zM505.1 727.4l-9.1 3.1h-.1c-.7.2-1.4-.1-1.6-.8-.2-.7.1-1.4.8-1.6l9.2-3.2c.7-.2 1.4.1 1.6.8.3.8-.1 1.5-.8 1.7zM487.1 734.2l-8.7 4.1h-.1c-.6.3-1.4 0-1.7-.6-.3-.6 0-1.4.6-1.7l8.8-4.1c.6-.3 1.4 0 1.7.6.3.6.1 1.3-.6 1.7zM469.8 742.8l-8.2 5h-.1c-.6.4-1.4.2-1.8-.4-.4-.6-.2-1.4.4-1.8l8.3-5.1c.6-.4 1.4-.2 1.8.4.5.7.3 1.5-.4 1.9zM453.7 753.3l-7.5 6-.1.1c-.6.4-1.4.3-1.8-.2-.4-.6-.3-1.4.2-1.8l7.7-6.1c.6-.4 1.4-.3 1.8.2.4.5.3 1.3-.3 1.8zM439.1 765.8l-6.6 7-.1.1c-.5.5-1.3.5-1.8 0s-.5-1.3 0-1.8l6.7-7.1c.5-.5 1.3-.5 1.8 0 .5.4.6 1.2 0 1.8zM426.3 780.1l-5.7 7.8v.1c-.4.6-1.2.7-1.8.3-.6-.4-.7-1.2-.3-1.8l5.8-7.9c.4-.6 1.2-.7 1.8-.3.6.4.7 1.2.2 1.8zM415.4 796l-4.7 8.4v.1c-.3.6-1.1.8-1.7.5-.6-.3-.8-1.1-.5-1.7l4.8-8.5c.3-.6 1.1-.8 1.7-.5.6.2.8 1 .4 1.7zM406.6 813.1 403 822v.1c-.3.7-1 1-1.7.7-.7-.3-1-1-.7-1.7l3.6-9.1c.3-.7 1-1 1.7-.7.6.3 1 1 .7 1.8zM400 831.1l-2.3 9.3v.1c-.2.7-.9 1.1-1.5.9-.7-.2-1.1-.9-.9-1.5l2.3-9.5c.2-.7.9-1.1 1.5-.9.7.2 1.1.8.9 1.6zM396.2 849.9l-.7 9.6v.1c-.1.7-.7 1.2-1.4 1.2-.7-.1-1.2-.7-1.2-1.4l.8-9.8c.1-.7.7-1.2 1.4-1.2.7.1 1.2.7 1.2 1.4l-.1.1zM395.6 869.1c.1 1.6.2 3.2.4 4.8l.6 4.8v.1c.1.7-.4 1.3-1.1 1.4-.7.1-1.3-.4-1.4-1.1l-.6-4.9c-.2-1.6-.3-3.3-.4-4.9-.1-.7.5-1.3 1.2-1.4.6-.1 1.2.4 1.3 1.2zM398.3 888l2.5 9.2v.1c.2.7-.2 1.4-.9 1.6-.7.2-1.4-.2-1.6-.9l-2.6-9.5c-.2-.7.2-1.4.9-1.6.7-.2 1.4.2 1.6.9l.1.2zM404.3 906.2c1.3 2.9 2.8 5.7 4.4 8.5.4.6.2 1.4-.4 1.7-.6.4-1.4.2-1.7-.4a71.6 71.6 0 0 1-4.5-8.7c-.3-.6 0-1.4.6-1.7.6-.3 1.3 0 1.6.6zM414.1 922.5c2 2.4 4.3 4.6 6.7 6.7.5.5.6 1.3.1 1.8s-1.3.6-1.8.1c-2.5-2.1-4.9-4.5-7-7-.5-.5-.4-1.3.2-1.8.6-.4 1.4-.4 1.8.2zM428.5 934.9l8.2 4.9.1.1c.6.4.8 1.1.4 1.7-.4.6-1.1.8-1.7.4l-8.5-5c-.6-.4-.8-1.1-.4-1.7s1.1-.8 1.7-.4h.2zM445.4 943.9l9 3.5h.1c.6.3 1 1 .7 1.6-.3.6-1 1-1.6.7l-9.1-3.5c-.6-.3-1-1-.7-1.6.1-.6.8-.9 1.6-.7zM463.5 950.3l9.3 2.3h.1c.7.2 1.1.8.9 1.5-.2.7-.8 1.1-1.5.9l-9.5-2.3c-.7-.2-1.1-.8-.9-1.5.2-.7.8-1.1 1.6-.9zM482.3 954.3l9.6 1.1h.1c.7.1 1.2.7 1.1 1.4-.1.7-.7 1.2-1.4 1.1l-9.7-1.2c-.7-.1-1.2-.7-1.1-1.4 0-.6.6-1 1.4-1zM501.5 955.9l9.6-.4h.1c.7 0 1.3.5 1.3 1.2s-.5 1.3-1.2 1.3l-9.8.4c-.7 0-1.3-.5-1.3-1.2s.5-1.3 1.2-1.3h.1z"/></g><path fill="#7D97F4" d="m2202.2 301.7-19.6 32.8-13.7-27.4z"/><path fill="#37ecba" d="m2066.2 194.7 42 130.6c.8 2.5 2.6 4.6 4.9 5.7 2.4 1.2 5.1 1.3 7.6.4l129.5-47.1c1.5-.5 2.5-1.9 2.5-3.5.1-1.6-.8-3-2.3-3.7l-184.2-82.4z"/><path fill="#7D97F4" d="m2202.2 301.7-136-107 115.2 114.7-5.1 9.3z"/><path fill="#7D97F4" d="m2168.9 313.8 13.7 20.7-1.2-25.1z"/></g><g><linearGradient id="T" x1="6229.04" x2="6014.27" y1="1470.106" y2="1703.715" gradientTransform="matrix(1 .0095 -.0095 1 -4983.736 -57.604)" gradientUnits="userSpaceOnUse"><stop offset="0" style="stop-color:#2af598"/><stop offset="1" style="stop-color:#009efd"/></linearGradient><path fill="url(#T)" d="M1163.3 1488.4s-2.3 12.6-3.6 25c-.5 4.9 3.2 9.1 8.1 9.4 16.6.8 52.1 2.5 64.8 2.1 1.9-.1 3.2-2 2.5-3.8-.6-1.5-1.7-2.7-3.2-3.4l-58.4-27.5-10.2-1.8z"/><linearGradient id="U" x1="6159.329" x2="6178.405" y1="1487.454" y2="1487.454" gradientTransform="matrix(1 .0095 -.0095 1 -4983.736 -57.604)" gradientUnits="userSpaceOnUse"><stop offset="0" style="stop-color:#fda085"/><stop offset="1" style="stop-color:#feb3b1"/></linearGradient><path fill="url(#U)" d="m1161.5 1481 1.6 15.1s10.2 4.9 17.3-.4l-4.1-16.8-14.8 2.1z"/><linearGradient id="V" x1="6245.962" x2="6063.202" y1="1205.901" y2="1453.609" gradientTransform="matrix(1 .0095 -.0095 1 -4983.736 -57.604)" gradientUnits="userSpaceOnUse"><stop offset="0" style="stop-color:#2af598"/><stop offset="1" style="stop-color:#009efd"/></linearGradient><path fill="url(#V)" d="M1165.6 1197.9c-.8 3.9-6 196.2 13.7 282.6.3 1.4-.4 2.9-1.7 3.4-3.2 1.3-9.4 3.1-16.8 3.2-2.3.1-4.3-1.5-5-3.7-5.7-20.1-32.9-120.5-35.7-216.3-3.1-107 0-3.6 0-3.6l3-66.1 42.5.5z"/><linearGradient id="W" x1="6180.859" x2="5966.081" y1="1425.803" y2="1659.422" gradientTransform="matrix(1 .0095 -.0095 1 -4983.736 -57.604)" gradientUnits="userSpaceOnUse"><stop offset="0" style="stop-color:#2af598"/><stop offset="1" style="stop-color:#009efd"/></linearGradient><path fill="url(#W)" d="M1095.8 1494.4s-3.6 6.3-7.2 23.2c-.6 3 1.5 6 4.6 6.3 5.5.6 13.9 1.4 20.7 1.4 3.1 0 5.6-2.7 5.2-5.8-.7-6.2-2.9-16.3-10.1-24.3l-13.2-.8z"/><linearGradient id="X" x1="6090.573" x2="6107.044" y1="1486.473" y2="1486.473" gradientTransform="matrix(1 .0095 -.0095 1 -4983.736 -57.604)" gradientUnits="userSpaceOnUse"><stop offset="0" style="stop-color:#fda085"/><stop offset="1" style="stop-color:#feb3b1"/></linearGradient><path fill="url(#X)" d="m1092.8 1475 4 22.8s4.1 3.1 12.3 1l-1.8-24.5-14.5.7z"/><linearGradient id="Y" x1="6213.389" x2="6030.63" y1="1181.869" y2="1429.575" gradientTransform="matrix(1 .0095 -.0095 1 -4983.736 -57.604)" gradientUnits="userSpaceOnUse"><stop offset="0" style="stop-color:#2af598"/><stop offset="1" style="stop-color:#009efd"/></linearGradient><path fill="url(#Y)" d="M1084.1 1203c-17.8 101.3 1.3 250.9 7.9 280.2.4 1.8 1.8 3.2 3.6 3.5 3.1.5 8.1 1 13.2-.4 1.7-.5 3-2 3-3.8 1.2-23.6.9-168.7 17.1-225.9.8-2.9 2.6-5.4 5.1-7.1l30.6-21.3 2.7-34.9-83.2 9.7z"/><path fill="#37ecba" d="M1193.1 1011.7c-50.4-1.3-106.1 12.2-106.1 12.2-15.9 87.5-4.4 188.7-4.4 188.7 38.9 10.6 83.1-5.5 83.1-5.5 6.8-36.6 38.1-139.4 38.1-139.4 24.7-2.8 45-9.7 61.8-19-12.6-14.9-18.4-33.7-20.9-44.9-18 5.5-36 8.3-51.6 7.9z"/><linearGradient id="Z" x1="1249.975" x2="1351.23" y1="1036.642" y2="930.386" gradientUnits="userSpaceOnUse"><stop offset="0" style="stop-color:#fda085"/><stop offset="1" style="stop-color:#feb3b1"/></linearGradient><path fill="url(#Z)" d="M1342.7 938.9c-4.9-6-11.2-3.3-11.2-3.3-7.7 31.3-46.8 56.3-86.9 68.3 2.5 11.1 8.3 30 20.9 44.9 66.7-36.6 77.2-109.9 77.2-109.9z"/><linearGradient id="aa" x1="1242.897" x2="1344.153" y1="1029.896" y2="923.641" gradientUnits="userSpaceOnUse"><stop offset="0" style="stop-color:#fda085"/><stop offset="1" style="stop-color:#feb3b1"/></linearGradient><path fill="url(#aa)" d="M1341.5 940.4c.5 1.7-5.5 4.1-9-2.7-.1-3.2-1.9-17.1 0-19.7 10.4-13.9 30.5-31.3 30.5-31.3 3.3 3.4.5 6.6.5 6.6l-9.8 10c2 3.7 4.4 6.8 5.5 11.2.8 3.4.3 6.9-1.4 10-1.7 3-4.1 7-6.3 10.1-4.1 5.8-10 5.8-10 5.8z"/><linearGradient id="ab" x1="6334.852" x2="6362.141" y1="923.856" y2="881.898" gradientTransform="matrix(1 .0095 -.0095 1 -4983.736 -57.604)" gradientUnits="userSpaceOnUse"><stop offset="0" style="stop-color:#fda085"/><stop offset="1" style="stop-color:#feb3b1"/></linearGradient><path fill="url(#ab)" d="m1349.5 909.8-8.9 7.4-2.8 7.4 7.8 8.8s2.8-14.7 4.8-17.9c1.9-3.2.9-4.7-.9-5.7z"/><path fill="#37ecba" d="m1105.9 1072.9-18.9-49s-47.4 31.5-55.5 72c8.9.7 25 3.2 40.8 11.4 3.7-19.1 33.6-34.4 33.6-34.4z"/><linearGradient id="ac" x1="6024.576" x2="6147.917" y1="1127.793" y2="1127.793" gradientTransform="matrix(1 .0095 -.0095 1 -4983.736 -57.604)" gradientUnits="userSpaceOnUse"><stop offset="0" style="stop-color:#fda085"/><stop offset="1" style="stop-color:#feb3b1"/></linearGradient><path fill="url(#ac)" d="M1146.6 1119.2s-53.1 29.4-70.7 3.7c-3.7-5.3-4.5-10.6-3.5-15.6-15.8-8.1-31.9-10.6-40.8-11.4-2.5 12.2-1.3 25.2 5.7 38.4 30.7 57.4 116.2-2 116.2-2l-6.9-13.1z"/><linearGradient id="ad" x1="1155.835" x2="1131.459" y1="983.301" y2="1075.18" gradientUnits="userSpaceOnUse"><stop offset="0" style="stop-color:#fda085"/><stop offset="1" style="stop-color:#feb3b1"/></linearGradient><path fill="url(#ad)" d="m1142.5 970.3-16.5 46.2c-.3.8 0 1.6.7 2 4.3 2.5 20 9.6 39.1-2.3 2-1.2 3.4-3.3 3.7-5.6l5.6-40.1-32.6-.2z"/><g><linearGradient id="ae" x1="1152.205" x2="1174.706" y1="915.835" y2="981.463" gradientUnits="userSpaceOnUse"><stop offset="0" style="stop-color:#fda085"/><stop offset="1" style="stop-color:#feb3b1"/></linearGradient><path fill="url(#ae)" d="M1177.8 927.7s17.3 33.3 14.9 46.7c-2.4 13.4-24.2 12.2-43.1 1.1l-13-35.9 41.2-11.9z"/><linearGradient id="af" x1="-1250.676" x2="-1235.432" y1="2066.39" y2="2153.335" gradientTransform="rotate(-41.21 -1626.344 -1651.158)" gradientUnits="userSpaceOnUse"><stop offset="0" style="stop-color:#020039"/><stop offset="1" style="stop-color:#090056"/></linearGradient><path fill="url(#af)" d="M1150.5 958c.8-.3 1.1-1.3.6-2-1.4-2.2-4-6.6-4.8-10.4 0 0-3.1-2.1 8.1-4.6 11.2-2.6 28-6.6 31.6-16.1 3.5-9.3-5.3-32.8-19.8-14.3-.6.7-1.6.7-2.2 0-2.3-3.1-8.5-9.5-17.1-5.7-8.1 3.5-9 9.4-9 12.4 0 .9-.8 1.5-1.6 1.4-4.1-.8-13.8-1.6-18.5 8.4-3.8 8.2-1.4 12.9.8 15.2.7.7.4 2-.6 2.3-2.7.8-6.2 3-5.9 9.3.4 8.7 10.1 8 12.8 7.6.5-.1.9.1 1.2.4 2.3 2.6 12.9 13.9 24.4 15.3 1 .1 1.8-.9 1.5-1.8l-4.9-14.6c-.2-.7.1-1.4.8-1.7l2.6-1.1z"/><linearGradient id="ag" x1="1133.565" x2="1156.066" y1="922.226" y2="987.854" gradientUnits="userSpaceOnUse"><stop offset="0" style="stop-color:#fda085"/><stop offset="1" style="stop-color:#feb3b1"/></linearGradient><path fill="url(#ag)" d="M1152.5 960s-12.5-8.7-13.4-1.5c-1 7.2 11.2 10.6 17.3 8l-3.9-6.5z"/></g><g><linearGradient id="ah" x1="5892.202" x2="5960.261" y1="1049.052" y2="1332.633" gradientTransform="translate(-4705.662)" gradientUnits="userSpaceOnUse"><stop offset="0" style="stop-color:#2af598"/><stop offset="1" style="stop-color:#009efd"/></linearGradient><path fill="url(#ah)" d="m1135.7 1165.6 28.9-101.1c.3-1.1 1.3-2 2.5-2.1 5.2-.6 20.4-2.3 38-3.8 21.1-1.8 45.7-3.2 60.3-2 2.1.2 3.3 2.4 2.4 4.3-8.3 16.9-42.6 85.5-59.8 108-.6.7-1.4 1.2-2.4 1.2l-67.2-.6c-1.8-.1-3.2-2-2.7-3.9z"/><linearGradient id="ai" x1="5845.566" x2="5884.127" y1="1124.074" y2="1124.074" gradientTransform="translate(-4705.662)" gradientUnits="userSpaceOnUse"><stop offset="0" style="stop-color:#fda085"/><stop offset="1" style="stop-color:#feb3b1"/></linearGradient><path fill="url(#ai)" d="M1142.7 1141.2s-4-16.6-2.4-22.5c1.6-5.9 4.8-13.4 15.3-11.8 10.5 1.7 22.9 6.1 22.9 6.1s-.6 7.7-8.6 5.2l5 3.8s-.7 6.1-7.5 2.9l4.6 5.1s-2.9 5-7.9 1.8-7.3 11.4-21.4 9.4z"/><linearGradient id="aj" x1="5119.691" x2="5129.863" y1="1079.298" y2="1121.679" gradientTransform="matrix(-1 0 0 1 6333.66 0)" gradientUnits="userSpaceOnUse"><stop offset="0" style="stop-color:#43e97b"/><stop offset="1" style="stop-color:#38f9d7"/></linearGradient><circle cx="1211.7" cy="1088.8" r="8.5" fill="url(#aj)"/><linearGradient id="ak" x1="1165.756" x2="1248.499" y1="1078.523" y2="1078.523" gradientUnits="userSpaceOnUse"><stop offset="0" style="stop-color:#8ff1eb"/><stop offset="1" style="stop-color:#f9fea5"/></linearGradient><path fill="url(#ak)" d="m1167.9 1094.4-2.2-.6 5.9-20c1-3.3 3.6-5.7 6.9-6.4 18.7-3.9 67.9-4.7 70-4.7v2.3c-.5 0-51.1.8-69.5 4.7-2.5.5-4.4 2.4-5.2 4.8l-5.9 19.9z"/></g><g><linearGradient id="al" x1="862.46" x2="756.027" y1="1357.646" y2="1598.521" gradientUnits="userSpaceOnUse"><stop offset="0" style="stop-color:#43e97b"/><stop offset="1" style="stop-color:#38f9d7"/></linearGradient><path fill="url(#al)" d="M825.4 1377.3c-3.1 4.6-15.3 107.9-17.3 146.1-.1 2.6 1.9 4.7 4.5 4.7 2.2 0 4.1-1.6 4.5-3.8l22.4-143.7-14.1-3.3z"/><linearGradient id="am" x1="950.311" x2="843.878" y1="1396.465" y2="1637.34" gradientUnits="userSpaceOnUse"><stop offset="0" style="stop-color:#43e97b"/><stop offset="1" style="stop-color:#38f9d7"/></linearGradient><path fill="url(#am)" d="M924 1377.3c3.1 4.6 15.3 107.9 17.3 146.1.1 2.6-1.9 4.7-4.5 4.7-2.2 0-4.1-1.6-4.5-3.8l-22.4-143.7 14.1-3.3z"/><linearGradient id="an" x1="874.632" x2="874.632" y1="1394.336" y2="1300.117" gradientUnits="userSpaceOnUse"><stop offset="0" style="stop-color:#43e97b"/><stop offset="1" style="stop-color:#38f9d7"/></linearGradient><path fill="url(#an)" d="M806.8 1369.2v1.1c-.1 8.1 6.9 14.8 15.7 14.9l103.7 1.8c8.6.1 15.8-6.1 16.2-14.1l.1-1c.4-8.3-6.6-15.3-15.6-15.5l-103.7-1.9c-9-.1-16.3 6.5-16.4 14.7z"/></g><g><path fill="#7D97F4" d="M1025.2 1519.6c-18.4 0-26.6-1.6-30.2-3 .7 3 3.4 5.4 6.8 5.4h65.2c2.2 0 3.6-2.1 3.1-4-7.5.6-23.3 1.6-44.9 1.6z"/><linearGradient id="ao" x1="1052.904" x2="1032.364" y1="1374.758" y2="1516.667" gradientUnits="userSpaceOnUse"><stop offset="0" style="stop-color:#2af598"/><stop offset="1" style="stop-color:#009efd"/></linearGradient><path fill="url(#ao)" d="M1070 1518c-.1-.4-.3-.8-.5-1.1-5-6.3-14.9-16.3-28.5-16.1-19.9.3-26.8 2.4-42.3.1l-3.6 12.1c-.4 1.2-.4 2.5-.1 3.6 3.6 1.4 11.8 3 30.2 3 21.6 0 37.4-1 44.8-1.6z"/><linearGradient id="ap" x1="998.74" x2="1019.08" y1="1496.654" y2="1496.654" gradientUnits="userSpaceOnUse"><stop offset="0" style="stop-color:#fda085"/><stop offset="1" style="stop-color:#feb3b1"/></linearGradient><path fill="url(#ap)" d="m1003.2 1487.9-4.5 15.2s9.9 4.5 18.6.9l1.7-13.2-15.8-2.9z"/><path fill="#7D97F4" d="M1138.3 1510c-14.4 11.5-21.7 15.4-25.4 16.6 2.4 1.9 6 2.1 8.7-.1l50.8-40.8c1.7-1.4 1.5-3.9-.1-5-5.4 5.1-17.1 15.8-34 29.3z"/><linearGradient id="aq" x1="1154.641" x2="1134.101" y1="1389.482" y2="1531.392" gradientUnits="userSpaceOnUse"><stop offset="0" style="stop-color:#2af598"/><stop offset="1" style="stop-color:#009efd"/></linearGradient><path fill="url(#aq)" d="M1172.3 1480.7c-.3-.2-.7-.4-1.1-.5-7.8-1.8-21.8-3.3-32.3 5.4-15.3 12.7-19.4 18.7-32.9 26.6l4.7 11.7c.5 1.2 1.2 2.1 2.2 2.9 3.7-1.2 11.1-5 25.4-16.6 16.9-13.7 28.6-24.4 34-29.5z"/><linearGradient id="ar" x1="946.23" x2="930.761" y1="1498.777" y2="1607.059" gradientUnits="userSpaceOnUse"><stop offset="0" style="stop-color:#e1473d"/><stop offset="1" style="stop-color:#e9605a"/></linearGradient><path fill="url(#ar)" d="M907.5 1314.5s110.3 9 133 19.7c22.6 10.7-18.5 160-18.5 160s-6.2 3-19.9-1.3c0 0 14.1-110.2 3.6-134.1l-119.5-19.5 21.3-24.8z"/><linearGradient id="as" x1="1095.08" x2="1119.362" y1="1498.366" y2="1498.366" gradientUnits="userSpaceOnUse"><stop offset="0" style="stop-color:#fda085"/><stop offset="1" style="stop-color:#feb3b1"/></linearGradient><path fill="url(#as)" d="M1095.1 1491.1c1 .9 11 21 11 21s11.1-2.4 13.3-9.4l-10-18.1-14.3 6.5z"/><linearGradient id="at" x1="938.372" x2="1000.251" y1="1531.752" y2="1320.804" gradientUnits="userSpaceOnUse"><stop offset="0" style="stop-color:#e1473d"/><stop offset="1" style="stop-color:#e9605a"/></linearGradient><path fill="url(#at)" d="M841.1 1313.6s-3.6 8.7-3.4 20.1c.2 15.9 13 28.8 28.9 29.6l130.4 5.9c2.8.1 5.1 2 5.8 4.7 3.1 11.9 18 48.3 91.3 120.9 1.9 1.9 5 2.3 7.3.8l10.4-6.6c1.1-.7 1.4-2.1.8-3.2l-75.9-129.7c-4-6.6-10.4-11.3-17.9-13.2l-111.2-28.4-66.5-.9z"/><linearGradient id="au" x1="973.983" x2="937.419" y1="1128.649" y2="1184.433" gradientUnits="userSpaceOnUse"><stop offset="0" style="stop-color:#fda085"/><stop offset="1" style="stop-color:#feb3b1"/></linearGradient><path fill="url(#au)" d="M969.6 1111s-14 24.7-28.2 36.7l29.4 16.4s6.6-26.2 21.8-33.8l-23-19.3z"/><linearGradient id="av" x1="910.677" x2="1042.533" y1="1224.791" y2="1441.255" gradientUnits="userSpaceOnUse"><stop offset="0" style="stop-color:#43e97b"/><stop offset="1" style="stop-color:#38f9d7"/></linearGradient><path fill="url(#av)" d="M838.7 1314.5s35.2 8.6 68.8 0c0 0 47-63.2 65.2-80.4 0 0 29 45.8 93.6 52.3l3.6-8.1s-51.4-23.7-67.3-60.1c-15.8-36.4-22.2-52-36.6-61.5-9-5.9-14.3-10-17.1-12.2-1.5-1.2-3.6-1.3-5.3-.3-15.2 9.4-87.1 58.6-104.9 170.3z"/><linearGradient id="aw" x1="1100.965" x2="949.082" y1="1107.554" y2="1225.685" gradientUnits="userSpaceOnUse"><stop offset="0" style="stop-color:#2af598"/><stop offset="1" style="stop-color:#009efd"/></linearGradient><path fill="url(#aw)" d="M970.8 1233.2c-.7 0-1.3-.3-1.8-.9-11.2-14.6-17.5-30.7-17.7-31.4-.4-1.2.1-2.5 1.3-2.9 1.2-.4 2.5.1 2.9 1.3.1.2 6.3 16.2 17.1 30.3.8 1 .6 2.4-.4 3.2-.4.3-.9.4-1.4.4z"/><linearGradient id="ax" x1="1062.476" x2="1118.567" y1="1273.59" y2="1273.59" gradientUnits="userSpaceOnUse"><stop offset="0" style="stop-color:#fda085"/><stop offset="1" style="stop-color:#feb3b1"/></linearGradient><path fill="url(#ax)" d="m1062.5 1274.1 7.3-1.9 22.1-5.1c2.7-.6 5.5-.1 7.8 1.3l19 11.9-52.4-.1-3.8-6.1z"/><g><linearGradient id="ay" x1="1006.586" x2="968.147" y1="1086.788" y2="1122.415" gradientUnits="userSpaceOnUse"><stop offset="0" style="stop-color:#fda085"/><stop offset="1" style="stop-color:#feb3b1"/></linearGradient><path fill="url(#ay)" d="M991.8 1074s13.6 22.6 15.9 35c2.4 12.5 6.1 20.3-8.1 24.7-14.2 4.4-27.4-1.2-35.7-12.8 0 0-12.9-17.9-11.6-26.1 1.3-8.2 39.5-20.8 39.5-20.8z"/><linearGradient id="az" x1="2835.449" x2="2889.88" y1="1599.319" y2="1669.398" gradientTransform="rotate(-7.505 -2185.811 15705.004)" gradientUnits="userSpaceOnUse"><stop offset="0" style="stop-color:#020039"/><stop offset="1" style="stop-color:#090056"/></linearGradient><path fill="url(#az)" d="m967.8 1111.3 1.8-.2s-9.6-14.5-3.3-18.1c6.3-3.6 31.9-12.4 36.4-22.5 4.3-9.7-2.1-20.7-9.9-23-.5-.1-1 .1-1.2.6l-.5 1.2c-.3.8-1.5.9-1.8.1-.3-.8-1.5-.8-1.8 0-1.4 3-5.5 8.2-17.8 12.2-17.5 5.7-28.4 14.5-27.1 26.9.1.8-.7 1.3-1.4 1-1.4-.6-3.6-.7-6.1 2-4.4 4.8-.9 15.3 11 22.7.6.4.7 1.2.2 1.6-1.8 1.5-4.3 4.9 3.8 8 8.3 3.1 12.8 2.1 14.5 1.4.4-.2.7-.6.6-1.1L963 1113c-.1-.6.3-1.1.8-1.2l4-.5z"/><linearGradient id="aA" x1="998.618" x2="960.178" y1="1078.191" y2="1113.817" gradientUnits="userSpaceOnUse"><stop offset="0" style="stop-color:#fda085"/><stop offset="1" style="stop-color:#feb3b1"/></linearGradient><path fill="url(#aA)" d="M968.5 1113.5s-6-14.8-12.3-9.6c-6.3 5.2 5.8 16.7 11.4 16.5l.9-6.9z"/></g></g><g><linearGradient id="aB" x1="3796.075" x2="3646.065" y1="-7998.27" y2="-7853.239" gradientTransform="matrix(-1.388 -.0686 -.0685 1.3855 -6236.513 -215.947)" gradientUnits="userSpaceOnUse"><stop offset="0" style="stop-color:#020039"/><stop offset="1" style="stop-color:#090056"/></linearGradient><path fill="url(#aB)" d="M1042.2 1290.6h.3l112-.1c2.8 0 5-2.2 5-5s-2.3-5-5-5l-112 .1c-2.8 0-5 2.2-5 5 0 2.7 2.1 4.9 4.7 5z"/><g><linearGradient id="aC" x1="1235.241" x2="1085.237" y1="-7992.43" y2="-7847.405" gradientTransform="matrix(.6475 -1.2297 -1.2274 -.6463 7293.904 -7927.845)" gradientUnits="userSpaceOnUse"><stop offset="0" style="stop-color:#020039"/><stop offset="1" style="stop-color:#090056"/></linearGradient><path fill="url(#aC)" d="M1197.8 1181c0 .1-.1.2-.1.2l-47.1 101.6c-1.2 2.5-.1 5.5 2.4 6.7 2.5 1.2 5.5.1 6.6-2.4l47.1-101.6c1.2-2.5.1-5.5-2.4-6.7-2.4-1.2-5.2-.2-6.5 2.2z"/></g></g><g><linearGradient id="aD" x1="1475.962" x2="1501.509" y1="1514.686" y2="1353.986" gradientUnits="userSpaceOnUse"><stop offset="0" style="stop-color:#43e97b"/><stop offset="1" style="stop-color:#38f9d7"/></linearGradient><path fill="url(#aD)" d="M1479.3 1392.7h11.8v127.8h-11.8z"/><linearGradient id="aE" x1="1486.206" x2="1511.754" y1="1516.314" y2="1355.613" gradientUnits="userSpaceOnUse"><stop offset="0" style="stop-color:#43e97b"/><stop offset="1" style="stop-color:#38f9d7"/></linearGradient><path fill="url(#aE)" d="M1537 1523h-103.5c0-4.2 3.4-7.7 7.7-7.7h88.1c4.2 0 7.7 3.5 7.7 7.7z"/><linearGradient id="aF" x1="1466.468" x2="1492.015" y1="1513.177" y2="1352.477" gradientUnits="userSpaceOnUse"><stop offset="0" style="stop-color:#43e97b"/><stop offset="1" style="stop-color:#38f9d7"/></linearGradient><path fill="url(#aF)" d="M1552.3 1388.3c0 7-5.7 12.7-12.7 12.7h-104.7c-7 0-12.7-5.7-12.7-12.7v-11.5c0-7 5.7-12.7 12.7-12.7h104.7c7 0 12.7 5.7 12.7 12.7v11.5z"/><g><linearGradient id="aG" x1="1365.457" x2="1297.328" y1="1434.089" y2="1478.466" gradientUnits="userSpaceOnUse"><stop offset="0" style="stop-color:#fda085"/><stop offset="1" style="stop-color:#feb3b1"/></linearGradient><path fill="url(#aG)" d="M1397.9 1307.5s-17.6 2.7-37.3 15.9c-3.1 2.1-4.8 5.7-4.3 9.4 2.4 18.7 12.1 79.4 44.1 138.6 1.7 3.1 2.2 6.8 1.4 10.2l-5.6 25.9-10.3 9.7h26.6l17.7-47.9-7.6-2.4c-5.9-1.9-9.9-7.3-10-13.4l-.9-51.4c.8-22.9-14-38.7-14-38.7l42.5-2.1-42.3-53.8z"/><linearGradient id="aH" x1="1407.619" x2="1395.257" y1="1467.131" y2="1656.674" gradientUnits="userSpaceOnUse"><stop offset="0" style="stop-color:#43e97b"/><stop offset="1" style="stop-color:#38f9d7"/></linearGradient><path fill="url(#aH)" d="M1375.6 1521.9c-2.4 3.2 26.1 7.4 40.5.4 0 0 20-34.7 20-52.6 0 0-1.6-3.6-13.3-2.8 0 0-6.7 41.1-13.8 45.7-7.1 4.6-19.8.5-19.8.5s-10.1 4.1-13.6 8.8z"/><linearGradient id="aI" x1="1457.798" x2="1330.917" y1="1395.964" y2="1422.84" gradientUnits="userSpaceOnUse"><stop offset="0" style="stop-color:#fda085"/><stop offset="1" style="stop-color:#feb3b1"/></linearGradient><path fill="url(#aI)" d="M1434.9 1364.1c-.2-.4-45.7-5.5-45.7-5.5s1.5 13.8-3.2 32.9c-4.7 19.1-71.5 101.6-71.5 101.6l7 22.2c-21.7 7.5-43 8.8-64 3.8l43.4-26.1s40.6-138.5 65.5-163.2l45.6-15.8 22.9 50.1z"/><linearGradient id="aJ" x1="1467.311" x2="1482.311" y1="1347.485" y2="1617.499" gradientUnits="userSpaceOnUse"><stop offset="0" style="stop-color:#f6d365"/><stop offset="1" style="stop-color:#fda085"/></linearGradient><path fill="url(#aJ)" d="M1537 1283.5s26.2 39 28.4 56.8c2.2 17.8-7.2 25-34.7 26.2s-101 1.2-101 1.2l-62.7-53.6s45.7-16.3 57.6-20.9c11.8-4.6 112.4-9.7 112.4-9.7z"/><linearGradient id="aK" x1="1288.332" x2="1275.97" y1="1459.352" y2="1648.895" gradientUnits="userSpaceOnUse"><stop offset="0" style="stop-color:#43e97b"/><stop offset="1" style="stop-color:#38f9d7"/></linearGradient><path fill="url(#aK)" d="M1318.8 1507.8s7.5 7.3 2.4 15.4c0 0-59.8 10.6-76 5.8 0 0 3.4-7.7 21.6-16.4l-1.3 1c-1.7 1.3-.7 4 1.4 3.9 12.1-.6 37.1-2.8 51.9-9.7z"/></g><g><linearGradient id="aL" x1="1506.896" x2="1477.64" y1="993.746" y2="1147.442" gradientUnits="userSpaceOnUse"><stop offset="0" style="stop-color:#020039"/><stop offset="1" style="stop-color:#090056"/></linearGradient><path fill="url(#aL)" d="M1423.3 1036.1c53.6-9.1 78.9 34.6 77 43.8-.2 1.2.9 2.2 2.1 1.9 6.2-1.7 19.8-3.7 28.2 6.8 7.4 9.3 1.9 18.1-2.7 23-1.1 1.2-.2 3.1 1.4 2.9 11.3-1.4 35.9-1.8 39.9 21.3 3.8 21.5-11.2 27.5-20.1 29.2-1.5.3-1.9 2.3-.6 3.1 4.4 2.8 9.5 8.6 7.5 20-3.2 17.9-38.4 16.5-42.5 16.2-.3 0-.5-.1-.7-.2l-56.3-32.1c-.4-.3-.7-.7-.8-1.2l-11.4-65.7c-.1-.5.1-1.1.4-1.5l-36.7-51.8c-13.2-1.9 14.7-15.6 15.3-15.7z"/><linearGradient id="aM" x1="1494.096" x2="1509.096" y1="1345.996" y2="1616.011" gradientUnits="userSpaceOnUse"><stop offset="0" style="stop-color:#f6d365"/><stop offset="1" style="stop-color:#fda085"/></linearGradient><path fill="url(#aM)" d="M1466 1278.3s-30.5-29.1-45.6-48.3c-8.1-10.4-10.7-24.1-6.9-36.8 6.9-23.1 19.1-47.1 20.2-50.8 1.7-5.7 35.9-5.5 35.9-5.5s67.4 43.7 93.9 117.8l-29.7 9.3s-17.6-29.5-35-48.3c0 0 30.1 39.7 31.1 56l-63.9 6.6z"/><linearGradient id="aN" x1="1438.191" x2="1468.818" y1="1110.163" y2="1163.291" gradientUnits="userSpaceOnUse"><stop offset="0" style="stop-color:#fda085"/><stop offset="1" style="stop-color:#feb3b1"/></linearGradient><path fill="url(#aN)" d="M1429.6 1110.5c.4 1.2 9.3 30.8 10 31.4.7.6 19.6 1.6 28.5-4.4l-22.1-43.2-16.4 16.2z"/><linearGradient id="aO" x1="1467.887" x2="1413.509" y1="1069.51" y2="1098.262" gradientUnits="userSpaceOnUse"><stop offset="0" style="stop-color:#fda085"/><stop offset="1" style="stop-color:#feb3b1"/></linearGradient><path fill="url(#aO)" d="M1393.7 1072.4s-4.3 17 7.6 39.8c12 22.8 25.5 22.8 32.9 15.5 7.4-7.3 16.5-19.7 14.3-41.8-2.1-22.1-48.5-35.1-54.8-13.5z"/><linearGradient id="aP" x1="-967.736" x2="-996.992" y1="4844.707" y2="4998.404" gradientTransform="rotate(-52.828 -3642.26 577.053)" gradientUnits="userSpaceOnUse"><stop offset="0" style="stop-color:#020039"/><stop offset="1" style="stop-color:#090056"/></linearGradient><path fill="url(#aP)" d="M1432.1 1087.1s-19.8-30.3-38.4-6.5l-.3 8.7s-21.8-2.6-18-22.6c3.8-20 22.6-32.4 46.9-23.8 24.2 8.6 38.1 17.5 39.7 34.9 1.6 17.4-12.3 13.6-12.3 13.6s-4.5-12.2-10.9-13.5c-6.4-1.3-4.7 8.3-4.7 8.3l-2 .9z"/><linearGradient id="aQ" x1="1469.562" x2="1415.184" y1="1073.255" y2="1102.007" gradientUnits="userSpaceOnUse"><stop offset="0" style="stop-color:#fda085"/><stop offset="1" style="stop-color:#feb3b1"/></linearGradient><path fill="url(#aQ)" d="M1440.5 1093.7s-10.3-15.5.3-17.8c10.5-2.3 8.9 15.1 7.8 21.6l-8.1-3.8z"/><linearGradient id="aR" x1="1507.641" x2="1674.24" y1="1273.259" y2="1273.259" gradientUnits="userSpaceOnUse"><stop offset="0" style="stop-color:#fda085"/><stop offset="1" style="stop-color:#feb3b1"/></linearGradient><path fill="url(#aR)" d="m1403.8 1280.5 22.4-21.6 31 13.1s30.9 4.8 48.6 0l17.7-4.8 40-12.4 6.3 17.7c1.6 4.5 0 9.5-3.9 12.3-3.5 2.5-7.5 5.2-10.1 6.3-5.3 2.3-129.7-1.6-129.7-1.6l-22.3-9z"/></g><g><linearGradient id="aS" x1="1433.932" x2="1329.057" y1="1415.435" y2="1444.178" gradientTransform="rotate(-2.807 -1751.747 -218.087)" gradientUnits="userSpaceOnUse"><stop offset="0" style="stop-color:#2af598"/><stop offset="1" style="stop-color:#009efd"/></linearGradient><path fill="url(#aS)" d="M1488.7 1290.7h-.3l-130.2-.1c-3.2 0-5.8-2.6-5.8-5.8 0-3.2 2.6-5.9 5.8-5.8l130.2.1c3.2 0 5.8 2.6 5.8 5.8.1 3.1-2.4 5.6-5.5 5.8z"/><linearGradient id="aT" x1="1368.862" x2="1294.448" y1="1188.352" y2="1267.003" gradientUnits="userSpaceOnUse"><stop offset="0" style="stop-color:#2af598"/><stop offset="1" style="stop-color:#009efd"/></linearGradient><path fill="url(#aT)" d="M1241.2 1172.5h108.4c8 0 15.3 4.6 18.7 11.8l50.1 106.3h-134.7c-5.2 0-9.8-3.1-11.7-7.9l-38.9-98.3c-2.2-5.7 2-11.9 8.1-11.9z"/><ellipse cx="1309.5" cy="1229.6" fill="#37ecba" rx="8.5" ry="13.9" transform="rotate(-17.843 1309.346 1229.531)"/></g></g><g><linearGradient id="aU" x1="-9557.063" x2="-9555.964" y1="1644.276" y2="1760.749" gradientTransform="matrix(-1 0 0 1 -7955.28 0)" gradientUnits="userSpaceOnUse"><stop offset="0" style="stop-color:#2af598"/><stop offset="1" style="stop-color:#009efd"/></linearGradient><path fill="url(#aU)" d="M1637.1 1506.9s1.4 7.6 1.9 16.6c.2 3.8-2.6 7.2-6.4 7.5-13.3 1.3-43.7 3.7-63 .9-2.7-.4-3.8-3.7-1.8-5.6 8-7.4 27.3-21.9 59-25.1l10.3 5.7z"/><linearGradient id="aV" x1="-9585.138" x2="-9591.182" y1="1514.205" y2="1466.956" gradientTransform="matrix(-1 0 0 1 -7955.28 0)" gradientUnits="userSpaceOnUse"><stop offset="0" style="stop-color:#fda085"/><stop offset="1" style="stop-color:#feb3b1"/></linearGradient><path fill="url(#aV)" d="m1643.7 1489.8-6.7 16.5c-.9 2.3-3.2 3.7-5.6 3.4-1.6-.2-3.6-.5-5.5-1.1-3.8-1.2-5.9-5.2-4.8-9l5.1-17 17.5 7.2z"/><linearGradient id="aW" x1="-9714.426" x2="-9713.326" y1="1645.76" y2="1762.232" gradientTransform="matrix(-1 0 0 1 -7955.28 0)" gradientUnits="userSpaceOnUse"><stop offset="0" style="stop-color:#2af598"/><stop offset="1" style="stop-color:#009efd"/></linearGradient><path fill="url(#aW)" d="M1758.9 1520.1s-13.5 11.3-18.7 25.8c-1.4 4 1.6 8.2 5.8 8.2h27.8c4.1 0 7.2-3.7 6.5-7.7-1.8-10.1-6.9-26.3-21.4-26.3z"/><linearGradient id="aX" x1="-9717.226" x2="-9723.114" y1="1530.398" y2="1484.355" gradientTransform="matrix(-1 0 0 1 -7955.28 0)" gradientUnits="userSpaceOnUse"><stop offset="0" style="stop-color:#fda085"/><stop offset="1" style="stop-color:#feb3b1"/></linearGradient><path fill="url(#aX)" d="M1775.6 1505.4s-2.7 12.1-4.8 20c-.4 1.4-1.9 2.2-3.3 1.7-4.2-1.5-7.6-2.2-10.1-1.8-1.1.2-2.2-.8-2.2-2l-.3-20 20.7 2.1z"/><linearGradient id="aY" x1="-9758.381" x2="-9577.113" y1="1355.445" y2="1355.445" gradientTransform="matrix(-1 0 0 1 -7955.28 0)" gradientUnits="userSpaceOnUse"><stop offset="0" style="stop-color:#2af598"/><stop offset="1" style="stop-color:#009efd"/></linearGradient><path fill="url(#aY)" d="m1703.9 1234-82 250.3s15.7 10.3 23.2 9.9l97.5-201.2s17.1 123.9 8.8 212.9l27.9 2.1s45.4-227.4 11-305.3l-86.4 31.3z"/><linearGradient id="aZ" x1="-9720.782" x2="-9714.19" y1="1327.634" y2="1314.448" gradientTransform="matrix(-1 0 0 1 -7955.28 0)" gradientUnits="userSpaceOnUse"><stop offset="0" style="stop-color:#43e97b"/><stop offset="1" style="stop-color:#38f9d7"/></linearGradient><path fill="url(#aZ)" d="M1742 1290.9s.1 0 0 0c.5-.1.8-.5.8-.9l-3.2-25.3c-.1-.4-.4-.7-.9-.7-.4.1-.7.5-.7.9l3.2 25.3c.1.4.4.7.8.7z"/><path fill="#37ecba" d="M1688.5 1013.8s66.5 5.9 57.1 53.3c0 0 36.7 69.1 53.9 150.6.6 2.7-1.2 5.2-3.9 5.7l-110.7 19c-3.1.5-6-1.4-6.8-4.4l-26.5-102.2-10.3 47.5-32.7-8.5 27.6-139.7c0-.1 3.8-20.5 52.3-21.3z"/><path fill="#7D97F4" d="M1651.1 1131.1h.2c.4-.1.7-.5.6-1l-9.2-42.4c-.1-.4-.5-.7-1-.6-.4.1-.7.5-.6 1l9.2 42.4c.1.3.4.6.8.6z"/><linearGradient id="ba" x1="-9672.715" x2="-9590.175" y1="1227.998" y2="1227.998" gradientTransform="matrix(-1 0 0 1 -7955.28 0)" gradientUnits="userSpaceOnUse"><stop offset="0" style="stop-color:#fda085"/><stop offset="1" style="stop-color:#feb3b1"/></linearGradient><path fill="url(#ba)" d="M1657.8 1257.2c3.5-1.9 7.6-2.4 11.4-1.5l7.7 1.9c1.6.4 3.3-.7 3.4-2.4l8-70.9c10 4.7 24.3 4.2 29.1 3.8l-18.3 83.6h-64.2l22.9-14.5z"/><linearGradient id="bb" x1="-9596.652" x2="-9442.514" y1="1124.53" y2="1124.53" gradientTransform="matrix(-1 0 0 1 -7955.28 0)" gradientUnits="userSpaceOnUse"><stop offset="0" style="stop-color:#fda085"/><stop offset="1" style="stop-color:#feb3b1"/></linearGradient><path fill="url(#bb)" d="m1487.2 1103.3 1.9-6.4c1.1-3.7 3.9-6.7 7.5-8.2l35.1-14.1s.5-4.5-7.4-7.6c-7.9-3.1-6.1-12-6.1-12s10.9 5 26.7 12.8c9.1 4.5 14.2 12.4 16.9 18.4l79.5 96.9-9.3 6.4c-12.3 8.4-29.2 4.3-36.1-8.9l-43.1-82.6c-21.6 6.6-43.5 7.9-65.6 5.3z"/><g><linearGradient id="bc" x1="-9652.145" x2="-9598.501" y1="1038.079" y2="983.041" gradientTransform="matrix(-1 0 0 1 -7955.28 0)" gradientUnits="userSpaceOnUse"><stop offset="0" style="stop-color:#fda085"/><stop offset="1" style="stop-color:#feb3b1"/></linearGradient><path fill="url(#bc)" d="m1667 968.5 20.4 57.2s-18.1 14.2-31.3 9.4l-10.3-32.8s7.9-40.1 21.2-33.8z"/><linearGradient id="bd" x1="-9574.348" x2="-9641.228" y1="948.365" y2="1036.842" gradientTransform="matrix(-1 0 0 1 -7955.28 0)" gradientUnits="userSpaceOnUse"><stop offset="0" style="stop-color:#fda085"/><stop offset="1" style="stop-color:#feb3b1"/></linearGradient><path fill="url(#bd)" d="M1605.9 948c0 .9 19.7 55.8 19.7 55.8l31.1-11.9-10.9-54.8c0-.1-39.9-3.9-39.9 10.9z"/><linearGradient id="be" x1="-9625.426" x2="-9545.536" y1="969.708" y2="969.708" gradientTransform="matrix(-1 0 0 1 -7955.28 0)" gradientUnits="userSpaceOnUse"><stop offset="0" style="stop-color:#e1473d"/><stop offset="1" style="stop-color:#e9605a"/></linearGradient><path fill="url(#be)" d="m1640.3 950.4 8 28.4c.1.4.2.7.2 1.1 0 2.3-.6 10.3-8.7 9.2-7.4-1-14.1-1.8-18.4.2-1.9.9-2.8 3.1-2.1 5.1 1.8 5 6 16.1 11.2 25.3 1 1.9 3.3 2.6 5.3 1.7 5.8-2.7 18-8.6 26.7-15.7 1.2-1 1.7-2.5 1.5-4-1.4-7.3-5.4-29.3-5.6-35.7-.2-5.9 6.5-10.5 9.4-12.2 1-.6 1.6-1.5 1.9-2.6.9-3.8 1.7-12.5-9.3-14.4-2.3-.4-3.8-2.6-3.3-4.9.9-4.6.6-11.3-8-13.8-8.8-2.5-14.4 2.8-17.2 6.9-1.1 1.6-3.3 2.2-5.1 1.4-1-.5-2.3-.5-3.7.7-1.8 1.5-4.6 1.1-5.9-.9-2.6-3.8-7.2-7.6-15.2-5-14 4.5-13.4 20.7-8.2 29.5 5.1 8.8 20.1 3 27.2-2.8 5.4-4.4 13.6-1.8 17.2-.3.9.6 1.8 1.6 2.1 2.8z"/><linearGradient id="bf" x1="-9672.302" x2="-9618.658" y1="1018.432" y2="963.395" gradientTransform="matrix(-1 0 0 1 -7955.28 0)" gradientUnits="userSpaceOnUse"><stop offset="0" style="stop-color:#fda085"/><stop offset="1" style="stop-color:#feb3b1"/></linearGradient><path fill="url(#bf)" d="M1661.1 976.5s-8.3-15.7-2.8-20.7c5.5-4.9 14.8-4.1 14.6 8.2-.3 15.3-11.8 12.5-11.8 12.5z"/></g><path fill="#7D97F4" d="M1711 1189.2c4.5 0 7.8-.3 8.1-.4l.6-.1 24.2-112.9c.1-.4-.2-.9-.6-1-.4-.1-.9.2-1 .6l-24 111.7c-3.6.3-22.8 1.6-33-5.6l21-98-4.4-8.2c-.2-.4-.7-.6-1.1-.3-.4.2-.6.7-.3 1.1l4.1 7.7-21.1 98.5.4.3c7.4 5.5 19.2 6.6 27.1 6.6z"/></g><g fill="#7D97F4"><path d="M985.3 1533.2c-.6 0-1.1-.1-1.7-.4-2.1-1-3.1-3.7-2.2-6l88.4-224.4c.9-2.3 3.4-3.4 5.5-2.4s3.1 3.7 2.2 6l-88.4 224.4c-.6 1.8-2.1 2.8-3.8 2.8z"/><path d="M1085 1533.2c-1.6 0-3.2-1-3.9-2.8L992.7 1306c-.9-2.3.1-5 2.2-6s4.6.1 5.5 2.4l88.4 224.4c.9 2.3-.1 5-2.2 6-.5.3-1.1.4-1.6.4zM1585.6 1533.2c-.6 0-1.1-.1-1.7-.4-2.1-1-3.1-3.7-2.2-6l88.4-224.4c.9-2.3 3.4-3.4 5.5-2.4s3.1 3.7 2.2 6l-88.4 224.4c-.6 1.8-2.1 2.8-3.8 2.8z"/><path d="M1685.3 1533.2c-1.6 0-3.2-1-3.9-2.8L1593 1306c-.9-2.3.1-5 2.2-6s4.6.1 5.5 2.4l88.4 224.4c.9 2.3-.1 5-2.2 6-.5.3-1.1.4-1.6.4z"/></g><g><linearGradient id="bg" x1="-9575.185" x2="-9687.058" y1="1268.941" y2="1341.462" gradientTransform="matrix(-1 0 0 1 -7955.28 0)" gradientUnits="userSpaceOnUse"><stop offset="0" style="stop-color:#fda085"/><stop offset="1" style="stop-color:#feb3b1"/></linearGradient><path fill="url(#bg)" d="M1572.8 1286.5h128.1v-13.2h-128.1c2.7 0 2.7 13.2 0 13.2z"/><linearGradient id="bh" x1="-5769.353" x2="-5769.902" y1="1352.845" y2="1319.907" gradientTransform="matrix(-1 0 0 1 -4129.28 0)" gradientUnits="userSpaceOnUse"><stop offset="0" style="stop-color:#e1473d"/><stop offset="1" style="stop-color:#e9605a"/></linearGradient><path fill="url(#bh)" d="M1699.9 1286.5c.6 0 1-.4 1-1v-11.2c0-.5-.4-1-1-1h-130c-.6 0-1-.4-1-1v-1c0-.6.4-1 1-1h138.3c3.1 0 5.5 2.5 5.5 5.5v8.4c0 2.9-2.3 5.2-5.2 5.2h-138.7c-.6 0-1-.5-1-1v-1c0-.5.4-1 1-1h130.1z"/></g><path fill="#7D97F4" d="M1719.5 1295.4c.4-1.5-.2-3-1.6-4.2-1.4-1.2-3.6-1.8-5.9-1.8H944.4c-3 0-5.8 1-7.4 2.7-1.6 1.7-1.8 3.8-.6 5.6l8.3 11.9c1.9 2.7 6 4.5 10.6 4.5h751.4c4.2 0 7.9-2 8.7-4.7l4.1-14z"/></g><g><linearGradient id="bu" x1="1003.044" x2="1602.953" y1="321.866" y2="321.866" gradientUnits="userSpaceOnUse"><stop offset="0" style="stop-color:#43e97b"/><stop offset="1" style="stop-color:#38f9d7"/></linearGradient><path fill="url(#bu)" d="M1017.5 298c81.9-1.2 487.3-8.3 570.5-9.8 8.2-.1 14.9 6.5 14.9 14.7v38c0 8.1-6.6 14.7-14.7 14.7h-570.5c-8.1 0-14.7-6.6-14.7-14.7v-28.2c0-8.1 6.5-14.6 14.5-14.7z"/><path fill="#96fbc4" d="M1120.8 327.2c0 8.3 6.8 14.9 15 14.8l330.6-5.7c9.5-.2 16.4-9.1 14.1-18.3l-1.5-6.1c-1.7-6.8-7.9-11.5-14.9-11.2L1135 312.6c-7.9.1-14.2 6.6-14.2 14.6z"/><g><linearGradient id="bv" x1="994.673" x2="1050.31" y1="359.681" y2="359.681" gradientUnits="userSpaceOnUse"><stop offset="0" style="stop-color:#f6d365"/><stop offset="1" style="stop-color:#fda085"/></linearGradient><path fill="url(#bv)" d="M1047 329.3 996.2 381c-2.1 2.2-2 5.7.4 7.7l.4.3c2.1 1.7 5.1 1.5 6.9-.6l46.5-56.1-3.4-3z"/><linearGradient id="bw" x1="2474.334" x2="2541.621" y1="1363.758" y2="1363.758" gradientTransform="rotate(-25.511 -555.923 4011.56)" gradientUnits="userSpaceOnUse"><stop offset="0" style="stop-color:#8ff1eb"/><stop offset="1" style="stop-color:#f9fea5"/></linearGradient><path fill="url(#bw)" d="M1099.2 287.8c7.9 16.5.6 36.3-16.1 44.3-16.8 8-36.7 1.1-44.6-15.3-7.9-16.5-.6-36.3 16.1-44.3 16.8-8 36.7-1.2 44.6 15.3z" opacity=".28"/><linearGradient id="bx" x1="1031.517" x2="1106.16" y1="302.296" y2="302.296" gradientUnits="userSpaceOnUse"><stop offset="0" style="stop-color:#f6d365"/><stop offset="1" style="stop-color:#fda085"/></linearGradient><path fill="url(#bx)" d="M1053 269.1c-18.7 8.9-26.7 31-18 49.3 8.7 18.3 31 26 49.6 17.1 18.7-8.9 26.7-31 18-49.3-8.7-18.4-30.9-26-49.6-17.1zm29.3 61.5c-15.9 7.6-34.9 1.1-42.3-14.5-7.5-15.6-.6-34.5 15.3-42.1 15.9-7.6 34.9-1.1 42.3 14.5 7.5 15.7.7 34.5-15.3 42.1z"/></g></g><text x="1150" y="328" fill="#f6d365" font-size="96">in</text></g></svg>